<svg width="132" height="132" viewBox="0 0 132 132" fill="none" xmlns="http://www.w3.org/2000/svg">
<g filter="url(#filter0_d)">
<path d="M0 0L132 1.6986e-06V132H0V0Z" fill="#65BDC0"/>
</g>
<path d="M22.9772 75.0384H24.4183C26.0718 75.0384 27.256 74.8262 27.971 74.4016C28.686 73.9771 29.0435 73.2956 29.0435 72.3572C29.0435 71.4187 28.686 70.7373 27.971 70.3127C27.256 69.8882 26.0718 69.6759 24.4183 69.6759H22.9772V75.0384ZM22.9772 64.7827H24.1837C26.2393 64.7827 27.2672 63.9671 27.2672 62.336C27.2672 60.7049 26.2393 59.8894 24.1837 59.8894H22.9772V64.7827ZM16.4081 54.862H26.1947C28.5184 54.862 30.2836 55.4206 31.4901 56.5378C32.6967 57.655 33.3 59.2637 33.3 61.3641C33.3 62.6377 33.0654 63.699 32.5961 64.548C32.1493 65.3748 31.4566 66.0786 30.5182 66.6595C31.4566 66.8383 32.2498 67.1176 32.8978 67.4974C33.5681 67.8549 34.1043 68.3018 34.5065 68.838C34.9311 69.3743 35.2327 69.9776 35.4115 70.6479C35.5902 71.3182 35.6796 72.0332 35.6796 72.7929C35.6796 73.9771 35.4673 75.0273 35.0428 75.9434C34.6406 76.8595 34.0597 77.6303 33.3 78.2559C32.5626 78.8816 31.6577 79.3508 30.5852 79.6636C29.5127 79.9764 28.3061 80.1328 26.9655 80.1328H16.4081V54.862ZM39.044 62.9393H45.1103V65.7546C45.7583 64.7268 46.5515 63.9448 47.4899 63.4085C48.4283 62.8499 49.5232 62.5706 50.7744 62.5706C50.9308 62.5706 51.0984 62.5706 51.2772 62.5706C51.4783 62.5706 51.7017 62.593 51.9475 62.6377V68.4359C51.1431 68.0337 50.2717 67.8326 49.3333 67.8326C47.9256 67.8326 46.8643 68.2571 46.1493 69.1062C45.4566 69.9329 45.1103 71.1506 45.1103 72.7594V80.1328H39.044V62.9393ZM67.421 69.0391C67.2199 68.1901 66.8065 67.5086 66.1809 66.9947C65.5553 66.4808 64.7956 66.2238 63.9018 66.2238C62.9634 66.2238 62.1925 66.4696 61.5892 66.9612C61.0083 67.4527 60.6396 68.1454 60.4832 69.0391H67.421ZM60.3157 72.5583C60.3157 75.1725 61.5446 76.4796 64.0024 76.4796C65.3207 76.4796 66.315 75.9434 66.9853 74.8709H72.8505C71.6663 78.8034 68.7057 80.7696 63.9689 80.7696C62.5165 80.7696 61.1871 80.5573 59.9805 80.1328C58.7739 79.6859 57.735 79.0603 56.8635 78.2559C56.0145 77.4516 55.3553 76.4908 54.8861 75.3736C54.4169 74.2564 54.1823 73.0052 54.1823 71.6198C54.1823 70.1898 54.4057 68.9051 54.8526 67.7655C55.2995 66.6037 55.9363 65.6205 56.763 64.8162C57.5897 64.0118 58.584 63.3973 59.7459 62.9728C60.9301 62.5259 62.2596 62.3025 63.7342 62.3025C65.1866 62.3025 66.4937 62.5259 67.6556 62.9728C68.8175 63.3973 69.8006 64.023 70.605 64.8497C71.4093 65.6764 72.0238 66.693 72.4483 67.8996C72.8728 69.0838 73.0851 70.4245 73.0851 71.9215V72.5583H60.3157ZM90.2606 71.5863C90.2606 71.0501 90.16 70.5473 89.9589 70.0781C89.7578 69.5866 89.4785 69.162 89.121 68.8045C88.7635 68.447 88.3502 68.1677 87.8809 67.9666C87.4117 67.7432 86.8978 67.6315 86.3392 67.6315C85.803 67.6315 85.3002 67.732 84.831 67.9331C84.3618 68.1342 83.9484 68.4135 83.5909 68.771C83.2558 69.1285 82.9765 69.553 82.7531 70.0446C82.552 70.5138 82.4514 71.0166 82.4514 71.5528C82.4514 72.0891 82.552 72.5918 82.7531 73.061C82.9542 73.5302 83.2334 73.9436 83.5909 74.3011C83.9484 74.6362 84.3618 74.9155 84.831 75.139C85.3226 75.3401 85.8365 75.4406 86.3727 75.4406C86.909 75.4406 87.4117 75.3401 87.8809 75.139C88.3502 74.9379 88.7524 74.6586 89.0875 74.3011C89.445 73.9436 89.7243 73.5302 89.9254 73.061C90.1488 72.5918 90.2606 72.1002 90.2606 71.5863ZM82.619 52.3148V64.6486C84.049 63.1516 85.8365 62.403 87.9815 62.403C89.2551 62.403 90.417 62.6488 91.4671 63.1404C92.5396 63.6096 93.4445 64.2576 94.1819 65.0843C94.9416 65.8887 95.5337 66.8495 95.9582 67.9666C96.3827 69.0615 96.595 70.2345 96.595 71.4858C96.595 72.7594 96.3716 73.9548 95.9247 75.072C95.5002 76.1891 94.8969 77.1611 94.1149 77.9878C93.3328 78.8145 92.4056 79.4737 91.3331 79.9652C90.2829 80.4345 89.1434 80.6691 87.9145 80.6691C85.6801 80.6691 83.9149 79.8535 82.619 78.2224V80.1328H76.5527V52.3148H82.619ZM106.119 62.9393V80.1328H100.053V62.9393H106.119ZM99.6507 56.3367C99.6507 55.8675 99.7401 55.4318 99.9188 55.0296C100.098 54.6051 100.343 54.2364 100.656 53.9236C100.969 53.6108 101.326 53.365 101.729 53.1862C102.153 53.0075 102.6 52.9181 103.069 52.9181C103.539 52.9181 103.974 53.0075 104.376 53.1862C104.801 53.365 105.17 53.6108 105.482 53.9236C105.795 54.2364 106.041 54.6051 106.22 55.0296C106.399 55.4318 106.488 55.8675 106.488 56.3367C106.488 56.8059 106.399 57.2528 106.22 57.6773C106.041 58.0795 105.795 58.437 105.482 58.7498C105.17 59.0627 104.801 59.3084 104.376 59.4872C103.974 59.6659 103.539 59.7553 103.069 59.7553C102.6 59.7553 102.153 59.6659 101.729 59.4872C101.326 59.3084 100.969 59.0627 100.656 58.7498C100.343 58.437 100.098 58.0795 99.9188 57.6773C99.7401 57.2528 99.6507 56.8059 99.6507 56.3367ZM117.035 68.0002V80.1328H110.969V68.0002H108.958V62.9393H110.969V57.7779H117.035V62.9393H120.487V68.0002H117.035Z" fill="white"/>
<defs>
<filter id="filter0_d" x="-2.57812" y="-2.0625" width="137.156" height="137.156" filterUnits="userSpaceOnUse" color-interpolation-filters="sRGB">
<feFlood flood-opacity="0" result="BackgroundImageFix"/>
<feColorMatrix in="SourceAlpha" type="matrix" values="0 0 0 0 0 0 0 0 0 0 0 0 0 0 0 0 0 0 127 0"/>
<feOffset dy="0.515625"/>
<feGaussianBlur stdDeviation="1.28906"/>
<feColorMatrix type="matrix" values="0 0 0 0 0 0 0 0 0 0 0 0 0 0 0 0 0 0 0.25 0"/>
<feBlend mode="normal" in2="BackgroundImageFix" result="effect1_dropShadow"/>
<feBlend mode="normal" in="SourceGraphic" in2="effect1_dropShadow" result="shape"/>
</filter>
</defs>
</svg>
