<svg width="250" height="42" viewBox="0 0 250 42" fill="none" xmlns="http://www.w3.org/2000/svg">
<path d="M247 0.9H3C1.8402 0.9 0.9 1.8402 0.9 3V39C0.9 40.1598 1.8402 41.1 3 41.1H247C248.16 41.1 249.1 40.1598 249.1 39V3C249.1 1.8402 248.16 0.9 247 0.9Z" fill="white" stroke="black" stroke-width="0.2"/>
<path d="M58.9893 23.7041C58.9893 23.1416 58.79 22.708 58.3916 22.4033C57.999 22.0986 57.2871 21.791 56.2559 21.4805C55.2246 21.1699 54.4043 20.8242 53.7949 20.4434C52.6289 19.7109 52.0459 18.7559 52.0459 17.5781C52.0459 16.5469 52.4648 15.6973 53.3027 15.0293C54.1465 14.3613 55.2393 14.0273 56.5811 14.0273C57.4717 14.0273 58.2656 14.1914 58.9629 14.5195C59.6602 14.8477 60.208 15.3164 60.6064 15.9258C61.0049 16.5293 61.2041 17.2002 61.2041 17.9385H58.9893C58.9893 17.2705 58.7783 16.749 58.3564 16.374C57.9404 15.9932 57.3428 15.8027 56.5635 15.8027C55.8369 15.8027 55.2715 15.958 54.8672 16.2686C54.4688 16.5791 54.2695 17.0127 54.2695 17.5693C54.2695 18.0381 54.4863 18.4307 54.9199 18.7471C55.3535 19.0576 56.0684 19.3623 57.0645 19.6611C58.0605 19.9541 58.8604 20.291 59.4639 20.6719C60.0674 21.0469 60.5098 21.4805 60.791 21.9727C61.0723 22.459 61.2129 23.0303 61.2129 23.6865C61.2129 24.7529 60.8027 25.6025 59.9824 26.2354C59.168 26.8623 58.0605 27.1758 56.6602 27.1758C55.7344 27.1758 54.8818 27.0059 54.1025 26.666C53.3291 26.3203 52.7256 25.8457 52.292 25.2422C51.8643 24.6387 51.6504 23.9355 51.6504 23.1328H53.874C53.874 23.8594 54.1143 24.4219 54.5947 24.8203C55.0752 25.2188 55.7637 25.418 56.6602 25.418C57.4336 25.418 58.0137 25.2627 58.4004 24.9521C58.793 24.6357 58.9893 24.2197 58.9893 23.7041ZM65.2295 27H63.0938V17.4902H65.2295V27ZM62.9619 15.0205C62.9619 14.6924 63.0645 14.4199 63.2695 14.2031C63.4805 13.9863 63.7793 13.8779 64.166 13.8779C64.5527 13.8779 64.8516 13.9863 65.0625 14.2031C65.2734 14.4199 65.3789 14.6924 65.3789 15.0205C65.3789 15.3428 65.2734 15.6123 65.0625 15.8291C64.8516 16.04 64.5527 16.1455 64.166 16.1455C63.7793 16.1455 63.4805 16.04 63.2695 15.8291C63.0645 15.6123 62.9619 15.3428 62.9619 15.0205ZM67.1895 22.1748C67.1895 20.6982 67.5352 19.5205 68.2266 18.6416C68.9238 17.7568 69.8467 17.3145 70.9951 17.3145C72.0791 17.3145 72.9316 17.6924 73.5527 18.4482L73.6494 17.4902H75.5742V26.71C75.5742 27.958 75.1846 28.9424 74.4053 29.6631C73.6318 30.3838 72.5859 30.7441 71.2676 30.7441C70.5703 30.7441 69.8877 30.5977 69.2197 30.3047C68.5576 30.0176 68.0537 29.6396 67.708 29.1709L68.7188 27.8877C69.375 28.667 70.1836 29.0566 71.1445 29.0566C71.8535 29.0566 72.4131 28.8633 72.8232 28.4766C73.2334 28.0957 73.4385 27.5332 73.4385 26.7891V26.1475C72.8232 26.833 72.0029 27.1758 70.9775 27.1758C69.8643 27.1758 68.9531 26.7334 68.2441 25.8486C67.541 24.9639 67.1895 23.7393 67.1895 22.1748ZM69.3164 22.3594C69.3164 23.3145 69.5098 24.0674 69.8965 24.6182C70.2891 25.1631 70.8311 25.4355 71.5225 25.4355C72.3838 25.4355 73.0225 25.0664 73.4385 24.3281V20.1445C73.0342 19.4238 72.4014 19.0635 71.54 19.0635C70.8369 19.0635 70.2891 19.3418 69.8965 19.8984C69.5098 20.4551 69.3164 21.2754 69.3164 22.3594ZM79.7578 17.4902L79.8193 18.5889C80.5225 17.7393 81.4453 17.3145 82.5879 17.3145C84.5684 17.3145 85.5762 18.4482 85.6113 20.7158V27H83.4756V20.8389C83.4756 20.2354 83.3438 19.79 83.0801 19.5029C82.8223 19.21 82.3975 19.0635 81.8057 19.0635C80.9443 19.0635 80.3027 19.4531 79.8809 20.2324V27H77.7451V17.4902H79.7578ZM94.5498 27H92.4141V17.4902H94.5498V27ZM92.2822 15.0205C92.2822 14.6924 92.3848 14.4199 92.5898 14.2031C92.8008 13.9863 93.0996 13.8779 93.4863 13.8779C93.873 13.8779 94.1719 13.9863 94.3828 14.2031C94.5938 14.4199 94.6992 14.6924 94.6992 15.0205C94.6992 15.3428 94.5938 15.6123 94.3828 15.8291C94.1719 16.04 93.873 16.1455 93.4863 16.1455C93.0996 16.1455 92.8008 16.04 92.5898 15.8291C92.3848 15.6123 92.2822 15.3428 92.2822 15.0205ZM98.8652 17.4902L98.9268 18.5889C99.6299 17.7393 100.553 17.3145 101.695 17.3145C103.676 17.3145 104.684 18.4482 104.719 20.7158V27H102.583V20.8389C102.583 20.2354 102.451 19.79 102.188 19.5029C101.93 19.21 101.505 19.0635 100.913 19.0635C100.052 19.0635 99.4102 19.4531 98.9883 20.2324V27H96.8525V17.4902H98.8652ZM119.739 24.0557L121.251 17.4902H123.334L120.741 27H118.983L116.944 20.4697L114.94 27H113.183L110.581 17.4902H112.664L114.202 23.9854L116.153 17.4902H117.762L119.739 24.0557ZM127.034 27H124.898V17.4902H127.034V27ZM124.767 15.0205C124.767 14.6924 124.869 14.4199 125.074 14.2031C125.285 13.9863 125.584 13.8779 125.971 13.8779C126.357 13.8779 126.656 13.9863 126.867 14.2031C127.078 14.4199 127.184 14.6924 127.184 15.0205C127.184 15.3428 127.078 15.6123 126.867 15.8291C126.656 16.04 126.357 16.1455 125.971 16.1455C125.584 16.1455 125.285 16.04 125.074 15.8291C124.869 15.6123 124.767 15.3428 124.767 15.0205ZM132.044 15.1787V17.4902H133.723V19.0723H132.044V24.3809C132.044 24.7441 132.114 25.0078 132.255 25.1719C132.401 25.3301 132.659 25.4092 133.028 25.4092C133.274 25.4092 133.523 25.3799 133.775 25.3213V26.9736C133.289 27.1084 132.82 27.1758 132.369 27.1758C130.729 27.1758 129.908 26.2705 129.908 24.46V19.0723H128.344V17.4902H129.908V15.1787H132.044ZM137.467 18.5273C138.164 17.7188 139.046 17.3145 140.112 17.3145C142.14 17.3145 143.168 18.4717 143.197 20.7861V27H141.062V20.8652C141.062 20.209 140.918 19.7461 140.631 19.4766C140.35 19.2012 139.934 19.0635 139.383 19.0635C138.527 19.0635 137.889 19.4443 137.467 20.2061V27H135.331V13.5H137.467V18.5273ZM159.861 25.3389C159.398 25.9424 158.757 26.3994 157.937 26.71C157.116 27.0205 156.185 27.1758 155.142 27.1758C154.069 27.1758 153.12 26.9326 152.294 26.4463C151.468 25.96 150.829 25.2656 150.378 24.3633C149.933 23.4551 149.701 22.3975 149.684 21.1904V20.1885C149.684 18.2549 150.146 16.7461 151.072 15.6621C151.998 14.5723 153.29 14.0273 154.948 14.0273C156.372 14.0273 157.503 14.3789 158.341 15.082C159.179 15.7852 159.683 16.7988 159.853 18.123H157.673C157.427 16.582 156.533 15.8115 154.992 15.8115C153.996 15.8115 153.237 16.1719 152.716 16.8926C152.2 17.6074 151.934 18.6592 151.916 20.0479V21.0322C151.916 22.415 152.206 23.4902 152.786 24.2578C153.372 25.0195 154.184 25.4004 155.221 25.4004C156.357 25.4004 157.166 25.1426 157.646 24.627V22.1221H155.01V20.4346H159.861V25.3389ZM161.698 22.1572C161.698 21.2256 161.883 20.3877 162.252 19.6436C162.621 18.8936 163.14 18.3193 163.808 17.9209C164.476 17.5166 165.243 17.3145 166.11 17.3145C167.394 17.3145 168.434 17.7275 169.23 18.5537C170.033 19.3799 170.467 20.4756 170.531 21.8408L170.54 22.3418C170.54 23.2793 170.358 24.1172 169.995 24.8555C169.638 25.5938 169.122 26.165 168.448 26.5693C167.78 26.9736 167.007 27.1758 166.128 27.1758C164.786 27.1758 163.711 26.7305 162.902 25.8398C162.1 24.9434 161.698 23.751 161.698 22.2627V22.1572ZM163.834 22.3418C163.834 23.3203 164.036 24.0879 164.44 24.6445C164.845 25.1953 165.407 25.4707 166.128 25.4707C166.849 25.4707 167.408 25.1895 167.807 24.627C168.211 24.0645 168.413 23.2412 168.413 22.1572C168.413 21.1963 168.205 20.4346 167.789 19.8721C167.379 19.3096 166.819 19.0283 166.11 19.0283C165.413 19.0283 164.859 19.3066 164.449 19.8633C164.039 20.4141 163.834 21.2402 163.834 22.3418ZM171.946 22.1572C171.946 21.2256 172.131 20.3877 172.5 19.6436C172.869 18.8936 173.388 18.3193 174.056 17.9209C174.724 17.5166 175.491 17.3145 176.358 17.3145C177.642 17.3145 178.682 17.7275 179.479 18.5537C180.281 19.3799 180.715 20.4756 180.779 21.8408L180.788 22.3418C180.788 23.2793 180.606 24.1172 180.243 24.8555C179.886 25.5938 179.37 26.165 178.696 26.5693C178.028 26.9736 177.255 27.1758 176.376 27.1758C175.034 27.1758 173.959 26.7305 173.15 25.8398C172.348 24.9434 171.946 23.751 171.946 22.2627V22.1572ZM174.082 22.3418C174.082 23.3203 174.284 24.0879 174.688 24.6445C175.093 25.1953 175.655 25.4707 176.376 25.4707C177.097 25.4707 177.656 25.1895 178.055 24.627C178.459 24.0645 178.661 23.2412 178.661 22.1572C178.661 21.1963 178.453 20.4346 178.037 19.8721C177.627 19.3096 177.067 19.0283 176.358 19.0283C175.661 19.0283 175.107 19.3066 174.697 19.8633C174.287 20.4141 174.082 21.2402 174.082 22.3418ZM182.221 22.1748C182.221 20.6982 182.566 19.5205 183.258 18.6416C183.955 17.7568 184.878 17.3145 186.026 17.3145C187.11 17.3145 187.963 17.6924 188.584 18.4482L188.681 17.4902H190.605V26.71C190.605 27.958 190.216 28.9424 189.437 29.6631C188.663 30.3838 187.617 30.7441 186.299 30.7441C185.602 30.7441 184.919 30.5977 184.251 30.3047C183.589 30.0176 183.085 29.6396 182.739 29.1709L183.75 27.8877C184.406 28.667 185.215 29.0566 186.176 29.0566C186.885 29.0566 187.444 28.8633 187.854 28.4766C188.265 28.0957 188.47 27.5332 188.47 26.7891V26.1475C187.854 26.833 187.034 27.1758 186.009 27.1758C184.896 27.1758 183.984 26.7334 183.275 25.8486C182.572 24.9639 182.221 23.7393 182.221 22.1748ZM184.348 22.3594C184.348 23.3145 184.541 24.0674 184.928 24.6182C185.32 25.1631 185.862 25.4355 186.554 25.4355C187.415 25.4355 188.054 25.0664 188.47 24.3281V20.1445C188.065 19.4238 187.433 19.0635 186.571 19.0635C185.868 19.0635 185.32 19.3418 184.928 19.8984C184.541 20.4551 184.348 21.2754 184.348 22.3594ZM195.079 27H192.943V13.5H195.079V27ZM201.601 27.1758C200.247 27.1758 199.148 26.751 198.305 25.9014C197.467 25.0459 197.048 23.9092 197.048 22.4912V22.2275C197.048 21.2783 197.229 20.4316 197.593 19.6875C197.962 18.9375 198.478 18.3545 199.14 17.9385C199.802 17.5225 200.54 17.3145 201.354 17.3145C202.649 17.3145 203.648 17.7275 204.352 18.5537C205.061 19.3799 205.415 20.5488 205.415 22.0605V22.9219H199.201C199.266 23.707 199.526 24.3281 199.983 24.7852C200.446 25.2422 201.026 25.4707 201.724 25.4707C202.702 25.4707 203.499 25.0752 204.114 24.2842L205.266 25.3828C204.885 25.9512 204.375 26.3936 203.736 26.71C203.104 27.0205 202.392 27.1758 201.601 27.1758ZM201.346 19.0283C200.76 19.0283 200.285 19.2334 199.922 19.6436C199.564 20.0537 199.336 20.625 199.236 21.3574H203.306V21.1992C203.259 20.4844 203.068 19.9453 202.734 19.582C202.4 19.2129 201.938 19.0283 201.346 19.0283Z" fill="black" fill-opacity="0.54"/>
<path d="M21 15.48C22.2896 15.46 23.5369 15.9402 24.48 16.82L27.02 14.34C25.3909 12.8117 23.2336 11.9732 21 12C19.3317 11.9996 17.6961 12.4633 16.2763 13.3393C14.8564 14.2152 13.7082 15.4689 12.96 16.96L15.87 19.22C16.2259 18.138 16.9125 17.1951 17.8329 16.5241C18.7532 15.8531 19.861 15.4879 21 15.48Z" fill="#EA4335"/>
<path d="M29.64 21.2C29.6507 20.5812 29.5869 19.9635 29.45 19.36H21V22.7H25.96C25.8659 23.2856 25.6545 23.8461 25.3383 24.3479C25.0221 24.8497 24.6077 25.2824 24.12 25.62L26.96 27.82C27.8446 26.9651 28.5402 25.9343 29.0018 24.7941C29.4634 23.6538 29.6808 22.4295 29.64 21.2Z" fill="#4285F4"/>
<path d="M15.88 22.78C15.6834 22.207 15.582 21.6057 15.58 21C15.5836 20.3952 15.6815 19.7946 15.87 19.22L12.96 16.96C12.3288 18.2131 12 19.5968 12 21C12 22.4031 12.3288 23.7868 12.96 25.04L15.88 22.78Z" fill="#FBBC05"/>
<path d="M21 30C23.1923 30.062 25.3251 29.2819 26.96 27.82L24.12 25.62C23.199 26.2374 22.1083 26.552 21 26.52C19.8619 26.5134 18.7548 26.1485 17.8358 25.4772C16.9168 24.8059 16.2325 23.8622 15.88 22.78L12.97 25.04C13.716 26.5308 14.8624 27.7843 16.2806 28.6604C17.6989 29.5364 19.333 30.0003 21 30Z" fill="#34A853"/>
</svg>
