<svg width="375" height="120" viewBox="0 0 375 120" fill="none" xmlns="http://www.w3.org/2000/svg">
<path d="M91.9445 77.056H95.0405C98.5925 77.056 101.137 76.6 102.673 75.688C104.209 74.776 104.977 73.312 104.977 71.296C104.977 69.28 104.209 67.816 102.673 66.904C101.137 65.992 98.5925 65.536 95.0405 65.536H91.9445V77.056ZM91.9445 55.024H94.5365C98.9525 55.024 101.161 53.272 101.161 49.768C101.161 46.264 98.9525 44.512 94.5365 44.512H91.9445V55.024ZM77.8325 33.712H98.8565C103.849 33.712 107.641 34.912 110.233 37.312C112.825 39.712 114.121 43.168 114.121 47.68C114.121 50.416 113.617 52.696 112.609 54.52C111.649 56.296 110.161 57.808 108.145 59.056C110.161 59.44 111.865 60.04 113.257 60.856C114.697 61.624 115.849 62.584 116.713 63.736C117.625 64.888 118.273 66.184 118.657 67.624C119.041 69.064 119.233 70.6 119.233 72.232C119.233 74.776 118.777 77.032 117.865 79C117.001 80.968 115.753 82.624 114.121 83.968C112.537 85.312 110.593 86.32 108.289 86.992C105.985 87.664 103.393 88 100.513 88H77.8325V33.712ZM126.46 51.064H139.492V57.112C140.884 54.904 142.588 53.224 144.604 52.072C146.62 50.872 148.972 50.272 151.66 50.272C151.996 50.272 152.356 50.272 152.74 50.272C153.172 50.272 153.652 50.32 154.18 50.416V62.872C152.452 62.008 150.58 61.576 148.564 61.576C145.54 61.576 143.26 62.488 141.724 64.312C140.236 66.088 139.492 68.704 139.492 72.16V88H126.46V51.064ZM187.421 64.168C186.989 62.344 186.101 60.88 184.757 59.776C183.413 58.672 181.781 58.12 179.861 58.12C177.845 58.12 176.189 58.648 174.893 59.704C173.645 60.76 172.853 62.248 172.517 64.168H187.421ZM172.157 71.728C172.157 77.344 174.797 80.152 180.077 80.152C182.909 80.152 185.045 79 186.485 76.696H199.085C196.541 85.144 190.181 89.368 180.005 89.368C176.885 89.368 174.029 88.912 171.437 88C168.845 87.04 166.613 85.696 164.741 83.968C162.917 82.24 161.501 80.176 160.493 77.776C159.485 75.376 158.981 72.688 158.981 69.712C158.981 66.64 159.461 63.88 160.421 61.432C161.381 58.936 162.749 56.824 164.525 55.096C166.301 53.368 168.437 52.048 170.933 51.136C173.477 50.176 176.333 49.696 179.501 49.696C182.621 49.696 185.429 50.176 187.925 51.136C190.421 52.048 192.533 53.392 194.261 55.168C195.989 56.944 197.309 59.128 198.221 61.72C199.133 64.264 199.589 67.144 199.589 70.36V71.728H172.157ZM236.486 69.64C236.486 68.488 236.27 67.408 235.838 66.4C235.406 65.344 234.806 64.432 234.038 63.664C233.27 62.896 232.382 62.296 231.374 61.864C230.366 61.384 229.262 61.144 228.062 61.144C226.91 61.144 225.83 61.36 224.822 61.792C223.814 62.224 222.926 62.824 222.158 63.592C221.438 64.36 220.838 65.272 220.358 66.328C219.926 67.336 219.71 68.416 219.71 69.568C219.71 70.72 219.926 71.8 220.358 72.808C220.79 73.816 221.39 74.704 222.158 75.472C222.926 76.192 223.814 76.792 224.822 77.272C225.878 77.704 226.982 77.92 228.134 77.92C229.286 77.92 230.366 77.704 231.374 77.272C232.382 76.84 233.246 76.24 233.966 75.472C234.734 74.704 235.334 73.816 235.766 72.808C236.246 71.8 236.486 70.744 236.486 69.64ZM220.07 28.24V54.736C223.142 51.52 226.982 49.912 231.59 49.912C234.326 49.912 236.822 50.44 239.078 51.496C241.382 52.504 243.326 53.896 244.91 55.672C246.542 57.4 247.814 59.464 248.726 61.864C249.638 64.216 250.094 66.736 250.094 69.424C250.094 72.16 249.614 74.728 248.654 77.128C247.742 79.528 246.446 81.616 244.766 83.392C243.086 85.168 241.094 86.584 238.79 87.64C236.534 88.648 234.086 89.152 231.446 89.152C226.646 89.152 222.854 87.4 220.07 83.896V88H207.038V28.24H220.07ZM270.555 51.064V88H257.523V51.064H270.555ZM256.659 36.88C256.659 35.872 256.851 34.936 257.235 34.072C257.619 33.16 258.147 32.368 258.819 31.696C259.491 31.024 260.259 30.496 261.123 30.112C262.035 29.728 262.995 29.536 264.003 29.536C265.011 29.536 265.947 29.728 266.811 30.112C267.723 30.496 268.515 31.024 269.187 31.696C269.859 32.368 270.387 33.16 270.771 34.072C271.155 34.936 271.347 35.872 271.347 36.88C271.347 37.888 271.155 38.848 270.771 39.76C270.387 40.624 269.859 41.392 269.187 42.064C268.515 42.736 267.723 43.264 266.811 43.648C265.947 44.032 265.011 44.224 264.003 44.224C262.995 44.224 262.035 44.032 261.123 43.648C260.259 43.264 259.491 42.736 258.819 42.064C258.147 41.392 257.619 40.624 257.235 39.76C256.851 38.848 256.659 37.888 256.659 36.88ZM294.004 61.936V88H280.972V61.936H276.652V51.064H280.972V39.976H294.004V51.064H301.42V61.936H294.004Z" fill="white"/>
</svg>
