<svg width="347" height="245" viewBox="0 0 347 245" fill="none" xmlns="http://www.w3.org/2000/svg">
<path d="M88.7632 86.5068C88.7632 86.5068 85.6172 83.9391 80.6847 91.5526C75.7522 99.1661 73.7129 103.668 73.7129 103.668C73.7129 103.668 72.4545 105.243 71.4095 104.021C70.3646 102.799 69.0893 99.5081 67.0613 99.8725C65.0332 100.237 64.0445 102.457 64.095 105.843C64.1456 109.23 63.9658 116.664 63.949 117.331C63.9321 117.998 63.4602 118.917 62.6119 118.2C61.7636 117.482 57.1176 111.119 54.2244 113.502C51.3312 115.884 53.0165 125.275 53.1795 126.335C53.3424 127.394 53.1064 127.776 52.6177 127.977C52.1289 128.179 50.7525 125.892 49.3593 124.137C47.966 122.382 46.0335 120.588 44.4829 122.102C42.9324 123.616 41.7807 130.433 47.1852 142.257L50.0503 147.572L56.112 147.852C69.1343 147.667 74.8196 143.715 75.5275 141.685C76.2353 139.656 73.7859 138.669 71.5949 138.159C69.404 137.648 66.7579 137.407 66.7242 136.864C66.6905 136.32 66.9545 135.933 67.9602 135.636C68.9658 135.339 78.2184 132.833 79.1342 129.205C80.0499 125.578 72.3028 124.109 71.2691 123.655C70.2354 123.201 70.8927 122.371 71.4826 122.074C72.0725 121.777 78.7353 118.435 81.8251 117.028C84.915 115.621 86.5273 113.855 85.9655 111.797C85.4037 109.74 81.9038 110.071 80.3476 109.65C78.7915 109.23 79.6791 107.408 79.6791 107.408C79.6791 107.408 82.8701 103.651 87.6677 95.9368C92.4654 88.2224 88.6902 86.4564 88.6902 86.4564" fill="#EBEBEB"/>
<path d="M48.9771 148.57C52.5219 142.919 58.9881 132.973 64.4993 124.412C70.0105 115.851 74.9879 108.092 78.544 102.457L82.7687 95.7798L83.8923 93.9634L84.1956 93.4924C84.2631 93.3859 84.3024 93.3354 84.3024 93.3354L84.2125 93.5036C84.1395 93.6158 84.044 93.7784 83.926 93.9802L82.8024 95.8135C81.8305 97.4057 80.4036 99.6987 78.6283 102.541C75.0834 108.198 70.1228 115.963 64.6117 124.529C59.1005 133.096 52.6175 143.031 49.0445 148.637" fill="#E0E0E0"/>
<path d="M68.6679 104.554C68.7178 104.692 68.7536 104.835 68.7746 104.98C68.8364 105.255 68.9095 105.653 68.9993 106.146C69.1735 107.133 69.3757 108.501 69.5611 110.02C69.7465 111.539 69.9263 112.868 70.0555 113.9C70.1173 114.365 70.1735 114.758 70.2128 115.077C70.2417 115.219 70.2568 115.364 70.2577 115.509C70.1983 115.375 70.1585 115.233 70.1398 115.088C70.0836 114.814 70.0106 114.416 69.9263 113.922C69.7634 112.93 69.5724 111.556 69.3645 110.043C69.1566 108.529 68.9769 107.2 68.842 106.163L68.6735 104.991C68.6526 104.846 68.6507 104.699 68.6679 104.554Z" fill="#E0E0E0"/>
<path d="M70.814 115.671C70.814 115.621 73.6229 115.077 77.0948 114.449C80.5666 113.821 83.3981 113.362 83.4037 113.412C83.4093 113.462 80.5947 114.012 77.1285 114.634C73.6622 115.257 70.8252 115.722 70.814 115.671Z" fill="#E0E0E0"/>
<path d="M61.7578 128.443C61.9072 128.427 62.0579 128.427 62.2072 128.443L63.4095 128.572C64.4319 128.678 65.8364 128.818 67.3982 128.919C68.96 129.02 70.3701 129.065 71.3925 129.087H72.606C72.7548 129.077 72.9042 129.089 73.0498 129.121C72.9033 129.147 72.7548 129.16 72.606 129.16C72.3195 129.16 71.9037 129.16 71.3925 129.16C70.3644 129.16 68.9487 129.16 67.3813 129.048C65.8139 128.936 64.4095 128.79 63.3926 128.65C62.887 128.577 62.4769 128.516 62.196 128.46C62.0497 128.467 61.9031 128.461 61.7578 128.443Z" fill="#E0E0E0"/>
<path d="M57.6006 118.811C57.6777 118.926 57.7435 119.048 57.7972 119.175L58.286 120.184C58.6848 121.037 59.2298 122.225 59.8197 123.548C60.4095 124.871 60.9432 126.066 61.3028 126.912L61.7297 127.944C61.7916 128.068 61.8369 128.2 61.8646 128.336C61.7823 128.224 61.7143 128.101 61.6623 127.972L61.1792 126.963C60.7803 126.11 60.2354 124.922 59.6455 123.599C59.0556 122.276 58.5219 121.087 58.1624 120.235C57.9938 119.831 57.8478 119.484 57.7354 119.203C57.6736 119.079 57.6282 118.947 57.6006 118.811Z" fill="#E0E0E0"/>
<path d="M48.168 129.076C48.2666 129.221 48.3513 129.375 48.4208 129.536L49.05 130.831C49.5668 131.924 50.2747 133.438 51.05 135.12C51.8252 136.802 52.505 138.327 52.9994 139.437C53.2297 139.964 53.4207 140.407 53.5612 140.754C53.6409 140.912 53.7048 141.077 53.7522 141.248C53.6534 141.101 53.5687 140.945 53.4994 140.782L52.8702 139.493C52.3533 138.372 51.6455 136.88 50.8702 135.198C50.0949 133.517 49.4095 131.992 48.9208 130.882L48.359 129.57C48.2814 129.411 48.2175 129.246 48.168 129.076Z" fill="#E0E0E0"/>
<path d="M53.7017 140.917C53.8886 140.903 54.0765 140.903 54.2634 140.917L55.7971 141.024C57.0949 141.113 58.887 141.225 60.8532 141.298C62.8195 141.371 64.6285 141.394 65.9093 141.399H67.4486C67.6356 141.383 67.8235 141.383 68.0104 141.399C67.8246 141.429 67.6369 141.446 67.4486 141.45C67.0891 141.45 66.561 141.489 65.9093 141.5C64.6116 141.5 62.8139 141.5 60.8532 141.455C58.8926 141.41 57.078 141.242 55.7971 141.125L54.2691 140.956C54.0792 140.958 53.8894 140.945 53.7017 140.917Z" fill="#E0E0E0"/>
<path d="M39.2749 107.89C39.3028 108.814 39.2501 109.739 39.1176 110.654C38.7751 113.268 37.9178 115.789 36.5952 118.071L36.539 117.97H36.657L36.6008 118.071L20.8707 145.918L20.7752 146.092L20.6628 145.924L4.03384 119.444L3.21363 118.138L3.08442 117.936H3.32599L3.21363 118.138C1.95376 115.98 1.1043 113.608 0.708049 111.141C0.506744 109.939 0.422085 108.721 0.455245 107.503L0.556367 105.703C0.646254 105.109 0.736138 104.52 0.820407 103.932C1.71291 99.416 4.10599 95.333 7.61245 92.3431C9.24986 90.9892 11.0957 89.9082 13.0787 89.1419L13.8034 88.8728L14.1629 88.7382L14.5337 88.6373L16 88.2561C16.9681 88.0704 17.948 87.9524 18.9325 87.9029C19.8819 87.8521 20.8338 87.869 21.7808 87.9533C22.2471 87.9926 22.7021 88.0935 23.1572 88.1551L23.8313 88.2673C24.0504 88.3121 24.2695 88.3794 24.4886 88.4355L25.7751 88.7831L26.9942 89.2484C27.1964 89.3269 27.3987 89.3942 27.5953 89.4783L28.1571 89.7642L29.2807 90.3248C31.8466 91.8114 34.0525 93.8443 35.7413 96.2788C36.9984 98.1167 37.9471 100.147 38.5502 102.289C38.7688 103.069 38.9339 103.863 39.0446 104.666C39.1499 105.249 39.2137 105.84 39.2356 106.432C39.2356 106.903 39.2356 107.267 39.2749 107.525C39.3142 107.783 39.2749 107.895 39.2749 107.895C39.2749 107.895 39.2749 107.766 39.2749 107.525C39.2749 107.284 39.2412 106.909 39.2131 106.438C39.1795 105.847 39.1082 105.259 38.9996 104.677C38.8781 103.88 38.7055 103.092 38.4828 102.317C37.8719 100.195 36.9235 98.1847 35.6738 96.3629C33.9785 93.9535 31.7728 91.9457 29.2133 90.4818L28.0897 89.9212L27.5279 89.6464C27.3369 89.5567 27.1346 89.4951 26.9324 89.4166L25.7245 88.9569L24.4493 88.6205C24.2358 88.5644 24.0223 88.4971 23.8032 88.4523L23.1347 88.3458C22.6853 88.2841 22.2358 88.1888 21.7752 88.1495C20.841 88.0696 19.9023 88.0565 18.9662 88.1103C17.9928 88.1598 17.0241 88.2779 16.0674 88.4635L14.618 88.8447L14.2528 88.9456L13.8989 89.0746L13.1854 89.3437C11.2187 90.098 9.38784 91.1659 7.76413 92.5057C4.29862 95.4678 1.93862 99.5123 1.0676 103.982C0.983327 104.543 0.893439 105.143 0.809171 105.726C0.724902 106.309 0.741757 106.909 0.713668 107.508C0.681631 108.711 0.764399 109.915 0.960854 111.102C1.35437 113.534 2.19223 115.874 3.43273 118.004L3.55071 118.205H3.32037L3.43273 118.004C3.69115 118.419 3.99452 118.861 4.24733 119.31L20.8651 145.806H20.6572C27.2751 134.189 32.7975 124.501 36.4828 118.009L36.5446 118.11H36.421L36.4772 118.009C37.8021 115.744 38.6758 113.244 39.0502 110.648C39.1794 109.757 39.2131 109.061 39.2468 108.602C39.2468 108.372 39.2468 108.198 39.2468 108.075C39.2468 107.951 39.2749 107.89 39.2749 107.89Z" fill="#E0E0E0"/>
<path d="M32.219 107.643C32.2133 107.578 32.2133 107.512 32.219 107.447C32.219 107.301 32.219 107.11 32.1741 106.886C32.1741 106.757 32.1741 106.617 32.1741 106.46C32.1741 106.303 32.1235 106.129 32.0954 105.944C32.0379 105.518 31.9515 105.097 31.837 104.683C31.5488 103.539 31.0905 102.445 30.4775 101.437C29.0303 99.0079 26.7804 97.1582 24.1147 96.2056C21.449 95.253 18.534 95.2571 15.8709 96.2171C15.3259 96.4106 14.7947 96.641 14.2811 96.9067C13.762 97.1905 13.2628 97.5089 12.7867 97.8598C12.3016 98.2207 11.84 98.6121 11.4047 99.0315C10.9747 99.4714 10.575 99.9396 10.2081 100.433C9.44985 101.454 8.86003 102.59 8.46091 103.797C7.62584 106.284 7.62584 108.974 8.46091 111.461C8.84878 112.669 9.43336 113.806 10.1912 114.825C10.5542 115.322 10.9502 115.794 11.3766 116.238C11.8112 116.657 12.2708 117.051 12.753 117.415C13.229 117.768 13.7282 118.088 14.2473 118.374C14.7266 118.626 15.2221 118.847 15.7305 119.035C18.3918 120.006 21.3084 120.023 23.9811 119.084C26.6538 118.145 28.9165 116.309 30.382 113.888C31.005 112.885 31.4692 111.792 31.7583 110.648C31.8772 110.235 31.9654 109.813 32.0224 109.387C32.0224 109.202 32.0842 109.033 32.1066 108.876V108.445C32.1066 108.204 32.1404 108.007 32.1516 107.884C32.1455 107.817 32.1455 107.749 32.1516 107.682C32.1591 107.749 32.1591 107.817 32.1516 107.884C32.1516 108.03 32.1516 108.22 32.1516 108.445V108.876C32.1516 109.033 32.1066 109.207 32.0842 109.392C32.0326 109.823 31.9519 110.25 31.8426 110.67C31.5646 111.83 31.1099 112.94 30.4943 113.961C29.0244 116.436 26.7342 118.32 24.0197 119.287C21.3053 120.254 18.3374 120.245 15.6293 119.259C14.5014 118.865 13.4419 118.297 12.4889 117.577C11.992 117.21 11.5208 116.809 11.0788 116.378C10.6532 115.923 10.259 115.44 9.89909 114.931C9.12682 113.894 8.52736 112.739 8.12383 111.511C7.72002 110.242 7.50796 108.919 7.49463 107.587C7.51269 106.253 7.73239 104.93 8.14631 103.662C8.55385 102.438 9.15713 101.286 9.9328 100.254C10.3091 99.749 10.7182 99.2696 11.1575 98.8185C11.6042 98.3933 12.077 97.9963 12.5732 97.6299C13.0606 97.2734 13.5711 96.9494 14.1013 96.66C14.6283 96.3989 15.1726 96.1741 15.7305 95.9872C18.4431 95.0157 21.4106 95.0208 24.1198 96.0015C26.8291 96.9823 29.1097 98.877 30.5673 101.358C31.175 102.386 31.6238 103.499 31.8988 104.66C32.0075 105.078 32.0845 105.504 32.1291 105.933C32.1291 106.124 32.1853 106.292 32.1965 106.454C32.2078 106.617 32.1965 106.752 32.1965 106.88C32.1965 107.127 32.1965 107.323 32.1965 107.469C32.2088 107.526 32.2164 107.584 32.219 107.643Z" fill="#E0E0E0"/>
<path d="M19.6799 113.378L12.5283 108.405L14.2699 105.916L19.0619 109.252L25.2641 101.386L27.6517 103.264L19.6799 113.378Z" fill="#E0E0E0"/>
<path fill-rule="evenodd" clip-rule="evenodd" d="M219.705 21.2314C221.795 21.4918 223.841 22.0291 225.789 22.8293L230.255 19.0954L237.929 24.9261L235.514 30.2185C236.805 31.8784 237.87 33.7013 238.682 35.6399L244.485 36.1501L245.783 45.681L240.323 47.7161C240.066 49.8143 239.525 51.8682 238.716 53.8215L242.463 58.3066L236.62 65.9706L231.317 63.5542C229.655 64.8446 227.828 65.908 225.885 66.7162L225.373 72.5077L215.823 73.8027L213.784 68.3533C211.69 68.0814 209.641 67.5308 207.694 66.7162L203.199 70.4501L195.525 64.6194L197.947 59.327C196.653 57.6693 195.587 55.8459 194.778 53.9056L188.975 53.3954L187.677 43.8645L193.132 41.8238C193.396 39.7395 193.936 37.6996 194.739 35.7576L191.009 31.2781L196.846 23.6142L202.155 26.0305C203.817 24.741 205.644 23.6777 207.587 22.8685L208.098 17.0771L217.649 15.782L219.688 21.2314H219.705ZM216.851 34.3841C214.715 34.4528 212.653 35.1797 210.948 36.465C209.243 37.7502 207.978 39.5307 207.328 41.562C206.677 43.5933 206.673 45.7758 207.315 47.8097C207.957 49.8436 209.215 51.6292 210.915 52.9213C212.615 54.2133 214.674 54.9486 216.809 55.0259C218.945 55.1033 221.052 54.519 222.841 53.3533C224.631 52.1876 226.014 50.4977 226.803 48.5156C227.591 46.5336 227.745 44.3565 227.244 42.2835C226.685 39.9755 225.346 37.9301 223.454 36.4915C221.561 35.0528 219.229 34.3086 216.851 34.3841Z" fill="#F5F5F5"/>
<path fill-rule="evenodd" clip-rule="evenodd" d="M132.667 51.7247C134.018 51.8966 135.341 52.2473 136.6 52.7675L139.498 50.3399L144.481 54.1242L142.914 57.561C143.753 58.6385 144.444 59.8224 144.97 61.0818L148.74 61.4126L149.577 67.5796L146.038 68.9027C145.864 70.2511 145.513 71.5707 144.993 72.8272L147.425 75.7201L143.644 80.7323L140.201 79.1681C139.122 80.0045 137.935 80.6927 136.673 81.2144L136.341 84.9763L130.161 85.8173L128.836 82.2796C127.484 82.111 126.162 81.7621 124.903 81.2424L122.004 83.67L117.021 79.8857L118.594 76.449C117.754 75.3728 117.062 74.1886 116.538 72.9281L112.768 72.5974L111.926 66.4023L115.471 65.0848C115.641 63.7363 115.99 62.4165 116.51 61.1603L114.044 58.2506L117.836 53.2777L121.28 54.8419C122.358 54.0058 123.542 53.3158 124.802 52.7899L125.133 49.028L131.341 48.2151L132.667 51.7471V51.7247ZM130.802 60.2633C129.409 60.3029 128.062 60.7726 126.947 61.6078C125.832 62.4429 125.004 63.6023 124.577 64.9265C124.15 66.2506 124.144 67.6744 124.562 69.0017C124.979 70.329 125.798 71.4946 126.906 72.3381C128.015 73.1816 129.358 73.6614 130.751 73.7115C132.144 73.7617 133.519 73.3796 134.685 72.618C135.851 71.8564 136.753 70.7527 137.265 69.4588C137.776 68.165 137.874 66.7445 137.543 65.3931C137.178 63.8973 136.309 62.5719 135.082 61.6383C133.855 60.7047 132.344 60.2194 130.802 60.2633Z" fill="#EBEBEB"/>
<path d="M184.728 96.9908C185.554 97.357 186.313 97.8571 186.975 98.4709C188.833 100.131 190.06 102.381 190.447 104.84C190.722 106.539 190.591 108.28 190.065 109.919C189.453 111.809 188.345 113.501 186.857 114.819C186.06 115.537 185.156 116.127 184.177 116.568C183.165 117.05 182.082 117.366 180.969 117.505C178.616 117.828 176.221 117.388 174.137 116.248C172.054 115.108 170.394 113.329 169.402 111.175C168.918 110.165 168.601 109.084 168.464 107.974C168.314 106.911 168.327 105.831 168.503 104.772C168.819 102.813 169.653 100.972 170.919 99.4408C172.022 98.1166 173.424 97.0715 175.009 96.3909C177.299 95.3903 179.866 95.212 182.273 95.8863C183.147 96.1231 183.977 96.5019 184.728 97.0076C184.694 97.0749 183.868 96.5647 182.211 96.1498C179.861 95.5831 177.389 95.818 175.189 96.817C173.692 97.496 172.376 98.5156 171.346 99.794C170.158 101.262 169.383 103.019 169.099 104.885C168.788 106.946 169.095 109.052 169.981 110.94C170.926 112.965 172.494 114.637 174.458 115.711C176.421 116.785 178.677 117.205 180.896 116.91C181.95 116.784 182.976 116.488 183.936 116.036C184.867 115.625 185.728 115.071 186.486 114.393C187.822 113.233 188.845 111.758 189.464 110.102C190.082 108.446 190.275 106.662 190.025 104.913C189.677 102.534 188.544 100.338 186.806 98.6727C185.565 97.4729 184.683 97.0525 184.728 96.9908Z" fill="#EBEBEB"/>
<path d="M196.312 88.256C196.333 88.1312 196.361 88.0076 196.396 87.886C196.47 87.6113 196.565 87.2413 196.689 86.7647L197.902 82.3637L197.947 82.4758L189.048 77.6711L189.239 77.6375L185.211 82.2235L185.138 82.3076L185.031 82.2796C182.901 81.7651 180.712 81.5333 178.52 81.59H178.397L178.335 81.4835C177.408 79.8016 176.402 78.0243 175.352 76.1518L175.61 76.2583L165.903 79.1064L166.077 78.8541C166.2 80.7434 166.33 82.8178 166.464 84.9482V85.1052L166.33 85.1837C164.47 86.3137 162.769 87.6863 161.273 89.2652L161.161 89.3829L161.004 89.3381L155.122 87.6561L155.442 87.5272L150.56 96.4302L150.498 96.0714L155.077 100.114L155.212 100.231L155.172 100.405C154.66 102.511 154.431 104.675 154.493 106.841V107.021L154.33 107.11L148.981 110.076L149.128 109.723L151.959 119.416L151.644 119.198L157.745 118.822H157.936L158.032 118.985C159.16 120.839 160.529 122.536 162.105 124.031C162.144 124.171 162.026 123.722 162.195 124.344V124.378V124.423V124.518L162.139 124.703L162.032 125.068L161.824 125.808L161.397 127.277C161.116 128.258 160.835 129.233 160.56 130.203L160.408 129.844L169.279 134.705L168.903 134.767L172.953 130.203L173.032 130.069L173.211 130.113C175.33 130.636 177.508 130.875 179.689 130.825H179.874L179.959 130.982C180.966 132.788 181.955 134.569 182.925 136.325L182.582 136.185L192.295 133.382L192.093 133.674C191.97 131.61 191.846 129.575 191.728 127.585V127.411L191.874 127.327C193.746 126.205 195.46 124.838 196.97 123.262L197.082 123.145L197.239 123.19L203.11 124.871L202.812 124.995L207.7 116.154L207.75 116.445L203.183 112.392L203.082 112.302L203.11 112.173C203.643 110.053 203.889 107.871 203.84 105.686V105.563L203.947 105.501L209.301 102.558L209.217 102.771C208.138 99.0091 207.217 95.8079 206.408 93.0663L206.554 93.1616L200.447 93.498H200.385L200.351 93.4476C199.508 92.0255 198.526 90.6902 197.419 89.4614L196.587 88.5644C196.489 88.47 196.397 88.3688 196.312 88.2616C196.421 88.3419 196.525 88.43 196.621 88.5251C196.823 88.7101 197.121 88.9905 197.498 89.3885C198.642 90.5993 199.657 91.9259 200.526 93.3466L200.436 93.2962L206.537 92.8869H206.644L206.677 92.9991C207.492 95.735 208.441 98.9306 209.554 102.681L209.593 102.821L209.464 102.889L204.127 105.871L204.233 105.686C204.295 107.909 204.059 110.13 203.531 112.291L203.458 112.066L208.048 116.103L208.194 116.226L208.099 116.395L203.25 125.258L203.149 125.438L202.953 125.382L197.071 123.7L197.34 123.627C195.803 125.243 194.055 126.646 192.144 127.798L192.279 127.546C192.402 129.538 192.53 131.567 192.661 133.634V133.864L192.441 133.926L182.734 136.763L182.503 136.83L182.391 136.623L179.419 131.285L179.689 131.442C177.453 131.498 175.22 131.257 173.049 130.725L173.352 130.629L169.301 135.198L169.138 135.383L168.925 135.266L160.049 130.411L159.83 130.293L159.903 130.052C160.18 129.084 160.459 128.11 160.74 127.131L161.161 125.656L161.375 124.922L161.481 124.552L161.532 124.367L161.56 124.277V124.227V124.193C161.728 124.815 161.605 124.367 161.644 124.501C160.027 122.962 158.623 121.214 157.47 119.304L157.757 119.456L151.65 119.826H151.403L151.335 119.59L148.526 109.897L148.459 109.661L148.672 109.544L154.021 106.589L153.869 106.858C153.813 104.629 154.057 102.402 154.594 100.237L154.689 100.528C153.099 99.1212 151.538 97.7252 150.111 96.4806L149.942 96.3236L150.049 96.1218L154.931 87.2749L155.038 87.0787L155.251 87.1403L161.122 88.8223L160.852 88.8952C162.398 87.2884 164.149 85.8916 166.06 84.7408L165.936 84.9763C165.813 82.8515 165.689 80.7715 165.577 78.8877V78.6915L165.768 78.6354L175.487 75.8322L175.655 75.7818L175.739 75.9387C176.779 77.8113 177.773 79.6166 178.694 81.2817L178.509 81.1807C180.735 81.1308 182.957 81.3798 185.116 81.9208L184.936 81.9769L189.003 77.4245L189.088 77.3291L189.2 77.3908L198.043 82.2964L198.116 82.3357V82.4142C197.554 84.2923 197.116 85.7444 196.812 86.7479L196.47 87.8692C196.429 88.0027 196.376 88.1322 196.312 88.256Z" fill="#EBEBEB"/>
<path d="M220.098 98.3924L211.284 63.4084L247.154 62.8141L220.098 98.3924Z" fill="#EBEBEB"/>
<path d="M236.326 69.5993L224.006 85.8029L289.669 135.524L301.989 119.32L236.326 69.5993Z" fill="#EBEBEB"/>
<path d="M89.325 27.3985C83.6284 28.2787 79.4543 23.474 78.1229 19.2524C76.8926 15.3279 76.3083 11.2408 74.5836 7.47895C72.1679 2.26499 65.7748 -0.145768 60.0389 0.336383C54.303 0.818534 48.5166 3.70023 43.438 6.39691L44.8425 37.7928C44.8425 37.7928 55.8929 26.0193 61.2074 25.8287C70.0724 25.4755 69.5893 40.0129 78.1959 42.1602C78.1959 42.1602 90.2632 45.4231 98.4204 34.9111C103.594 28.2339 104.038 20.127 104.038 20.127C104.038 20.127 100.072 25.7446 89.325 27.3985Z" fill="#65BDC0"/>
<path d="M43.1906 1.21658C43.2693 1.21658 44.8198 34.5635 46.6512 75.6977C48.4827 116.832 49.9096 150.19 49.831 150.196C49.7523 150.201 48.2074 116.854 46.3703 75.7089C44.5333 34.5635 43.112 1.22219 43.1906 1.21658Z" fill="#263238"/>
<g opacity="0.2">
<path opacity="0.2" d="M73.5947 17.0771C74.5599 20.3944 75.9696 23.5664 77.7857 26.5071C79.4261 29.0692 81.9148 31.2277 84.8979 31.85C85.444 31.9233 85.9796 32.0607 86.4934 32.2592C86.7497 32.3633 86.973 32.5343 87.1401 32.7543C87.3072 32.9743 87.4118 33.2352 87.4429 33.5095C87.4429 34.3336 86.617 34.8718 85.8755 35.2362C84.8454 35.8003 83.7437 36.2227 82.6002 36.4921C81.4766 36.7051 80.5441 36.8285 79.752 35.9314C78.9857 35.1818 78.2969 34.3573 77.6958 33.4702C75.0947 29.0468 73.8082 22.7227 73.5947 17.7218" fill="black"/>
</g>
<path d="M81.3192 37.2434C81.3192 37.2434 81.2293 37.2041 81.0664 37.0976C80.8306 36.9441 80.6036 36.7775 80.3866 36.5986C79.5865 35.938 78.8797 35.1723 78.2855 34.3224C77.4055 33.0609 76.6971 31.6884 76.1788 30.2409C75.5486 28.4752 75.0289 26.672 74.6226 24.842C73.851 21.5255 73.3642 18.1495 73.1676 14.7504C73.0946 13.4498 73.0833 12.3958 73.0833 11.6669C73.0833 11.3249 73.0833 11.0502 73.0833 10.826C73.0738 10.729 73.0738 10.6314 73.0833 10.5344C73.1087 10.6295 73.12 10.7277 73.117 10.826C73.117 11.0502 73.117 11.3249 73.1507 11.6613C73.1845 12.3901 73.2238 13.4441 73.3249 14.7392C73.5801 18.118 74.0909 21.4728 74.853 24.7747C75.2653 26.5953 75.783 28.3905 76.4035 30.1512C76.9127 31.5806 77.5997 32.9405 78.4484 34.1991C79.0194 35.0466 79.693 35.8205 80.454 36.5033C80.999 37.0023 81.336 37.2265 81.3192 37.2434Z" fill="#263238"/>
<path d="M8.84277 156.822L84.1057 169.117V156.822H8.84277Z" fill="#E0E0E0"/>
<path d="M96.5269 184.602L171.795 196.897V184.602H96.5269Z" fill="#E0E0E0"/>
<path d="M183.61 211.171L258.878 223.466V211.171H183.61Z" fill="#E0E0E0"/>
<path d="M270.581 232.318L345.844 244.613V232.318H270.581Z" fill="#E0E0E0"/>
<path d="M84.1057 147.617H8.84277V156.828H84.1057V147.617Z" fill="#65BDC0"/>
<g opacity="0.3">
<path opacity="0.3" d="M84.1056 147.617H60.6172V156.828H84.1056V147.617Z" fill="black"/>
</g>
<path d="M171.79 175.391H96.5269V184.602H171.79V175.391Z" fill="#65BDC0"/>
<g opacity="0.3">
<path opacity="0.3" d="M171.796 175.391H148.307V184.602H171.796V175.391Z" fill="black"/>
</g>
<path d="M258.879 201.96H183.616V211.171H258.879V201.96Z" fill="#65BDC0"/>
<g opacity="0.3">
<path opacity="0.3" d="M258.879 201.96H235.39V211.171H258.879V201.96Z" fill="black"/>
</g>
<path d="M345.962 223.107H270.699V232.318H345.962V223.107Z" fill="#65BDC0"/>
<g opacity="0.3">
<path opacity="0.3" d="M345.962 223.107H322.473V232.318H345.962V223.107Z" fill="black"/>
</g>
<path d="M299.58 189.586C299.581 189.99 299.702 190.384 299.927 190.719C300.153 191.053 300.473 191.314 300.846 191.468C301.22 191.621 301.631 191.661 302.027 191.582C302.424 191.502 302.788 191.307 303.073 191.022C303.358 190.736 303.553 190.372 303.631 189.977C303.71 189.581 303.669 189.171 303.514 188.798C303.359 188.426 303.097 188.108 302.761 187.884C302.424 187.66 302.029 187.54 301.625 187.54C301.356 187.54 301.09 187.593 300.841 187.696C300.593 187.799 300.367 187.95 300.177 188.14C299.987 188.33 299.837 188.555 299.734 188.804C299.632 189.052 299.579 189.318 299.58 189.586Z" fill="#EBEBEB"/>
</svg>
