<svg width="339" height="245" viewBox="0 0 339 245" fill="none" xmlns="http://www.w3.org/2000/svg">
<g clip-path="url(#clip0_1297_276)">
<path d="M169.5 244.845C262.949 244.845 338.705 201.108 338.705 147.155C338.705 93.203 262.949 49.466 169.5 49.466C76.0502 49.466 0.294434 93.203 0.294434 147.155C0.294434 201.108 76.0502 244.845 169.5 244.845Z" fill="#F5F5F5"/>
<path d="M143.75 201.599L194.155 230.702C194.534 230.894 194.952 230.994 195.377 230.994C195.801 230.994 196.22 230.894 196.598 230.702L264.626 191.425C265.332 191.036 265.332 190.408 264.626 190.013L214.221 160.916C213.842 160.721 213.422 160.619 212.996 160.619C212.57 160.619 212.15 160.721 211.771 160.916L143.75 200.187C143.601 200.235 143.47 200.329 143.377 200.456C143.285 200.583 143.235 200.736 143.235 200.893C143.235 201.05 143.285 201.203 143.377 201.33C143.47 201.457 143.601 201.551 143.75 201.599Z" fill="#E0E0E0"/>
<path d="M216.805 138.294L255.229 160.464C255.607 160.656 256.026 160.756 256.45 160.756C256.875 160.756 257.293 160.656 257.672 160.464L311.628 129.398C312.334 129.01 312.334 128.381 311.628 127.986L273.212 105.823C272.833 105.628 272.413 105.526 271.987 105.526C271.561 105.526 271.141 105.628 270.762 105.823L216.805 136.882C216.659 136.934 216.533 137.029 216.443 137.156C216.353 137.282 216.305 137.433 216.305 137.588C216.305 137.743 216.353 137.895 216.443 138.021C216.533 138.147 216.659 138.243 216.805 138.294Z" fill="#E0E0E0"/>
<path opacity="0.1" d="M312.539 146.506L309.227 144.592C308.921 144.414 308.573 144.32 308.218 144.32C307.863 144.32 307.515 144.414 307.208 144.592L269.258 166.833L264.76 172.128L274.13 169.643L312.539 147.466C312.622 147.417 312.691 147.346 312.739 147.262C312.787 147.178 312.813 147.083 312.813 146.986C312.813 146.889 312.787 146.794 312.739 146.71C312.691 146.625 312.622 146.555 312.539 146.506Z" fill="#455A64"/>
<path d="M182.639 127.478L151.686 109.607C151.513 109.547 151.364 109.434 151.258 109.285C151.152 109.136 151.095 108.957 151.095 108.774C151.095 108.591 151.152 108.413 151.258 108.264C151.364 108.114 151.513 108.002 151.686 107.941L233.751 60.551C234.197 60.3246 234.69 60.2066 235.191 60.2066C235.691 60.2066 236.185 60.3246 236.631 60.551L267.641 78.4212C267.814 78.4816 267.964 78.5942 268.069 78.7435C268.175 78.8928 268.232 79.0713 268.232 79.2543C268.232 79.4374 268.175 79.6159 268.069 79.7652C267.964 79.9144 267.814 80.0271 267.641 80.0875L185.52 127.478C185.074 127.704 184.58 127.822 184.08 127.822C183.579 127.822 183.086 127.704 182.639 127.478Z" fill="#E0E0E0"/>
<path d="M66.5714 198.04L157.652 145.524C161.027 143.576 161.027 140.412 157.652 138.464L126.861 120.685C123.486 118.737 118.007 118.737 114.632 120.685L23.5517 173.202C20.1768 175.157 20.1768 178.313 23.5517 180.262L54.3426 198.04C57.7176 199.989 63.1965 199.989 66.5714 198.04Z" fill="#E0E0E0"/>
<path d="M156.713 110.201C156.486 110.051 156.311 109.835 156.21 109.583C156.109 109.33 156.087 109.053 156.148 108.788L169.718 48.7176C169.885 48.1381 170.253 47.6373 170.756 47.3055L251.529 0.70603C251.777 0.580657 252.052 0.51535 252.33 0.51535C252.608 0.51535 252.883 0.580657 253.131 0.70603C253.358 0.856323 253.534 1.07159 253.636 1.32359C253.738 1.57559 253.761 1.85254 253.703 2.11813L240.105 62.1325C239.944 62.7145 239.574 63.217 239.067 63.5446L158.316 110.144C158.072 110.278 157.799 110.353 157.521 110.363C157.243 110.373 156.966 110.317 156.713 110.201Z" fill="#65BDC0"/>
<path opacity="0.8" d="M156.713 110.201C156.486 110.051 156.311 109.835 156.21 109.583C156.109 109.33 156.087 109.053 156.148 108.788L169.718 48.7176C169.885 48.1381 170.253 47.6373 170.756 47.3055L251.529 0.70603C251.777 0.580657 252.052 0.51535 252.33 0.51535C252.608 0.51535 252.883 0.580657 253.131 0.70603C253.358 0.856323 253.534 1.07159 253.636 1.32359C253.738 1.57559 253.761 1.85254 253.703 2.11813L240.105 62.1325C239.944 62.7145 239.574 63.217 239.067 63.5446L158.316 110.144C158.072 110.278 157.799 110.353 157.521 110.363C157.243 110.373 156.966 110.317 156.713 110.201Z" fill="white"/>
<path d="M171.272 49.6284L157.702 109.713C157.581 110.229 157.864 110.419 158.316 110.172L239.088 63.5447C239.595 63.217 239.965 62.7145 240.126 62.1326L253.703 2.04755C253.816 1.53213 253.541 1.34149 253.082 1.59567L172.324 48.2163C171.814 48.5443 171.44 49.0459 171.272 49.6284Z" fill="#65BDC0"/>
<path opacity="0.6" d="M171.272 49.6284L157.702 109.713C157.581 110.229 157.864 110.419 158.316 110.172L239.088 63.5447C239.595 63.217 239.965 62.7145 240.126 62.1326L253.703 2.04755C253.816 1.53213 253.541 1.34149 253.082 1.59567L172.324 48.2163C171.814 48.5443 171.44 49.0459 171.272 49.6284Z" fill="white"/>
<path opacity="0.05" d="M171.272 49.6284L157.702 109.713C157.581 110.229 157.864 110.419 158.316 110.172L239.088 63.5447C239.595 63.217 239.965 62.7145 240.126 62.1326L253.703 2.04755C253.816 1.53213 253.541 1.34149 253.082 1.59567L172.324 48.2163C171.814 48.5443 171.44 49.0459 171.272 49.6284Z" fill="black"/>
<path d="M254.692 1.55332C254.44 1.43167 254.162 1.37146 253.883 1.37759C253.603 1.38373 253.328 1.45604 253.082 1.58862L172.324 48.2163C172.088 48.3643 171.897 48.5743 171.773 48.8233C171.648 49.0724 171.594 49.3509 171.618 49.6284L182.208 124.053C182.26 124.337 182.367 124.608 182.523 124.85C182.679 125.093 182.882 125.302 183.119 125.465C183.369 125.591 183.645 125.656 183.924 125.656C184.204 125.656 184.479 125.591 184.729 125.465L265.522 78.8025C265.757 78.6533 265.947 78.4431 266.071 78.1944C266.196 77.9456 266.25 77.6677 266.229 77.3904L255.638 2.9513C255.58 2.66725 255.467 2.39741 255.305 2.15743C255.142 1.91745 254.934 1.71211 254.692 1.55332Z" fill="#65BDC0"/>
<path opacity="0.8" d="M254.692 1.55332C254.44 1.43167 254.162 1.37146 253.883 1.37759C253.603 1.38373 253.328 1.45604 253.082 1.58862L172.324 48.2163C172.088 48.3643 171.897 48.5743 171.773 48.8233C171.648 49.0724 171.594 49.3509 171.618 49.6284L182.208 124.053C182.26 124.337 182.367 124.608 182.523 124.85C182.679 125.093 182.882 125.302 183.119 125.465C183.369 125.591 183.645 125.656 183.924 125.656C184.204 125.656 184.479 125.591 184.729 125.465L265.522 78.8025C265.757 78.6533 265.947 78.4431 266.071 78.1944C266.196 77.9456 266.25 77.6677 266.229 77.3904L255.638 2.9513C255.58 2.66725 255.467 2.39741 255.305 2.15743C255.142 1.91745 254.934 1.71211 254.692 1.55332Z" fill="white"/>
<path d="M173.178 50.5392L183.769 124.964C183.772 125.075 183.805 125.183 183.865 125.277C183.925 125.37 184.01 125.445 184.109 125.494C184.209 125.543 184.32 125.563 184.431 125.553C184.541 125.543 184.647 125.503 184.736 125.437L265.523 78.8024C265.758 78.6533 265.947 78.4431 266.072 78.1943C266.196 77.9456 266.25 77.6676 266.229 77.3903L255.638 2.95128C255.637 2.83981 255.604 2.73101 255.544 2.63705C255.484 2.54309 255.399 2.46769 255.299 2.41931C255.198 2.37092 255.086 2.35147 254.975 2.36312C254.864 2.37478 254.759 2.41708 254.671 2.48529L173.906 49.0847C173.659 49.2339 173.461 49.4496 173.332 49.7069C173.203 49.9643 173.15 50.2528 173.178 50.5392Z" fill="#65BDC0"/>
<path opacity="0.95" d="M173.178 50.5392L183.769 124.964C183.772 125.075 183.805 125.183 183.865 125.277C183.925 125.37 184.01 125.445 184.109 125.494C184.209 125.543 184.32 125.563 184.431 125.553C184.541 125.543 184.647 125.503 184.736 125.437L265.523 78.8024C265.758 78.6533 265.947 78.4431 266.072 78.1943C266.196 77.9456 266.25 77.6676 266.229 77.3903L255.638 2.95128C255.637 2.83981 255.604 2.73101 255.544 2.63705C255.484 2.54309 255.399 2.46769 255.299 2.41931C255.198 2.37092 255.086 2.35147 254.975 2.36312C254.864 2.37478 254.759 2.41708 254.671 2.48529L173.906 49.0847C173.659 49.2339 173.461 49.4496 173.332 49.7069C173.203 49.9643 173.15 50.2528 173.178 50.5392Z" fill="white"/>
<path d="M179.06 101.792L169.577 107.263C169.384 107.222 169.184 107.222 168.991 107.263L157.8 109.417L178.445 97.4352L179.06 101.792Z" fill="#65BDC0"/>
<path opacity="0.5" d="M179.06 101.792L169.577 107.263C169.384 107.222 169.184 107.222 168.991 107.263L157.8 109.417L178.445 97.4352L179.06 101.792Z" fill="white"/>
<path opacity="0.2" d="M179.06 101.792L169.577 107.263C169.384 107.222 169.184 107.222 168.991 107.263L157.8 109.417L178.445 97.4352L179.06 101.792Z" fill="black"/>
<path d="M182.152 123.488L170.502 107.786C170.278 107.509 169.967 107.315 169.62 107.235L179.06 101.792L182.152 123.488Z" fill="#65BDC0"/>
<path opacity="0.6" d="M182.152 123.488L170.502 107.786C170.278 107.509 169.967 107.315 169.62 107.235L179.06 101.792L182.152 123.488Z" fill="white"/>
<path opacity="0.1" d="M182.152 123.488L170.502 107.786C170.278 107.509 169.967 107.315 169.62 107.235L179.06 101.792L182.152 123.488Z" fill="black"/>
<path d="M181.792 124.223L170.495 109.572C170.306 109.356 170.069 109.186 169.803 109.079C169.537 108.971 169.249 108.927 168.963 108.951L158.414 110.476C157.822 110.54 157.224 110.432 156.692 110.165C156.261 109.918 156.332 109.636 156.854 109.537L168.97 107.2C169.252 107.16 169.539 107.194 169.803 107.298C170.068 107.402 170.301 107.572 170.481 107.793L183.338 125.105C183.649 125.536 183.557 125.677 183.126 125.43C182.62 125.102 182.169 124.694 181.792 124.223Z" fill="#65BDC0"/>
<path opacity="0.8" d="M181.792 124.223L170.495 109.572C170.306 109.356 170.069 109.186 169.803 109.079C169.537 108.971 169.249 108.927 168.963 108.951L158.414 110.476C157.822 110.54 157.224 110.432 156.692 110.165C156.261 109.918 156.332 109.636 156.854 109.537L168.97 107.2C169.252 107.16 169.539 107.194 169.803 107.298C170.068 107.402 170.301 107.572 170.481 107.793L183.338 125.105C183.649 125.536 183.557 125.677 183.126 125.43C182.62 125.102 182.169 124.694 181.792 124.223Z" fill="white"/>
<path d="M253.725 1.74394C253.724 1.52854 253.67 1.3167 253.567 1.12708C253.465 0.937469 253.318 0.775896 253.139 0.656617C252.889 0.531172 252.613 0.465851 252.334 0.465851C252.054 0.465851 251.779 0.531172 251.529 0.656617L170.756 47.3055C170.254 47.6387 169.887 48.139 169.719 48.7176L167.805 57.1902L169.358 58.0869L251.783 10.499L253.703 2.02636C253.713 1.92775 253.713 1.82842 253.703 1.72982L253.725 1.74394Z" fill="#65BDC0"/>
<path opacity="0.6" d="M253.703 2.04047C253.816 1.52505 253.541 1.33441 253.082 1.58859L172.324 48.2163C171.816 48.5455 171.445 49.047 171.279 49.6284L169.365 58.101L251.79 10.5131L253.703 2.04047Z" fill="black"/>
<path opacity="0.5" d="M171.681 48.8094C171.492 49.0514 171.355 49.3304 171.279 49.6284L169.358 58.101L167.805 57.1902L169.719 48.7176C169.798 48.4198 169.938 48.1412 170.128 47.8986L171.681 48.8094Z" fill="black"/>
<path opacity="0.2" d="M253.725 1.74396C253.689 1.45448 253.435 1.37682 253.082 1.58863L172.324 48.2163C172.074 48.3692 171.858 48.5709 171.689 48.8094L170.135 47.9127C170.304 47.6762 170.518 47.4748 170.764 47.3196L251.529 0.706066C251.779 0.580621 252.054 0.515289 252.334 0.515289C252.613 0.515289 252.889 0.580621 253.139 0.706066C253.311 0.820587 253.454 0.974324 253.556 1.15471C253.658 1.33509 253.716 1.537 253.725 1.74396Z" fill="black"/>
<path d="M255.702 3.6644L255.603 2.95835V2.85244C255.47 2.33889 255.157 1.8903 254.72 1.58861C254.468 1.46696 254.191 1.40673 253.911 1.41287C253.631 1.41901 253.357 1.49133 253.11 1.62391L172.324 48.2163C172.078 48.3661 171.883 48.5879 171.766 48.8517C171.644 49.0961 171.595 49.3708 171.625 49.6425L173.15 60.3039L174.703 61.2076L257.135 13.6197L255.702 3.6644Z" fill="#65BDC0"/>
<path opacity="0.4" d="M257.128 13.6197L174.696 61.2076L173.178 50.5392C173.145 50.2682 173.192 49.9935 173.312 49.7484C173.435 49.4885 173.628 49.2683 173.87 49.113L254.642 2.51355C254.718 2.45433 254.807 2.4147 254.902 2.39814C254.997 2.38159 255.094 2.38863 255.186 2.41863C255.277 2.44864 255.36 2.50069 255.426 2.5702C255.493 2.6397 255.541 2.72452 255.567 2.81716V2.82421V2.93012L255.666 3.63617L257.128 13.6197Z" fill="black"/>
<path opacity="0.5" d="M174.696 61.2077L173.143 60.3039L171.618 49.6425C171.587 49.3708 171.636 49.0961 171.759 48.8517L173.319 49.7484C173.197 49.9928 173.148 50.2675 173.178 50.5392L174.696 61.2077Z" fill="black"/>
<path opacity="0.3" d="M255.574 2.82421C255.552 2.72801 255.506 2.63889 255.441 2.56513C255.375 2.49136 255.292 2.43534 255.199 2.40224C255.106 2.36915 255.007 2.36005 254.909 2.3758C254.812 2.39156 254.72 2.43165 254.642 2.49236L173.87 49.0918C173.626 49.2428 173.434 49.4644 173.319 49.7272L171.759 48.8305C171.875 48.5667 172.07 48.345 172.317 48.1951L253.082 1.59567C253.328 1.46309 253.603 1.39078 253.883 1.38464C254.162 1.37851 254.44 1.43873 254.692 1.56038C255.134 1.85586 255.449 2.30703 255.574 2.82421Z" fill="black"/>
<g opacity="0.2">
<path opacity="0.2" d="M180.585 50.6239C180.55 50.1187 180.654 49.6137 180.886 49.1633C181.117 48.7129 181.467 48.3342 181.898 48.068C182.759 47.5738 183.557 47.9127 183.691 48.8306C183.726 49.3366 183.621 49.8424 183.388 50.293C183.155 50.7436 182.804 51.1218 182.371 51.3865C182.217 51.5163 182.03 51.6009 181.831 51.6307C181.632 51.6606 181.428 51.6345 181.243 51.5554C181.058 51.4764 180.898 51.3474 180.782 51.1829C180.666 51.0184 180.597 50.8249 180.585 50.6239Z" fill="black"/>
<path opacity="0.2" d="M191.479 44.3401C191.443 43.8338 191.547 43.3275 191.78 42.8766C192.013 42.4256 192.365 42.0477 192.799 41.7842C193.653 41.2829 194.458 41.6288 194.585 42.5396C194.621 43.046 194.518 43.5525 194.286 44.0043C194.055 44.4561 193.704 44.8359 193.272 45.1026C192.411 45.5968 191.606 45.2579 191.479 44.3401Z" fill="black"/>
<path opacity="0.2" d="M202.359 38.0562C202.323 37.5508 202.426 37.0452 202.658 36.5945C202.89 36.1438 203.24 35.7653 203.672 35.5003C204.534 35.0061 205.332 35.345 205.466 36.2628C205.495 36.7681 205.388 37.2719 205.155 37.7215C204.923 38.1711 204.574 38.5501 204.145 38.8187C203.291 39.313 202.486 38.9741 202.359 38.0562Z" fill="black"/>
<path opacity="0.2" d="M224.127 25.4885C224.091 24.983 224.194 24.4774 224.426 24.0267C224.657 23.576 225.008 23.1976 225.44 22.9326C226.301 22.4383 227.099 22.7772 227.233 23.6951C227.267 24.201 227.162 24.7065 226.929 25.157C226.696 25.6074 226.345 25.9857 225.913 26.251C225.059 26.7452 224.254 26.4063 224.127 25.4885Z" fill="black"/>
<path opacity="0.2" d="M235.021 19.1976C234.985 18.6913 235.089 18.185 235.322 17.734C235.555 17.2831 235.908 16.9052 236.341 16.6417C237.196 16.1474 238.001 16.4863 238.128 17.4042C238.164 17.9096 238.06 18.4152 237.829 18.8659C237.597 19.3166 237.246 19.6951 236.815 19.9601C235.953 20.4755 235.162 20.1154 235.021 19.1976Z" fill="black"/>
<path opacity="0.2" d="M245.901 12.9137C245.867 12.4085 245.971 11.9035 246.203 11.453C246.434 11.0026 246.784 10.6239 247.215 10.3578C248.076 9.86355 248.874 10.2025 249.008 11.1203C249.043 11.6263 248.938 12.1321 248.705 12.5827C248.472 13.0334 248.12 13.4116 247.688 13.6762C246.833 14.1705 246.029 13.8316 245.901 12.9137Z" fill="black"/>
</g>
<path d="M183.882 47.3478C183.883 47.6628 183.854 47.9771 183.797 48.2869C183.765 48.4466 183.725 48.6045 183.677 48.7599C183.487 49.486 183.021 50.1092 182.378 50.4968C181.96 50.7383 181.484 50.8626 181.001 50.8569H180.62L180.578 50.6521C180.535 50.2248 180.606 49.7939 180.782 49.4024C181.08 49.4469 181.384 49.3949 181.651 49.2542C181.86 49.0935 182.032 48.8889 182.154 48.6547C182.276 48.4204 182.345 48.1624 182.357 47.8985C182.36 47.8751 182.36 47.8514 182.357 47.8279C182.365 47.6751 182.365 47.5219 182.357 47.369C182.291 45.8786 181.785 44.4412 180.902 43.2386C180.599 42.808 180.253 42.4083 179.871 42.0454C179.555 41.7488 179.207 41.4883 178.834 41.2687C178.547 41.0567 178.212 40.9203 177.859 40.8722C177.506 40.8241 177.147 40.8657 176.814 40.9934C176.533 41.2133 176.313 41.5027 176.177 41.8332C176.04 42.1637 175.993 42.5239 176.038 42.8785C176.042 43.3117 176.097 43.7428 176.2 44.1635L174.894 44.919V44.8343C174.71 44.1984 174.612 43.5405 174.604 42.8785C174.55 42.2663 174.661 41.6506 174.927 41.0964C175.193 40.5422 175.604 40.07 176.115 39.7295C177.083 39.1717 178.311 39.2706 179.596 40.0049C180.19 40.3561 180.73 40.7913 181.199 41.297C181.561 41.6743 181.89 42.083 182.18 42.5184C183.2 43.9311 183.791 45.6079 183.882 47.3478Z" fill="#37474F"/>
<path d="M194.776 41.0569C194.777 41.3719 194.749 41.6863 194.691 41.9959C194.665 42.1608 194.628 42.3236 194.578 42.4831C194.38 43.2039 193.913 43.8208 193.272 44.2059C192.854 44.4473 192.378 44.5717 191.895 44.566H191.521C191.5 44.4995 191.485 44.4308 191.479 44.3612C191.431 43.9344 191.499 43.5026 191.677 43.1115C191.974 43.156 192.279 43.104 192.545 42.9632C192.756 42.8043 192.929 42.6 193.052 42.3655C193.174 42.1309 193.242 41.8719 193.251 41.6076C193.254 41.5865 193.254 41.5651 193.251 41.5441C193.263 41.389 193.263 41.2332 193.251 41.0781C193.117 39.0553 192.23 37.1562 190.766 35.7545C190.451 35.4563 190.103 35.1956 189.728 34.9778C189.441 34.767 189.105 34.6319 188.753 34.585C188.4 34.5381 188.041 34.5809 187.709 34.7095C187.427 34.9283 187.208 35.2165 187.072 35.5458C186.936 35.8751 186.887 36.2341 186.932 36.5876C186.937 37.0207 186.991 37.4519 187.094 37.8726L185.788 38.6281V38.5434C185.606 37.9072 185.511 37.2493 185.506 36.5876C185.45 35.976 185.561 35.3608 185.825 34.8067C186.09 34.2525 186.499 33.7799 187.01 33.4386C187.977 32.8808 189.212 32.9797 190.49 33.714C191.084 34.0652 191.624 34.5004 192.093 35.006C192.452 35.3863 192.781 35.7948 193.075 36.2275C194.097 37.6387 194.688 39.3163 194.776 41.0569Z" fill="#37474F"/>
<path d="M205.649 34.7731C205.649 35.09 205.623 35.4064 205.572 35.7192C205.543 35.8817 205.502 36.0421 205.452 36.1993C205.264 36.9229 204.796 37.5424 204.153 37.9221C203.735 38.1657 203.259 38.2925 202.776 38.2892C202.651 38.2997 202.526 38.2997 202.402 38.2892C202.38 38.2227 202.366 38.154 202.359 38.0845C202.311 37.6577 202.379 37.2258 202.557 36.8347C202.852 36.884 203.156 36.8317 203.418 36.6865C203.63 36.5279 203.803 36.3237 203.926 36.089C204.048 35.8544 204.116 35.5953 204.124 35.3308C204.128 35.3098 204.128 35.2883 204.124 35.2673C204.136 35.1122 204.136 34.9564 204.124 34.8013C204.055 33.3138 203.549 31.8796 202.67 30.678C202.368 30.2459 202.023 29.8461 201.639 29.4847C201.323 29.186 200.975 28.9232 200.601 28.701C200.314 28.4902 199.979 28.3551 199.626 28.3082C199.273 28.2613 198.914 28.3041 198.582 28.4327C198.299 28.6522 198.079 28.9415 197.943 29.2722C197.807 29.6028 197.759 29.9632 197.805 30.3179C197.81 30.751 197.864 31.1822 197.967 31.6029L196.654 32.3584V32.2666C196.47 31.633 196.373 30.9775 196.365 30.3179C196.365 28.8422 196.901 27.7267 197.869 27.1689C198.836 26.6111 200.072 26.7029 201.349 27.4442C201.944 27.7945 202.486 28.2271 202.959 28.7293C203.319 29.1095 203.647 29.518 203.941 29.9507C204.962 31.3604 205.555 33.0348 205.649 34.7731Z" fill="#37474F"/>
<path d="M227.396 22.2265C227.399 22.5412 227.373 22.8556 227.318 23.1655C227.286 23.3299 227.246 23.4925 227.198 23.6527C227 24.3735 226.532 24.9904 225.892 25.3755C225.475 25.6144 225.002 25.7387 224.522 25.7356C224.398 25.7463 224.272 25.7463 224.148 25.7356C224.124 25.6645 224.107 25.5912 224.098 25.5167C224.052 25.0952 224.118 24.669 224.289 24.2811C224.589 24.3293 224.895 24.2798 225.165 24.1399C225.388 23.9773 225.572 23.7653 225.7 23.5204C225.829 23.2755 225.899 23.0043 225.906 22.7278C225.902 22.7115 225.902 22.6946 225.906 22.6784C225.914 22.5255 225.914 22.3723 225.906 22.2194C225.838 20.7241 225.329 19.2823 224.444 18.0749C224.14 17.6425 223.793 17.2426 223.407 16.8817C223.095 16.5903 222.751 16.3346 222.383 16.1191C222.096 15.9071 221.761 15.7708 221.408 15.7226C221.055 15.6745 220.696 15.7162 220.363 15.8438C220.084 16.0654 219.866 16.3553 219.732 16.6855C219.597 17.0157 219.549 17.3751 219.594 17.7289C219.596 18.1548 219.648 18.579 219.749 18.9928L218.499 19.7694V19.6988C218.316 19.0653 218.218 18.4098 218.21 17.7501C218.21 16.2745 218.747 15.1589 219.714 14.6011C220.265 14.3298 220.88 14.2122 221.492 14.2607C222.105 14.3091 222.693 14.5219 223.195 14.8765C223.787 15.2204 224.325 15.6512 224.79 16.1545C225.152 16.5349 225.482 16.9433 225.779 17.3759C226.771 18.8047 227.332 20.4882 227.396 22.2265Z" fill="#37474F"/>
<path d="M238.326 15.9356C238.327 16.2529 238.298 16.5696 238.241 16.8817C238.206 17.0512 238.17 17.2065 238.121 17.3689C237.931 18.0898 237.464 18.7065 236.822 19.0846C236.393 19.3322 235.905 19.4568 235.41 19.4447C235.285 19.4517 235.16 19.4517 235.036 19.4447C235.012 19.3712 234.995 19.2955 234.986 19.2187C234.939 18.7995 235.005 18.3753 235.177 17.9902C235.477 18.0399 235.785 17.9877 236.052 17.8419C236.277 17.6805 236.461 17.4687 236.59 17.2236C236.719 16.9785 236.788 16.7067 236.794 16.4298C236.798 16.4136 236.798 16.3966 236.794 16.3804C236.802 16.2275 236.802 16.0743 236.794 15.9215C236.727 14.4268 236.216 12.986 235.325 11.784C235.023 11.3499 234.678 10.9477 234.294 10.5837C233.981 10.2939 233.638 10.0383 233.27 9.82118C232.984 9.61035 232.648 9.47524 232.295 9.42835C231.942 9.38145 231.583 9.42428 231.251 9.55288C230.968 9.7714 230.747 10.0606 230.611 10.3915C230.474 10.7224 230.427 11.0833 230.475 11.438C230.481 11.8613 230.533 12.2827 230.63 12.6948L229.324 13.4573V13.3867C229.14 12.7532 229.042 12.0977 229.034 11.438C229.034 9.96239 229.571 8.83977 230.545 8.28905C231.519 7.73833 232.748 7.82305 234.019 8.55734C234.628 8.91533 235.18 9.36278 235.657 9.88472C236.019 10.2648 236.349 10.6733 236.645 11.1062C237.658 12.521 238.241 14.1978 238.326 15.9356Z" fill="#37474F"/>
<path d="M249.199 9.65171C249.199 9.96901 249.171 10.2857 249.114 10.5978C249.085 10.7574 249.047 10.9153 249.001 11.0709C248.807 11.7972 248.339 12.4198 247.695 12.8078C247.275 13.0445 246.8 13.1663 246.318 13.1608H245.951C245.927 13.0873 245.91 13.0116 245.901 12.9349C245.855 12.5157 245.921 12.0917 246.092 11.7063C246.392 11.7523 246.699 11.7003 246.968 11.558C247.186 11.3925 247.363 11.1791 247.485 10.9342C247.607 10.6894 247.672 10.4197 247.674 10.1459C247.677 10.132 247.677 10.1175 247.674 10.1036C247.685 9.94847 247.685 9.7927 247.674 9.63759C247.609 8.1438 247.1 6.70329 246.212 5.50012C245.908 5.06792 245.56 4.66809 245.174 4.3069C244.865 4.01282 244.524 3.75463 244.157 3.5373C243.871 3.32647 243.535 3.19136 243.182 3.14446C242.829 3.09757 242.47 3.14041 242.138 3.26901C241.855 3.48753 241.634 3.77674 241.497 4.10763C241.361 4.43851 241.314 4.79943 241.361 5.15416C241.364 5.58005 241.416 6.00421 241.517 6.41799L240.204 7.17347V7.10286C240.02 6.4693 239.922 5.81381 239.914 5.15416C239.914 3.67852 240.451 2.56295 241.418 2.00517C241.969 1.73434 242.583 1.61637 243.195 1.66356C243.807 1.71075 244.396 1.92138 244.899 2.27347C245.487 2.62035 246.022 3.05082 246.487 3.55142C246.853 3.93072 247.184 4.34186 247.476 4.77996C248.512 6.2014 249.111 7.89465 249.199 9.65171Z" fill="#37474F"/>
<path d="M176.497 73.74L258.914 26.1945L257.128 13.6197L174.696 61.1723L176.497 73.74Z" fill="#65BDC0"/>
<g opacity="0.65">
<path opacity="0.65" d="M176.497 73.74L258.914 26.1945L257.128 13.6197L174.696 61.1723L176.497 73.74Z" fill="white"/>
</g>
<path d="M182.992 76.7902C183.098 77.4962 183.741 77.7222 184.404 77.3197L190.589 73.7895C190.932 73.5873 191.212 73.2959 191.401 72.9464C191.59 72.5968 191.681 72.2024 191.663 71.8055C191.564 71.0994 190.921 70.8735 190.251 71.2759L184.066 74.8062C183.724 75.0089 183.444 75.3005 183.255 75.6499C183.066 75.9992 182.975 76.3933 182.992 76.7902Z" fill="#65BDC0"/>
<path d="M193.428 70.7676C193.526 71.4736 194.169 71.6995 194.84 71.2971L201.025 67.7668C201.369 67.5662 201.651 67.2753 201.842 66.9255C202.032 66.5758 202.123 66.1806 202.105 65.7828C202.006 65.0768 201.399 64.8508 200.693 65.2533L194.508 68.7836C194.164 68.9842 193.881 69.2751 193.691 69.6249C193.5 69.9746 193.409 70.3698 193.428 70.7676Z" fill="#65BDC0"/>
<path d="M203.863 64.7449C203.962 65.451 204.605 65.6769 205.275 65.2745L211.46 61.7442C211.804 61.5433 212.085 61.2521 212.274 60.9022C212.464 60.5524 212.553 60.1574 212.534 59.7602C212.435 59.0542 211.792 58.8282 211.122 59.2307L204.936 62.7609C204.594 62.9625 204.313 63.2538 204.124 63.6035C203.934 63.9531 203.844 64.3478 203.863 64.7449Z" fill="#65BDC0"/>
<path d="M214.291 58.7223C214.39 59.4284 215.033 59.6543 215.704 59.2519L221.889 55.6792C222.231 55.4794 222.512 55.1895 222.702 54.8409C222.891 54.4923 222.981 54.0985 222.962 53.7023C222.863 52.9962 222.22 52.7703 221.55 53.1657L215.393 56.7383C215.044 56.9356 214.757 57.2252 214.563 57.5753C214.369 57.9253 214.275 58.3223 214.291 58.7223Z" fill="#65BDC0"/>
<path d="M224.727 52.6927C224.826 53.3987 225.433 53.6247 226.139 53.2293L232.324 49.6567C232.667 49.4566 232.949 49.1668 233.139 48.8184C233.33 48.47 233.421 48.0763 233.405 47.6797C233.306 46.9737 232.663 46.7477 231.993 47.1431L225.808 50.7157C225.464 50.9152 225.182 51.2049 224.991 51.5534C224.801 51.9019 224.71 52.2959 224.727 52.6927Z" fill="#65BDC0"/>
<path d="M235.162 46.67C235.261 47.3761 235.904 47.602 236.575 47.2066L242.76 43.634C243.102 43.4325 243.383 43.1411 243.573 42.7915C243.762 42.4418 243.852 42.0471 243.833 41.65C243.734 40.944 243.091 40.718 242.421 41.1205L236.236 44.6931C235.894 44.8935 235.613 45.1836 235.424 45.532C235.234 45.8805 235.144 46.274 235.162 46.67Z" fill="#65BDC0"/>
<path d="M245.591 40.6474C245.69 41.3534 246.332 41.5794 247.003 41.1769L253.188 37.6467C253.532 37.4466 253.815 37.1558 254.006 36.8059C254.196 36.4561 254.287 36.0606 254.268 35.6626C254.169 34.9566 253.562 34.7307 252.856 35.1331L246.671 38.7057C246.333 38.9018 246.053 39.1858 245.863 39.5276C245.673 39.8695 245.579 40.2564 245.591 40.6474Z" fill="#65BDC0"/>
<g opacity="0.17">
<path opacity="0.17" d="M261.145 76.8608C261.066 76.8677 260.988 76.8458 260.924 76.799C260.86 76.7522 260.816 76.6838 260.799 76.6066L255.758 41.417C255.755 41.3797 255.76 41.3422 255.772 41.307C255.785 41.2718 255.805 41.2398 255.831 41.213C255.857 41.1862 255.889 41.1654 255.924 41.1518C255.958 41.1383 255.996 41.1324 256.033 41.1345C256.112 41.1301 256.19 41.1529 256.255 41.1992C256.319 41.2455 256.365 41.3124 256.386 41.3887L261.42 76.5784C261.423 76.6156 261.418 76.6531 261.406 76.6883C261.393 76.7235 261.373 76.7556 261.347 76.7823C261.321 76.8091 261.289 76.83 261.254 76.8435C261.22 76.857 261.182 76.8629 261.145 76.8608Z" fill="#65BDC0"/>
<path opacity="0.17" d="M250.695 82.8904C250.616 82.8974 250.538 82.8755 250.474 82.8287C250.411 82.7819 250.366 82.7135 250.349 82.6363L245.308 47.4466C245.305 47.4094 245.31 47.3719 245.323 47.3367C245.335 47.3015 245.355 47.2694 245.381 47.2427C245.407 47.2159 245.439 47.195 245.474 47.1815C245.509 47.168 245.546 47.1621 245.583 47.1642C245.662 47.1573 245.741 47.1792 245.804 47.226C245.868 47.2728 245.912 47.3412 245.929 47.4184L250.985 82.608C250.988 82.6466 250.983 82.6854 250.969 82.7217C250.956 82.758 250.935 82.7908 250.907 82.8178C250.879 82.8449 250.846 82.8654 250.809 82.878C250.773 82.8905 250.734 82.8948 250.695 82.8904Z" fill="#65BDC0"/>
<path opacity="0.17" d="M240.274 88.9131C240.195 88.9189 240.116 88.8966 240.052 88.8501C239.987 88.8036 239.941 88.736 239.921 88.6589L234.887 53.4693C234.884 53.4326 234.889 53.3958 234.901 53.3611C234.913 53.3264 234.933 53.2947 234.958 53.268C234.983 53.2414 235.014 53.2204 235.048 53.2064C235.082 53.1924 235.119 53.1857 235.155 53.1869C235.235 53.1796 235.315 53.2013 235.379 53.248C235.444 53.2947 235.49 53.3633 235.508 53.441L240.55 88.6307C240.553 88.6679 240.548 88.7054 240.535 88.7406C240.523 88.7758 240.502 88.8079 240.476 88.8346C240.45 88.8614 240.419 88.8823 240.384 88.8958C240.349 88.9093 240.312 88.9152 240.274 88.9131Z" fill="#65BDC0"/>
<path opacity="0.17" d="M229.838 94.9427C229.758 94.9482 229.679 94.9249 229.614 94.877C229.549 94.8292 229.504 94.7599 229.485 94.6815L224.444 59.4919C224.442 59.4552 224.448 59.4185 224.461 59.3841C224.474 59.3498 224.494 59.3186 224.52 59.2926C224.546 59.2666 224.578 59.2464 224.612 59.2333C224.646 59.2202 224.683 59.2145 224.72 59.2165C224.799 59.2093 224.879 59.231 224.944 59.2777C225.008 59.3244 225.054 59.3929 225.073 59.4707L230.107 94.6603C230.11 94.697 230.105 94.7338 230.093 94.7685C230.081 94.8032 230.061 94.8349 230.036 94.8615C230.01 94.8882 229.98 94.9092 229.946 94.9232C229.912 94.9372 229.875 94.9439 229.838 94.9427Z" fill="#65BDC0"/>
<path opacity="0.17" d="M219.403 100.965C219.324 100.973 219.244 100.951 219.179 100.904C219.115 100.858 219.069 100.789 219.05 100.711L213.981 65.5216C213.978 65.4843 213.983 65.4468 213.995 65.4116C214.008 65.3764 214.028 65.3444 214.054 65.3176C214.08 65.2908 214.112 65.27 214.147 65.2564C214.182 65.2429 214.219 65.237 214.256 65.2391C214.336 65.2334 214.414 65.2557 214.479 65.3021C214.543 65.3486 214.59 65.4163 214.609 65.4933L219.643 100.683C219.646 100.717 219.642 100.752 219.632 100.785C219.621 100.817 219.604 100.848 219.582 100.874C219.56 100.9 219.533 100.922 219.502 100.938C219.471 100.953 219.438 100.963 219.403 100.965Z" fill="#65BDC0"/>
<path opacity="0.17" d="M208.96 106.995C208.881 107 208.802 106.977 208.739 106.929C208.675 106.881 208.631 106.812 208.614 106.734L203.573 71.5442C203.573 71.3959 203.672 71.2759 203.849 71.2688C203.927 71.2619 204.006 71.2838 204.07 71.3306C204.133 71.3774 204.178 71.4458 204.195 71.523L209.236 106.713C209.239 106.75 209.234 106.787 209.221 106.823C209.209 106.858 209.189 106.89 209.162 106.917C209.136 106.943 209.105 106.964 209.07 106.978C209.035 106.991 208.998 106.997 208.96 106.995Z" fill="#65BDC0"/>
<path opacity="0.17" d="M198.525 113.018C198.446 113.023 198.367 113.001 198.303 112.955C198.238 112.908 198.192 112.841 198.172 112.763L193.138 77.5739C193.135 77.5366 193.14 77.4991 193.153 77.4639C193.165 77.4287 193.185 77.3967 193.211 77.3699C193.237 77.3431 193.269 77.3223 193.304 77.3087C193.339 77.2952 193.376 77.2893 193.413 77.2915C193.492 77.2845 193.571 77.3064 193.634 77.3532C193.698 77.4 193.743 77.4684 193.759 77.5456L198.801 112.735C198.804 112.773 198.799 112.81 198.786 112.845C198.773 112.88 198.753 112.912 198.727 112.939C198.701 112.966 198.67 112.987 198.635 113C198.6 113.014 198.563 113.02 198.525 113.018Z" fill="#65BDC0"/>
<path opacity="0.17" d="M188.09 119.04C188.01 119.048 187.931 119.026 187.866 118.979C187.801 118.932 187.755 118.864 187.737 118.786L182.696 83.5965C182.694 83.5595 182.699 83.5225 182.712 83.4878C182.726 83.4531 182.746 83.4215 182.772 83.395C182.797 83.3684 182.828 83.3475 182.863 83.3336C182.897 83.3197 182.934 83.313 182.971 83.3141C183.051 83.3086 183.131 83.3319 183.196 83.3798C183.26 83.4276 183.306 83.4969 183.324 83.5753L188.365 118.765C188.367 118.802 188.362 118.838 188.349 118.873C188.335 118.907 188.315 118.938 188.289 118.964C188.263 118.99 188.232 119.01 188.198 119.024C188.163 119.037 188.127 119.042 188.09 119.04Z" fill="#65BDC0"/>
<path opacity="0.17" d="M184.326 92.6481C184.272 92.6535 184.217 92.6453 184.167 92.6244C184.116 92.6034 184.072 92.5703 184.037 92.528C184.012 92.5022 183.993 92.4709 183.982 92.4366C183.971 92.4023 183.968 92.366 183.974 92.3304C183.979 92.2949 183.993 92.261 184.014 92.2316C184.034 92.2022 184.062 92.178 184.093 92.1609L257.156 49.9743C257.228 49.9372 257.31 49.9254 257.389 49.9408C257.469 49.9561 257.541 49.9978 257.593 50.059C257.618 50.0853 257.636 50.1171 257.647 50.1517C257.657 50.1863 257.66 50.2229 257.653 50.2585C257.647 50.2941 257.633 50.3278 257.611 50.3569C257.59 50.386 257.562 50.4097 257.53 50.4262L184.461 92.6057C184.42 92.6304 184.374 92.6449 184.326 92.6481Z" fill="#65BDC0"/>
<path opacity="0.17" d="M185.569 101.445C185.515 101.449 185.461 101.44 185.41 101.419C185.36 101.399 185.315 101.366 185.28 101.325C185.255 101.299 185.237 101.267 185.226 101.233C185.216 101.198 185.214 101.162 185.22 101.126C185.226 101.09 185.24 101.057 185.262 101.028C185.283 100.999 185.311 100.975 185.343 100.958L258.398 58.7717C258.471 58.7341 258.555 58.722 258.635 58.7373C258.716 58.7527 258.789 58.7946 258.843 58.8565C258.867 58.8834 258.884 58.9152 258.893 58.9495C258.903 58.9839 258.905 59.02 258.899 59.0551C258.893 59.0903 258.879 59.1237 258.858 59.1528C258.838 59.182 258.811 59.2061 258.78 59.2236L185.739 101.403C185.688 101.435 185.629 101.45 185.569 101.445Z" fill="#65BDC0"/>
<path opacity="0.17" d="M186.826 110.243C186.772 110.247 186.717 110.238 186.667 110.217C186.617 110.196 186.572 110.164 186.537 110.123C186.512 110.096 186.493 110.064 186.483 110.028C186.473 109.993 186.47 109.956 186.477 109.92C186.483 109.884 186.497 109.85 186.518 109.82C186.54 109.79 186.568 109.766 186.6 109.749L259.662 67.5691C259.734 67.532 259.816 67.5202 259.896 67.5356C259.975 67.551 260.047 67.5926 260.1 67.6539C260.125 67.6802 260.143 67.7119 260.154 67.7465C260.164 67.7811 260.166 67.8177 260.16 67.8533C260.154 67.8889 260.139 67.9226 260.118 67.9517C260.097 67.9808 260.069 68.0045 260.037 68.021L186.981 110.201C186.934 110.228 186.881 110.243 186.826 110.243Z" fill="#65BDC0"/>
<path opacity="0.17" d="M188.09 119.04C188.037 119.054 187.981 119.054 187.927 119.04C187.878 119.023 187.835 118.993 187.801 118.954C187.768 118.914 187.745 118.866 187.737 118.814L182.696 83.6248C182.692 83.5768 182.702 83.5288 182.724 83.4863C182.747 83.4438 182.781 83.4086 182.823 83.3847L255.878 41.2052C255.927 41.1809 255.982 41.1682 256.037 41.1682C256.092 41.1682 256.146 41.1809 256.196 41.2052C256.243 41.2234 256.285 41.2528 256.318 41.291C256.351 41.3291 256.375 41.3748 256.386 41.424L261.42 76.6137C261.427 76.6611 261.418 76.7093 261.397 76.752C261.376 76.7948 261.342 76.8302 261.3 76.8537L188.238 118.998C188.194 119.027 188.142 119.041 188.09 119.04ZM183.345 83.7377L188.287 118.334L260.771 76.4866L255.828 41.89L183.345 83.7377Z" fill="#65BDC0"/>
</g>
<g opacity="0.17">
<path opacity="0.17" d="M261.145 76.8608C261.066 76.8677 260.988 76.8458 260.924 76.799C260.86 76.7522 260.816 76.6838 260.799 76.6066L255.758 41.417C255.755 41.3797 255.76 41.3422 255.772 41.307C255.785 41.2718 255.805 41.2398 255.831 41.213C255.857 41.1862 255.889 41.1654 255.924 41.1518C255.958 41.1383 255.996 41.1324 256.033 41.1345C256.112 41.1301 256.19 41.1529 256.255 41.1992C256.319 41.2455 256.365 41.3124 256.386 41.3887L261.42 76.5784C261.423 76.6156 261.418 76.6531 261.406 76.6883C261.393 76.7235 261.373 76.7556 261.347 76.7823C261.321 76.8091 261.289 76.83 261.254 76.8435C261.22 76.857 261.182 76.8629 261.145 76.8608Z" fill="black"/>
<path opacity="0.17" d="M250.695 82.8904C250.616 82.8974 250.538 82.8755 250.474 82.8287C250.411 82.7819 250.366 82.7135 250.349 82.6363L245.308 47.4466C245.305 47.4094 245.31 47.3719 245.323 47.3367C245.335 47.3015 245.355 47.2694 245.381 47.2427C245.407 47.2159 245.439 47.195 245.474 47.1815C245.509 47.168 245.546 47.1621 245.583 47.1642C245.662 47.1573 245.741 47.1792 245.804 47.226C245.868 47.2728 245.912 47.3412 245.929 47.4184L250.985 82.608C250.988 82.6466 250.983 82.6854 250.969 82.7217C250.956 82.758 250.935 82.7908 250.907 82.8178C250.879 82.8449 250.846 82.8654 250.809 82.878C250.773 82.8905 250.734 82.8948 250.695 82.8904Z" fill="black"/>
<path opacity="0.17" d="M240.274 88.9131C240.195 88.9189 240.116 88.8966 240.052 88.8501C239.987 88.8036 239.941 88.736 239.921 88.6589L234.887 53.4693C234.884 53.4326 234.889 53.3958 234.901 53.3611C234.913 53.3264 234.933 53.2947 234.958 53.268C234.983 53.2414 235.014 53.2204 235.048 53.2064C235.082 53.1924 235.119 53.1857 235.155 53.1869C235.235 53.1796 235.315 53.2013 235.379 53.248C235.444 53.2947 235.49 53.3633 235.508 53.441L240.55 88.6307C240.553 88.6679 240.548 88.7054 240.535 88.7406C240.523 88.7758 240.502 88.8079 240.476 88.8346C240.45 88.8614 240.419 88.8823 240.384 88.8958C240.349 88.9093 240.312 88.9152 240.274 88.9131Z" fill="black"/>
<path opacity="0.17" d="M229.838 94.9427C229.758 94.9482 229.679 94.9249 229.614 94.877C229.549 94.8292 229.504 94.7599 229.485 94.6815L224.444 59.4919C224.442 59.4552 224.448 59.4185 224.461 59.3841C224.474 59.3498 224.494 59.3186 224.52 59.2926C224.546 59.2666 224.578 59.2464 224.612 59.2333C224.646 59.2202 224.683 59.2145 224.72 59.2165C224.799 59.2093 224.879 59.231 224.944 59.2777C225.008 59.3244 225.054 59.3929 225.073 59.4707L230.107 94.6603C230.11 94.697 230.105 94.7338 230.093 94.7685C230.081 94.8032 230.061 94.8349 230.036 94.8615C230.01 94.8882 229.98 94.9092 229.946 94.9232C229.912 94.9372 229.875 94.9439 229.838 94.9427Z" fill="black"/>
<path opacity="0.17" d="M219.403 100.965C219.324 100.973 219.244 100.951 219.179 100.904C219.115 100.858 219.069 100.789 219.05 100.711L213.981 65.5216C213.978 65.4843 213.983 65.4468 213.995 65.4116C214.008 65.3764 214.028 65.3444 214.054 65.3176C214.08 65.2908 214.112 65.27 214.147 65.2564C214.182 65.2429 214.219 65.237 214.256 65.2391C214.336 65.2334 214.414 65.2557 214.479 65.3021C214.543 65.3486 214.59 65.4163 214.609 65.4933L219.643 100.683C219.646 100.717 219.642 100.752 219.632 100.785C219.621 100.817 219.604 100.848 219.582 100.874C219.56 100.9 219.533 100.922 219.502 100.938C219.471 100.953 219.438 100.963 219.403 100.965Z" fill="black"/>
<path opacity="0.17" d="M208.96 106.995C208.881 107 208.802 106.977 208.739 106.929C208.675 106.881 208.631 106.812 208.614 106.734L203.573 71.5442C203.573 71.3959 203.672 71.2759 203.849 71.2688C203.927 71.2619 204.006 71.2838 204.07 71.3306C204.133 71.3774 204.178 71.4458 204.195 71.523L209.236 106.713C209.239 106.75 209.234 106.787 209.221 106.823C209.209 106.858 209.189 106.89 209.162 106.917C209.136 106.943 209.105 106.964 209.07 106.978C209.035 106.991 208.998 106.997 208.96 106.995Z" fill="black"/>
<path opacity="0.17" d="M198.525 113.018C198.446 113.023 198.367 113.001 198.303 112.955C198.238 112.908 198.192 112.841 198.172 112.763L193.138 77.5739C193.135 77.5366 193.14 77.4991 193.153 77.4639C193.165 77.4287 193.185 77.3967 193.211 77.3699C193.237 77.3431 193.269 77.3223 193.304 77.3087C193.339 77.2952 193.376 77.2893 193.413 77.2915C193.492 77.2845 193.571 77.3064 193.634 77.3532C193.698 77.4 193.743 77.4684 193.759 77.5456L198.801 112.735C198.804 112.773 198.799 112.81 198.786 112.845C198.773 112.88 198.753 112.912 198.727 112.939C198.701 112.966 198.67 112.987 198.635 113C198.6 113.014 198.563 113.02 198.525 113.018Z" fill="black"/>
<path opacity="0.17" d="M188.09 119.04C188.01 119.048 187.931 119.026 187.866 118.979C187.801 118.932 187.755 118.864 187.737 118.786L182.696 83.5965C182.694 83.5595 182.699 83.5225 182.712 83.4878C182.726 83.4531 182.746 83.4215 182.772 83.395C182.797 83.3684 182.828 83.3475 182.863 83.3336C182.897 83.3197 182.934 83.313 182.971 83.3141C183.051 83.3086 183.131 83.3319 183.196 83.3798C183.26 83.4276 183.306 83.4969 183.324 83.5753L188.365 118.765C188.367 118.802 188.362 118.838 188.349 118.873C188.335 118.907 188.315 118.938 188.289 118.964C188.263 118.99 188.232 119.01 188.198 119.024C188.163 119.037 188.127 119.042 188.09 119.04Z" fill="black"/>
<path opacity="0.17" d="M184.326 92.6481C184.272 92.6535 184.217 92.6453 184.167 92.6244C184.116 92.6034 184.072 92.5703 184.037 92.528C184.012 92.5022 183.993 92.4709 183.982 92.4366C183.971 92.4023 183.968 92.366 183.974 92.3304C183.979 92.2949 183.993 92.261 184.014 92.2316C184.034 92.2022 184.062 92.178 184.093 92.1609L257.156 49.9743C257.228 49.9372 257.31 49.9254 257.389 49.9408C257.469 49.9561 257.541 49.9978 257.593 50.059C257.618 50.0853 257.636 50.1171 257.647 50.1517C257.657 50.1863 257.66 50.2229 257.653 50.2585C257.647 50.2941 257.633 50.3278 257.611 50.3569C257.59 50.386 257.562 50.4097 257.53 50.4262L184.461 92.6057C184.42 92.6304 184.374 92.6449 184.326 92.6481Z" fill="black"/>
<path opacity="0.17" d="M185.569 101.445C185.515 101.449 185.461 101.44 185.41 101.419C185.36 101.399 185.315 101.366 185.28 101.325C185.255 101.299 185.237 101.267 185.226 101.233C185.216 101.198 185.214 101.162 185.22 101.126C185.226 101.09 185.24 101.057 185.262 101.028C185.283 100.999 185.311 100.975 185.343 100.958L258.398 58.7717C258.471 58.7341 258.555 58.722 258.635 58.7373C258.716 58.7527 258.789 58.7946 258.843 58.8565C258.867 58.8834 258.884 58.9152 258.893 58.9495C258.903 58.9839 258.905 59.02 258.899 59.0551C258.893 59.0903 258.879 59.1237 258.858 59.1528C258.838 59.182 258.811 59.2061 258.78 59.2236L185.739 101.403C185.688 101.435 185.629 101.45 185.569 101.445Z" fill="black"/>
<path opacity="0.17" d="M186.826 110.243C186.772 110.247 186.717 110.238 186.667 110.217C186.617 110.196 186.572 110.164 186.537 110.123C186.512 110.096 186.493 110.064 186.483 110.028C186.473 109.993 186.47 109.956 186.477 109.92C186.483 109.884 186.497 109.85 186.518 109.82C186.54 109.79 186.568 109.766 186.6 109.749L259.662 67.5691C259.734 67.532 259.816 67.5202 259.896 67.5356C259.975 67.551 260.047 67.5926 260.1 67.6539C260.125 67.6802 260.143 67.7119 260.154 67.7465C260.164 67.7811 260.166 67.8177 260.16 67.8533C260.154 67.8889 260.139 67.9226 260.118 67.9517C260.097 67.9808 260.069 68.0045 260.037 68.021L186.981 110.201C186.934 110.228 186.881 110.243 186.826 110.243Z" fill="black"/>
<path opacity="0.17" d="M188.09 119.04C188.037 119.054 187.981 119.054 187.927 119.04C187.878 119.023 187.835 118.993 187.801 118.954C187.768 118.914 187.745 118.866 187.737 118.814L182.696 83.6248C182.692 83.5768 182.702 83.5288 182.724 83.4863C182.747 83.4438 182.781 83.4086 182.823 83.3847L255.878 41.2052C255.927 41.1809 255.982 41.1682 256.037 41.1682C256.092 41.1682 256.146 41.1809 256.196 41.2052C256.243 41.2234 256.285 41.2528 256.318 41.291C256.351 41.3291 256.375 41.3748 256.386 41.424L261.42 76.6137C261.427 76.6611 261.418 76.7093 261.397 76.752C261.376 76.7948 261.342 76.8302 261.3 76.8537L188.238 118.998C188.194 119.027 188.142 119.041 188.09 119.04ZM183.345 83.7377L188.287 118.334L260.771 76.4866L255.828 41.89L183.345 83.7377Z" fill="black"/>
</g>
<path d="M206.377 50.751C206.378 51.1915 206.324 51.6304 206.214 52.0572C206.116 52.4514 205.966 52.8311 205.77 53.1869C205.595 53.5162 205.377 53.8203 205.12 54.0906C204.89 54.3317 204.629 54.5407 204.343 54.712C204.097 54.8658 203.82 54.9645 203.531 55.0014C203.311 55.028 203.089 54.9834 202.896 54.8743C202.7 54.7468 202.551 54.5583 202.472 54.3377C202.36 54.0402 202.304 53.7239 202.31 53.4058C202.31 53.3399 202.325 53.275 202.352 53.2151C202.372 53.1618 202.409 53.117 202.458 53.088L203.334 52.5797C203.418 52.5303 203.475 52.5232 203.503 52.5444C203.546 52.603 203.575 52.6706 203.588 52.7421C203.599 52.8224 203.628 52.8992 203.672 52.9675C203.716 53.0357 203.774 53.0937 203.842 53.1374C203.955 53.1939 204.125 53.1375 204.343 53.0315C204.599 52.8811 204.803 52.6572 204.929 52.389C205.063 52.0821 205.129 51.7495 205.12 51.4147V48.4775L202.79 49.8261C202.771 49.8416 202.747 49.85 202.723 49.85C202.699 49.85 202.675 49.8416 202.656 49.8261C202.618 49.7783 202.6 49.7174 202.606 49.6566V48.5411C202.606 48.463 202.623 48.3858 202.656 48.3151C202.683 48.2486 202.73 48.1919 202.79 48.1527L206.214 46.1758C206.232 46.1608 206.255 46.1526 206.278 46.1526C206.301 46.1526 206.324 46.1608 206.341 46.1758C206.363 46.1979 206.379 46.2247 206.389 46.254C206.399 46.2834 206.402 46.3146 206.398 46.3452L206.377 50.751Z" fill="#455A64"/>
<path d="M207.28 51.3582C207.281 50.8868 207.4 50.4232 207.626 50.0096C207.914 49.505 208.295 49.0594 208.749 48.6964L209.547 48.0256C209.56 47.8985 209.527 47.7708 209.455 47.6655C209.398 47.5879 209.293 47.5949 209.151 47.6655C209.056 47.7163 208.972 47.786 208.904 47.8703C208.86 47.9336 208.82 47.9997 208.784 48.068C208.752 48.1297 208.712 48.1868 208.664 48.2374C208.626 48.2759 208.584 48.3091 208.537 48.3363L207.669 48.8376C207.652 48.8482 207.632 48.8539 207.612 48.8539C207.592 48.8539 207.573 48.8482 207.556 48.8376C207.545 48.8143 207.539 48.7891 207.539 48.7635C207.539 48.7378 207.545 48.7126 207.556 48.6893C207.569 48.4904 207.614 48.295 207.69 48.1104C207.78 47.8647 207.893 47.6283 208.029 47.4043C208.177 47.1673 208.347 46.9451 208.537 46.7406C208.728 46.5389 208.947 46.3654 209.187 46.2252C209.399 46.0863 209.641 45.997 209.893 45.964C210.074 45.9436 210.256 45.9942 210.401 46.1052C210.548 46.2354 210.652 46.408 210.698 46.5994C210.768 46.857 210.801 47.1232 210.796 47.3902V50.5745C210.795 50.6531 210.776 50.7305 210.74 50.8004C210.715 50.8662 210.671 50.9228 210.613 50.9628L209.751 51.457C209.734 51.472 209.711 51.4802 209.688 51.4802C209.665 51.4802 209.642 51.472 209.624 51.457C209.604 51.4339 209.589 51.407 209.579 51.3779C209.57 51.3489 209.566 51.3182 209.568 51.2876V50.9981C209.459 51.2485 209.322 51.4854 209.158 51.7042C208.984 51.9267 208.768 52.1137 208.523 52.2549C208.365 52.3544 208.186 52.4149 208 52.4314C207.862 52.4372 207.726 52.392 207.619 52.3043C207.505 52.1993 207.422 52.0649 207.379 51.916C207.323 51.7349 207.29 51.5475 207.28 51.3582ZM208.834 50.6945C208.943 50.635 209.04 50.5533 209.116 50.4544C209.205 50.3486 209.281 50.2324 209.342 50.1085C209.406 49.9801 209.456 49.8452 209.49 49.706C209.525 49.5675 209.544 49.4253 209.547 49.2824L208.918 49.7908C208.803 49.8904 208.703 50.0071 208.622 50.1367C208.548 50.2554 208.509 50.3924 208.509 50.5321C208.509 50.6663 208.509 50.7369 208.594 50.758C208.678 50.7792 208.728 50.758 208.834 50.6945Z" fill="#455A64"/>
<path d="M215.513 47.8703C215.514 47.9516 215.495 48.0318 215.456 48.1033C215.432 48.1691 215.387 48.2258 215.329 48.2657L214.468 48.76C214.45 48.7749 214.428 48.7831 214.404 48.7831C214.381 48.7831 214.359 48.7749 214.341 48.76C214.321 48.7368 214.305 48.7099 214.296 48.6809C214.286 48.6518 214.282 48.6211 214.284 48.5905V45.8934C214.303 45.6699 214.253 45.4461 214.143 45.2509C214.044 45.1238 213.896 45.1238 213.691 45.2509C213.484 45.3717 213.327 45.5618 213.247 45.7875C213.146 46.0436 213.098 46.3173 213.105 46.5924V49.2471C213.103 49.3279 213.084 49.4074 213.049 49.4801C213.024 49.5459 212.98 49.6026 212.922 49.6425L212.06 50.1367C212.041 50.1522 212.018 50.1607 211.993 50.1607C211.969 50.1607 211.945 50.1522 211.926 50.1367C211.888 50.0889 211.87 50.0281 211.877 49.9673V45.0673C211.876 44.987 211.893 44.9074 211.926 44.8343C211.956 44.771 212.002 44.7172 212.06 44.679L212.886 44.1989C212.904 44.1839 212.927 44.1757 212.95 44.1757C212.973 44.1757 212.996 44.1839 213.014 44.1989C213.034 44.2205 213.049 44.2461 213.059 44.2741C213.069 44.302 213.072 44.3317 213.07 44.3613V44.6084C213.105 44.5166 213.155 44.4177 213.204 44.3048C213.262 44.1942 213.328 44.0881 213.402 43.987C213.483 43.8792 213.573 43.7777 213.67 43.6834C213.78 43.583 213.901 43.4954 214.03 43.4222C214.211 43.3072 214.417 43.237 214.63 43.2175C214.716 43.2094 214.803 43.2197 214.884 43.2477C214.966 43.2757 215.041 43.3207 215.103 43.3798C215.252 43.5413 215.357 43.7382 215.407 43.9517C215.486 44.2823 215.521 44.6217 215.513 44.9614V47.8703Z" fill="#455A64"/>
<path d="M216.579 42.3631C216.582 42.2847 216.601 42.2077 216.636 42.1372C216.66 42.0714 216.705 42.0147 216.763 41.9748L217.624 41.4805C217.642 41.4656 217.664 41.4574 217.688 41.4574C217.711 41.4574 217.733 41.4656 217.751 41.4805C217.771 41.5037 217.786 41.5306 217.796 41.5596C217.806 41.5887 217.81 41.6194 217.808 41.65V44.3118C217.791 44.5358 217.835 44.76 217.935 44.9614C218.026 45.0955 218.168 45.1026 218.365 44.9614C218.567 44.848 218.72 44.6647 218.796 44.446C218.884 44.1894 218.927 43.9194 218.923 43.6481V40.9863C218.922 40.906 218.939 40.8264 218.973 40.7533C219 40.6887 219.047 40.6343 219.107 40.598L219.968 40.0967C219.986 40.0817 220.008 40.0735 220.032 40.0735C220.055 40.0735 220.077 40.0817 220.095 40.0967C220.135 40.1412 220.155 40.1996 220.152 40.2591V45.1873C220.15 45.2681 220.13 45.3476 220.095 45.4203C220.069 45.4851 220.025 45.5413 219.968 45.5827L219.17 46.0346C219.152 46.0495 219.13 46.0577 219.107 46.0577C219.083 46.0577 219.061 46.0495 219.043 46.0346C219.023 46.0114 219.008 45.9846 218.998 45.9555C218.988 45.9264 218.984 45.8957 218.987 45.8651V45.6251C218.95 45.7295 218.905 45.831 218.852 45.9287C218.799 46.0383 218.736 46.1423 218.662 46.2393C218.58 46.3472 218.491 46.4487 218.394 46.5429C218.281 46.6453 218.158 46.7352 218.026 46.8112C217.582 47.0654 217.236 47.0795 216.974 46.8112C216.641 46.3534 216.499 45.7834 216.579 45.2226V42.3631Z" fill="#455A64"/>
<path d="M221.042 43.401C221.046 42.9323 221.164 42.4718 221.387 42.0595C221.678 41.5567 222.059 41.1116 222.51 40.7463L223.308 40.0402C223.319 39.9142 223.29 39.7878 223.223 39.6801C223.16 39.6024 223.061 39.6095 222.913 39.6801C222.818 39.7294 222.736 39.7994 222.672 39.8849C222.626 39.9484 222.584 40.0144 222.545 40.0826C222.515 40.1438 222.477 40.2008 222.432 40.252C222.392 40.2905 222.347 40.3237 222.298 40.3509L221.43 40.8522C221.413 40.8628 221.393 40.8685 221.373 40.8685C221.353 40.8685 221.334 40.8628 221.317 40.8522C221.299 40.8043 221.299 40.7517 221.317 40.7039C221.333 40.5024 221.381 40.3047 221.458 40.1179C221.544 39.8716 221.655 39.6349 221.79 39.4118C221.943 39.1764 222.115 38.9543 222.305 38.7481C222.492 38.5451 222.709 38.3713 222.948 38.2327C223.161 38.0955 223.402 38.0063 223.654 37.9715C223.835 37.9511 224.017 38.0017 224.162 38.1127C224.31 38.2429 224.413 38.4155 224.459 38.6069C224.529 38.8645 224.562 39.1308 224.558 39.3977V42.582C224.557 42.6607 224.537 42.738 224.501 42.8079C224.476 42.8757 224.429 42.933 224.367 42.9703L223.513 43.4645C223.456 43.4645 223.414 43.4645 223.379 43.4645C223.358 43.4414 223.343 43.4145 223.333 43.3855C223.324 43.3564 223.32 43.3257 223.322 43.2951V43.0692C223.218 43.3206 223.083 43.5579 222.92 43.7752C222.745 44.0001 222.526 44.1874 222.277 44.3259C222.12 44.4265 221.941 44.4871 221.755 44.5024C221.617 44.5057 221.482 44.4608 221.373 44.3754C221.264 44.2678 221.184 44.1342 221.14 43.987C221.079 43.7976 221.046 43.6001 221.042 43.401ZM222.602 42.7444C222.708 42.6827 222.802 42.6012 222.877 42.5043C222.969 42.4003 223.045 42.2838 223.103 42.1584C223.166 42.0289 223.218 41.8943 223.259 41.7559C223.292 41.6148 223.309 41.4702 223.308 41.3252L222.68 41.8406C222.564 41.9403 222.464 42.0569 222.383 42.1866C222.312 42.3066 222.273 42.4427 222.27 42.582C222.27 42.7091 222.27 42.7867 222.355 42.8079C222.399 42.8165 222.445 42.8152 222.489 42.8043C222.533 42.7933 222.574 42.7728 222.609 42.7444H222.602Z" fill="#455A64"/>
<path d="M228.102 35.4085C228.12 35.3936 228.142 35.3854 228.165 35.3854C228.189 35.3854 228.211 35.3936 228.229 35.4085C228.271 35.4085 228.285 35.4932 228.285 35.5709V36.637C228.288 36.7161 228.268 36.7943 228.229 36.863C228.204 36.9288 228.16 36.9854 228.102 37.0254L227.481 37.3855C227.264 37.5278 227.091 37.7269 226.98 37.961C226.869 38.1951 226.825 38.4552 226.852 38.7128V41.297C226.853 41.3773 226.836 41.4569 226.803 41.53C226.773 41.5951 226.727 41.6511 226.669 41.6924L225.807 42.1866C225.789 42.2016 225.767 42.2097 225.744 42.2097C225.72 42.2097 225.698 42.2016 225.68 42.1866C225.66 42.1635 225.645 42.1366 225.635 42.1075C225.625 42.0784 225.621 42.0477 225.624 42.0172V37.1172C225.626 37.0363 225.645 36.9569 225.68 36.8842C225.705 36.8203 225.75 36.7659 225.807 36.7288L226.598 36.2699C226.654 36.2699 226.697 36.2699 226.732 36.2699C226.752 36.293 226.768 36.3199 226.777 36.349C226.787 36.3781 226.791 36.4088 226.789 36.4393V36.7147C226.889 36.5026 227.015 36.3034 227.163 36.1216C227.308 35.9381 227.488 35.7846 227.692 35.6698L228.102 35.4085Z" fill="#455A64"/>
<path d="M230.969 40.951C230.953 41.0209 230.932 41.0893 230.905 41.1558C230.878 41.2225 230.832 41.2793 230.771 41.3182L229.881 41.8336C229.865 41.848 229.843 41.8559 229.821 41.8559C229.799 41.8559 229.778 41.848 229.761 41.8336C229.726 41.7898 229.709 41.7344 229.712 41.6783C229.712 41.6783 229.712 41.6288 229.712 41.6006L230.234 39.4189L228.865 35.3026C228.861 35.2792 228.861 35.2554 228.865 35.232C228.865 35.1616 228.879 35.092 228.907 35.0273C228.933 34.9701 228.975 34.9213 229.027 34.886L229.917 34.3706C229.935 34.3537 229.959 34.3444 229.984 34.3444C230.009 34.3444 230.033 34.3537 230.051 34.3706C230.081 34.4114 230.105 34.4566 230.121 34.5048L230.877 36.7994L231.625 33.6293C231.64 33.5584 231.664 33.4896 231.696 33.4245C231.72 33.3585 231.765 33.3017 231.823 33.2621L232.727 32.7467C232.742 32.7328 232.762 32.7251 232.783 32.7251C232.804 32.7251 232.824 32.7328 232.84 32.7467C232.858 32.7678 232.872 32.7925 232.881 32.8192C232.889 32.846 232.892 32.8741 232.889 32.902C232.893 32.9278 232.893 32.9539 232.889 32.9797L230.969 40.951Z" fill="#455A64"/>
<path d="M252.75 55.5027L253.365 56.3712C253.382 56.3969 253.407 56.4158 253.437 56.4248C253.467 56.4338 253.498 56.4323 253.527 56.4206L254.565 56.0181C254.727 55.9546 254.826 56.1594 254.734 56.3641L254.127 57.6632C254.097 57.7428 254.097 57.8308 254.127 57.9104L254.48 59.0471C254.537 59.2307 254.388 59.4778 254.233 59.4707L253.245 59.4072C253.207 59.4072 253.171 59.4169 253.139 59.4355C253.106 59.4541 253.08 59.4809 253.061 59.5131L252.242 60.6145C252.108 60.7911 251.924 60.7416 251.917 60.5298V59.1883C251.92 59.1523 251.913 59.1161 251.897 59.0837C251.881 59.0513 251.856 59.024 251.825 59.0048L250.971 58.5529C250.837 58.4823 250.865 58.1998 251.02 58.0798L252.009 57.3102C252.072 57.2547 252.117 57.1806 252.136 57.0984L252.426 55.6863C252.44 55.4886 252.651 55.3686 252.75 55.5027Z" fill="#F28F8F"/>
<path d="M258.773 55.1638C258.671 54.4652 258.366 53.812 257.895 53.2858C257.424 52.7597 256.808 52.384 256.125 52.2055C254.148 51.7042 252.75 53.0598 251.727 54.1895C251.458 54.4931 252.037 54.606 252.256 54.3942C253.329 53.3563 255.44 52.2761 256.937 53.547C258.434 54.8179 258.032 56.7736 257.573 58.2351C257.135 59.615 256.27 60.8199 255.102 61.6754C253.934 62.531 252.525 62.9927 251.077 62.9939C243.946 62.8316 250.06 51.8595 254.155 51.0828C254.487 51.0193 254.657 50.5604 254.198 50.518C252.08 50.3062 250.78 51.9795 249.637 53.2504C248.378 54.6061 247.446 56.2313 246.911 58.0021C245.972 61.2782 248.613 65.1403 253.004 63.7C256.852 62.4362 259.543 58.8847 258.773 55.1638Z" fill="#F28F8F"/>
<path d="M208.269 93.9473C208.167 93.2486 207.862 92.5954 207.391 92.0693C206.92 91.5432 206.304 91.1674 205.621 90.9889C203.644 90.4876 202.246 91.8362 201.223 92.9729C200.954 93.2695 201.533 93.3825 201.752 93.1777C202.825 92.1398 204.936 91.0595 206.433 92.3304C207.93 93.6013 207.528 95.5571 207.069 97.0186C206.631 98.3985 205.766 99.6034 204.598 100.459C203.43 101.314 202.021 101.776 200.573 101.777C193.442 101.615 199.556 90.643 203.651 89.8663C203.983 89.8028 204.153 89.3438 203.694 89.2944C201.576 89.0897 200.277 90.763 199.133 92.0339C197.873 93.3885 196.94 95.0141 196.407 96.7856C195.468 100.055 198.109 103.924 202.501 102.483C206.349 101.22 209.039 97.6611 208.269 93.9473Z" fill="#F28F8F"/>
<path d="M220.894 135.788L257.079 156.574L308.882 126.666L272.697 105.88L220.894 135.788Z" fill="#455A64"/>
<path d="M257.411 155.331L222.242 135.011C222.962 132.945 222.911 130.528 222.087 127.76L257.051 147.897C257.051 147.897 257.608 149.683 257.411 155.331Z" fill="#F5F5F5"/>
<path d="M255.638 145.63C256.414 146.138 257.06 146.822 257.523 147.625C257.987 148.428 258.255 149.329 258.307 150.255V155.656C258.307 157.358 257.107 158.05 255.638 157.202L220.865 137.129V135.788L255.264 155.557C256.154 156.066 256.867 155.656 256.867 154.632V149.627C256.837 149.07 256.677 148.529 256.398 148.047C256.12 147.565 255.731 147.155 255.264 146.852L220.893 127.082V125.564L255.638 145.63Z" fill="#263238"/>
<path d="M220.894 125.564L272.697 95.6559L307.463 115.722C308.24 116.229 308.886 116.912 309.35 117.715C309.814 118.519 310.081 119.42 310.131 120.347V125.755C310.167 126.086 310.112 126.42 309.975 126.723C309.837 127.026 309.62 127.287 309.348 127.478L257.552 157.386C257.822 157.193 258.036 156.932 258.173 156.629C258.309 156.327 258.363 155.993 258.328 155.663V150.255C258.279 149.328 258.011 148.427 257.548 147.623C257.084 146.819 256.437 146.137 255.66 145.63L220.894 125.564Z" fill="#455A64"/>
<path d="M257.552 147.621C258.035 148.417 258.305 149.324 258.335 150.255V155.663C258.37 155.993 258.316 156.327 258.18 156.629C258.043 156.932 257.829 157.193 257.559 157.386L309.355 127.478C309.627 127.287 309.844 127.026 309.982 126.723C310.119 126.42 310.174 126.086 310.139 125.755V120.347C310.107 119.418 309.838 118.514 309.355 117.72L257.552 147.621Z" fill="#37474F"/>
<path d="M232.593 123.312L261.4 139.834L308.988 112.361L280.181 95.8395L232.593 123.312Z" fill="#65BDC0"/>
<path opacity="0.35" d="M232.593 123.312L261.4 139.834L308.988 112.361L280.181 95.8395L232.593 123.312Z" fill="black"/>
<path d="M261.725 138.577L233.934 122.535C234.664 120.464 234.615 118.047 233.786 115.284L261.4 131.156C261.4 131.156 261.922 132.907 261.725 138.577Z" fill="#EBEBEB"/>
<path d="M261.725 138.577L233.934 122.535C234.664 120.464 234.615 118.047 233.786 115.284L261.4 131.156C261.4 131.156 261.922 132.907 261.725 138.577Z" fill="#F5F5F5"/>
<path d="M259.981 128.897C260.759 129.402 261.406 130.085 261.87 130.889C262.334 131.693 262.601 132.595 262.649 133.521V138.923C262.649 140.624 261.456 141.316 259.981 140.462L232.593 124.653V123.312L259.613 138.845C260.496 139.353 261.209 138.937 261.209 137.92V132.914C261.18 132.358 261.019 131.817 260.741 131.335C260.462 130.852 260.073 130.443 259.606 130.139L232.614 114.606V113.088L259.981 128.897Z" fill="#65BDC0"/>
<path opacity="0.25" d="M259.981 128.897C260.759 129.402 261.406 130.085 261.87 130.889C262.334 131.693 262.601 132.595 262.649 133.521V138.923C262.649 140.624 261.456 141.316 259.981 140.462L232.593 124.653V123.312L259.613 138.845C260.496 139.353 261.209 138.937 261.209 137.92V132.914C261.18 132.358 261.019 131.817 260.741 131.335C260.462 130.852 260.073 130.443 259.606 130.139L232.614 114.606V113.088L259.981 128.897Z" fill="black"/>
<path d="M232.593 113.088L280.181 85.6088L307.568 101.417C308.344 101.925 308.99 102.609 309.453 103.412C309.917 104.215 310.186 105.116 310.237 106.042V111.45C310.272 111.781 310.218 112.116 310.08 112.419C309.943 112.721 309.726 112.982 309.454 113.173L261.866 140.653C262.137 140.459 262.353 140.197 262.49 139.893C262.628 139.589 262.683 139.255 262.649 138.923V133.514C262.599 132.588 262.331 131.687 261.868 130.883C261.404 130.08 260.758 129.397 259.981 128.89L232.593 113.088Z" fill="#65BDC0"/>
<path opacity="0.15" d="M261.873 130.888C262.35 131.683 262.618 132.587 262.649 133.514V138.923C262.683 139.255 262.628 139.589 262.49 139.893C262.353 140.197 262.137 140.459 261.866 140.653L309.454 113.173C309.726 112.982 309.943 112.721 310.08 112.419C310.218 112.116 310.272 111.781 310.237 111.45V106.042C310.203 105.114 309.933 104.21 309.454 103.415L261.873 130.888Z" fill="black"/>
<path d="M263.108 187.196V188.396C263.098 188.602 263.039 188.803 262.936 188.983C262.833 189.162 262.689 189.314 262.515 189.427L195.906 227.885C195.722 227.976 195.519 228.023 195.313 228.023C195.108 228.023 194.905 227.976 194.72 227.885L147.005 200.349C146.832 200.237 146.688 200.085 146.585 199.905C146.481 199.726 146.422 199.525 146.412 199.318V198.125C146.422 197.919 146.481 197.718 146.585 197.538C146.688 197.359 146.832 197.207 147.005 197.094L213.614 158.636C213.798 158.542 214.001 158.492 214.207 158.492C214.413 158.492 214.617 158.542 214.8 158.636L262.515 186.172C262.688 186.283 262.832 186.434 262.935 186.612C263.038 186.79 263.098 186.99 263.108 187.196Z" fill="#65BDC0"/>
<path opacity="0.4" d="M146.906 197.137C146.666 197.327 146.687 197.596 146.991 197.765L194.706 225.301C194.887 225.401 195.092 225.449 195.299 225.442V228.055C195.093 228.057 194.889 228.009 194.706 227.914L146.991 200.378C146.818 200.265 146.673 200.113 146.57 199.934C146.467 199.754 146.408 199.553 146.398 199.347V198.153C146.402 197.957 146.449 197.764 146.537 197.588C146.625 197.412 146.751 197.258 146.906 197.137Z" fill="white"/>
<path opacity="0.15" d="M262.614 186.242L262.664 186.285L262.748 186.369C262.906 186.551 263.009 186.774 263.045 187.012C263.052 187.059 263.052 187.106 263.045 187.153V188.353C263.032 188.559 262.972 188.759 262.869 188.938C262.766 189.117 262.623 189.27 262.452 189.384L195.907 227.885C195.724 227.981 195.52 228.029 195.313 228.026V225.456C195.521 225.466 195.726 225.417 195.907 225.315L262.523 186.857C262.621 186.808 262.699 186.725 262.741 186.624C262.762 186.569 262.767 186.508 262.755 186.451C262.742 186.393 262.713 186.34 262.671 186.299C262.656 186.277 262.637 186.257 262.614 186.242Z" fill="black"/>
<path d="M245.048 169.262C245.048 168.817 244.779 168.372 244.059 167.956C243.412 167.593 242.683 167.399 241.941 167.391H241.757C239.901 167.391 237.966 168.252 236.321 168.492H236.25C233.941 168.81 232.72 168.09 231.59 167.977C231.407 167.967 231.223 167.967 231.04 167.977C230.785 167.977 230.538 167.977 230.263 167.977C229.261 168.05 228.254 168.029 227.255 167.913C226.457 167.829 225.843 167.786 225.426 167.779H225.278C224.813 167.733 224.344 167.824 223.93 168.04L221.261 169.587V170.469L241.256 182.02L243.925 180.474C244.077 180.405 244.203 180.288 244.284 180.142C244.366 179.996 244.398 179.828 244.377 179.662V178.786C244.362 178.401 244.289 178.02 244.158 177.657C244.09 177.44 244.038 177.218 244.003 176.993C244.045 176.786 244.074 176.576 244.087 176.365C244.087 176.259 244.087 175.659 244.087 175.461C244.088 175.355 244.071 175.251 244.038 175.15C243.911 174.698 243.282 174.225 243.078 173.548C243.101 173.466 243.129 173.386 243.162 173.308C243.579 172.347 245.076 171.189 245.076 170.151C245.048 170.017 245.048 169.452 245.048 169.262ZM240.938 171.818C240.487 172.076 239.999 172.264 239.491 172.376C238.588 172.625 237.626 172.55 236.773 172.164C236.574 172.054 236.408 171.893 236.293 171.698C236.541 171.25 236.917 170.886 237.373 170.653C238.479 170.015 239.785 169.818 241.03 170.102C241.205 170.149 241.374 170.217 241.531 170.307C241.73 170.416 241.896 170.577 242.012 170.773C241.776 171.218 241.412 171.582 240.967 171.818H240.938Z" fill="#263238"/>
<path d="M223.93 168.04L221.261 169.587L241.256 181.131L243.925 179.591C244.264 179.394 244.631 179.125 244.158 177.657C243.685 176.188 244.25 175.821 244.038 175.15C243.826 174.48 242.576 173.774 243.162 172.418C243.748 171.062 246.53 169.361 244.087 167.949C243.44 167.586 242.712 167.392 241.969 167.384H241.786C239.929 167.384 237.994 168.245 236.349 168.485H236.278C233.97 168.803 232.748 168.083 231.619 167.97C231.435 167.96 231.251 167.96 231.068 167.97C230.814 167.97 230.567 167.97 230.291 167.97C229.289 168.043 228.282 168.021 227.283 167.906C226.486 167.822 225.871 167.779 225.455 167.772H225.278C224.812 167.729 224.344 167.822 223.93 168.04ZM240.423 178.391C240.587 178.291 240.771 178.23 240.962 178.212C241.153 178.195 241.346 178.223 241.524 178.292C241.786 178.448 241.708 178.73 241.362 178.935C241.199 179.032 241.015 179.091 240.825 179.107C240.636 179.123 240.445 179.096 240.268 179.027C239.999 178.878 240.105 178.631 240.423 178.398V178.391ZM237.401 169.756C238.509 169.122 239.813 168.925 241.058 169.205C241.234 169.252 241.402 169.321 241.56 169.41C242.541 169.982 242.266 171.055 240.967 171.818C240.514 172.071 240.026 172.256 239.519 172.369C238.616 172.618 237.655 172.543 236.801 172.157C235.82 171.571 236.088 170.519 237.401 169.763V169.756ZM224.996 169.481C225.159 169.383 225.343 169.324 225.532 169.308C225.722 169.292 225.913 169.32 226.09 169.389C226.358 169.544 226.288 169.827 225.935 170.024C225.771 170.124 225.586 170.184 225.395 170.2C225.204 170.216 225.011 170.187 224.833 170.116C224.572 169.975 224.65 169.686 224.996 169.488V169.481Z" fill="#37474F"/>
<path d="M197.163 221.128L155.64 197.158C155.536 197.091 155.449 197.001 155.387 196.894C155.324 196.787 155.288 196.667 155.28 196.544V196.078C155.288 195.954 155.324 195.834 155.387 195.727C155.449 195.621 155.536 195.53 155.64 195.463L210.501 163.804C210.61 163.749 210.731 163.721 210.854 163.721C210.976 163.721 211.097 163.749 211.207 163.804L252.73 187.775C252.833 187.844 252.918 187.936 252.98 188.043C253.041 188.151 253.076 188.272 253.083 188.396V188.855C253.075 188.977 253.039 189.097 252.978 189.203C252.917 189.31 252.832 189.401 252.73 189.469L197.869 221.143C197.76 221.198 197.638 221.226 197.515 221.224C197.391 221.222 197.271 221.189 197.163 221.128Z" fill="#F5F5F5"/>
<path d="M155.548 195.527C155.45 195.64 155.478 195.781 155.64 195.873L197.163 219.879C197.271 219.937 197.393 219.966 197.516 219.963V221.241C197.393 221.247 197.27 221.218 197.163 221.157L155.64 197.186C155.536 197.12 155.449 197.03 155.388 196.923C155.326 196.816 155.292 196.695 155.287 196.572V196.106C155.297 195.887 155.39 195.679 155.548 195.527Z" fill="#FAFAFA"/>
<path d="M252.814 187.81L252.913 187.909L252.955 187.965C252.994 188.026 253.027 188.089 253.054 188.156C253.069 188.197 253.081 188.24 253.089 188.283C253.093 188.313 253.093 188.344 253.089 188.375V188.834C253.084 188.957 253.048 189.077 252.987 189.183C252.926 189.29 252.84 189.381 252.736 189.448L197.876 221.121C197.766 221.181 197.642 221.21 197.516 221.206V219.935C197.641 219.937 197.765 219.908 197.876 219.85L252.736 188.177C252.899 188.078 252.927 187.93 252.814 187.81Z" fill="#E0E0E0"/>
<path d="M207.048 170.914L213.72 174.713L207.048 178.561L200.375 174.769L207.048 170.914Z" fill="#FAFAFA"/>
<path d="M207.048 171.232L200.926 174.762L207.048 178.243L213.169 174.713L207.048 171.232ZM200.143 174.903C200.132 174.859 200.132 174.813 200.143 174.769C200.142 174.721 200.154 174.673 200.178 174.631C200.201 174.589 200.235 174.554 200.277 174.529L206.949 170.681C206.99 170.657 207.036 170.644 207.083 170.644C207.13 170.644 207.177 170.657 207.217 170.681L213.889 174.472C213.93 174.498 213.964 174.533 213.987 174.575C214.011 174.617 214.023 174.664 214.023 174.713C214.023 174.761 214.011 174.808 213.987 174.85C213.964 174.892 213.93 174.927 213.889 174.953L207.217 178.801C207.177 178.825 207.13 178.838 207.083 178.838C207.036 178.838 206.99 178.825 206.949 178.801L200.277 175.002C200.221 174.987 200.173 174.952 200.143 174.903Z" fill="#455A64"/>
<path d="M216.805 176.774L216.325 177.05C216.267 177.068 216.216 177.105 216.18 177.155C216.144 177.204 216.125 177.264 216.125 177.325C216.125 177.386 216.144 177.446 216.18 177.495C216.216 177.545 216.267 177.581 216.325 177.6L239.83 191.171C239.977 191.244 240.138 191.282 240.303 191.282C240.467 191.282 240.629 191.244 240.776 191.171L241.263 190.888C241.319 190.868 241.367 190.831 241.401 190.782C241.435 190.734 241.453 190.676 241.453 190.616C241.453 190.557 241.435 190.499 241.401 190.451C241.367 190.402 241.319 190.365 241.263 190.345L217.758 176.774C217.611 176.697 217.448 176.657 217.282 176.657C217.116 176.657 216.952 176.697 216.805 176.774Z" fill="#E0E0E0"/>
<path d="M213.904 178.455L213.423 178.73C213.162 178.885 213.162 179.132 213.423 179.281L236.921 192.851C237.069 192.924 237.232 192.962 237.397 192.962C237.563 192.962 237.726 192.924 237.874 192.851L238.354 192.569C238.41 192.548 238.458 192.511 238.492 192.463C238.526 192.414 238.544 192.356 238.544 192.297C238.544 192.237 238.526 192.18 238.492 192.131C238.458 192.082 238.41 192.045 238.354 192.025L214.85 178.455C214.703 178.381 214.541 178.343 214.377 178.343C214.212 178.343 214.051 178.381 213.904 178.455Z" fill="#E0E0E0"/>
<path d="M211.009 180.128L210.521 180.403C210.463 180.422 210.413 180.459 210.377 180.508C210.341 180.558 210.321 180.618 210.321 180.679C210.321 180.74 210.341 180.799 210.377 180.849C210.413 180.898 210.463 180.935 210.521 180.954L234.026 194.524C234.173 194.598 234.335 194.636 234.499 194.636C234.663 194.636 234.825 194.598 234.972 194.524L235.459 194.242C235.515 194.222 235.563 194.185 235.597 194.136C235.631 194.087 235.649 194.029 235.649 193.97C235.649 193.911 235.631 193.853 235.597 193.804C235.563 193.756 235.515 193.719 235.459 193.698L211.955 180.128C211.809 180.051 211.646 180.011 211.482 180.011C211.317 180.011 211.155 180.051 211.009 180.128Z" fill="#E0E0E0"/>
<path d="M205.346 175.849L205.862 173.774L207.408 173.646L207.118 174.826L215.626 174.127L215.407 175.016L205.346 175.849Z" fill="#65BDC0"/>
<path d="M194.819 177.975L201.491 181.773L194.819 185.621L188.154 181.823L194.819 177.975Z" fill="#FAFAFA"/>
<path d="M194.819 178.292L188.705 181.823L194.819 185.303L200.94 181.773L194.819 178.292ZM187.914 181.964C187.891 181.923 187.879 181.876 187.878 181.83C187.878 181.781 187.89 181.734 187.913 181.692C187.937 181.649 187.971 181.614 188.013 181.59L194.685 177.742C194.725 177.717 194.772 177.704 194.819 177.704C194.866 177.704 194.913 177.717 194.953 177.742L201.625 181.533C201.668 181.557 201.703 181.592 201.728 181.634C201.752 181.677 201.766 181.724 201.766 181.773C201.767 181.821 201.754 181.868 201.729 181.909C201.704 181.951 201.668 181.984 201.625 182.006L194.96 185.861C194.918 185.885 194.871 185.898 194.822 185.898C194.774 185.898 194.727 185.885 194.685 185.861L188.02 182.063C187.976 182.039 187.94 182.005 187.914 181.964Z" fill="#455A64"/>
<path d="M204.591 183.835L204.11 184.11C203.842 184.258 203.842 184.505 204.11 184.661L227.608 198.231C227.755 198.304 227.917 198.343 228.081 198.343C228.245 198.343 228.407 198.304 228.554 198.231L229.041 197.949C229.097 197.928 229.145 197.891 229.179 197.843C229.213 197.794 229.231 197.736 229.231 197.677C229.231 197.618 229.213 197.56 229.179 197.511C229.145 197.462 229.097 197.425 229.041 197.405L205.508 183.835C205.366 183.763 205.209 183.725 205.049 183.725C204.89 183.725 204.733 183.763 204.591 183.835Z" fill="#E0E0E0"/>
<path d="M201.675 185.515L201.195 185.791C201.137 185.809 201.086 185.846 201.05 185.896C201.014 185.945 200.995 186.005 200.995 186.066C200.995 186.127 201.014 186.187 201.05 186.236C201.086 186.286 201.137 186.322 201.195 186.341L224.699 199.912C224.846 199.985 225.008 200.023 225.172 200.023C225.337 200.023 225.498 199.985 225.645 199.912L226.125 199.629C226.394 199.481 226.394 199.234 226.125 199.085L202.628 185.515C202.481 185.438 202.317 185.398 202.151 185.398C201.986 185.398 201.822 185.438 201.675 185.515Z" fill="#E0E0E0"/>
<path d="M198.78 187.189L198.3 187.464C198.242 187.483 198.191 187.52 198.155 187.569C198.119 187.619 198.1 187.678 198.1 187.739C198.1 187.8 198.119 187.86 198.155 187.909C198.191 187.959 198.242 187.996 198.3 188.015L221.797 201.585C221.945 201.658 222.109 201.696 222.274 201.696C222.439 201.696 222.602 201.658 222.75 201.585L223.23 201.302C223.286 201.282 223.334 201.245 223.368 201.196C223.402 201.148 223.42 201.09 223.42 201.031C223.42 200.971 223.402 200.913 223.368 200.865C223.334 200.816 223.286 200.779 223.23 200.759L199.726 187.189C199.58 187.112 199.418 187.072 199.253 187.072C199.088 187.072 198.926 187.112 198.78 187.189Z" fill="#E0E0E0"/>
<path d="M193.125 182.91L193.64 180.834L195.186 180.707L194.89 181.886L203.405 181.187L203.179 182.077L193.125 182.91Z" fill="#65BDC0"/>
<path d="M182.597 185.353L176.476 188.883L182.597 192.364L188.711 188.834L182.597 185.353ZM175.692 189.024C175.664 188.982 175.649 188.933 175.649 188.883C175.65 188.835 175.663 188.788 175.688 188.747C175.713 188.706 175.748 188.673 175.791 188.65L182.456 184.795C182.498 184.772 182.545 184.76 182.593 184.76C182.642 184.76 182.689 184.772 182.731 184.795L189.396 188.594C189.439 188.618 189.474 188.653 189.499 188.695C189.523 188.737 189.537 188.785 189.537 188.834C189.537 188.881 189.524 188.927 189.501 188.968C189.477 189.008 189.444 189.042 189.403 189.067L182.731 192.915C182.689 192.937 182.642 192.949 182.593 192.949C182.545 192.949 182.498 192.937 182.456 192.915L175.791 189.116C175.75 189.094 175.716 189.063 175.692 189.024Z" fill="#455A64"/>
<path d="M192.362 190.888L191.882 191.171C191.826 191.191 191.778 191.228 191.744 191.277C191.71 191.325 191.692 191.383 191.692 191.442C191.692 191.502 191.71 191.56 191.744 191.608C191.778 191.657 191.826 191.694 191.882 191.714L215.393 205.285C215.539 205.361 215.702 205.401 215.866 205.401C216.031 205.401 216.194 205.361 216.339 205.285L216.82 205.009C216.878 204.99 216.928 204.954 216.964 204.904C217 204.855 217.02 204.795 217.02 204.734C217.02 204.673 217 204.613 216.964 204.564C216.928 204.514 216.878 204.477 216.82 204.459L193.315 190.888C193.167 190.814 193.004 190.775 192.839 190.775C192.673 190.775 192.51 190.814 192.362 190.888Z" fill="#E0E0E0"/>
<path d="M189.453 192.576L188.966 192.851C188.91 192.871 188.862 192.908 188.828 192.957C188.794 193.006 188.776 193.064 188.776 193.123C188.776 193.182 188.794 193.24 188.828 193.289C188.862 193.337 188.91 193.374 188.966 193.395L212.47 206.972C212.617 207.045 212.779 207.084 212.943 207.084C213.108 207.084 213.27 207.045 213.416 206.972L213.904 206.69C213.959 206.669 214.007 206.632 214.041 206.584C214.075 206.535 214.094 206.477 214.094 206.418C214.094 206.359 214.075 206.301 214.041 206.252C214.007 206.203 213.959 206.166 213.904 206.146L190.399 192.576C190.253 192.499 190.091 192.459 189.926 192.459C189.761 192.459 189.599 192.499 189.453 192.576Z" fill="#E0E0E0"/>
<path d="M186.551 194.242L186.071 194.524C186.015 194.545 185.967 194.582 185.933 194.63C185.899 194.679 185.881 194.737 185.881 194.796C185.881 194.856 185.899 194.913 185.933 194.962C185.967 195.011 186.015 195.048 186.071 195.068L209.575 208.638C209.721 208.715 209.883 208.755 210.048 208.755C210.213 208.755 210.375 208.715 210.521 208.638L211.009 208.363C211.067 208.344 211.117 208.307 211.153 208.258C211.189 208.208 211.209 208.149 211.209 208.088C211.209 208.026 211.189 207.967 211.153 207.917C211.117 207.868 211.067 207.831 211.009 207.812L187.504 194.242C187.356 194.169 187.193 194.131 187.028 194.131C186.862 194.131 186.699 194.169 186.551 194.242Z" fill="#E0E0E0"/>
<path d="M180.733 190.253L181.249 188.177L182.795 188.05L182.506 189.236L191.014 188.53L190.795 189.427L180.733 190.253Z" fill="#65BDC0"/>
<path d="M170.368 192.406L164.247 195.936L170.368 199.417L176.49 195.887L170.368 192.406ZM163.463 196.078C163.452 196.034 163.452 195.988 163.463 195.944C163.462 195.895 163.475 195.848 163.498 195.806C163.522 195.763 163.556 195.728 163.597 195.703L170.269 191.856C170.31 191.831 170.356 191.818 170.404 191.818C170.451 191.818 170.497 191.831 170.538 191.856L177.21 195.654C177.251 195.677 177.286 195.711 177.309 195.752C177.333 195.793 177.345 195.84 177.344 195.887C177.345 195.935 177.333 195.983 177.309 196.025C177.286 196.067 177.251 196.102 177.21 196.127L170.538 199.975C170.497 199.999 170.451 200.012 170.404 200.012C170.356 200.012 170.31 199.999 170.269 199.975L163.597 196.184C163.543 196.163 163.496 196.126 163.463 196.078Z" fill="#455A64"/>
<path d="M180.14 197.949L179.653 198.231C179.597 198.252 179.549 198.289 179.515 198.337C179.481 198.386 179.463 198.444 179.463 198.503C179.463 198.562 179.481 198.62 179.515 198.669C179.549 198.717 179.597 198.754 179.653 198.775L203.157 212.345C203.303 212.422 203.466 212.462 203.63 212.462C203.795 212.462 203.958 212.422 204.103 212.345L204.591 212.07C204.852 211.914 204.852 211.667 204.591 211.519L181.086 197.949C180.939 197.875 180.777 197.837 180.613 197.837C180.449 197.837 180.287 197.875 180.14 197.949Z" fill="#E0E0E0"/>
<path d="M177.224 199.629L176.744 199.912C176.688 199.932 176.64 199.969 176.606 200.018C176.572 200.066 176.554 200.124 176.554 200.183C176.554 200.243 176.572 200.301 176.606 200.349C176.64 200.398 176.688 200.435 176.744 200.455L200.242 214.026C200.389 214.102 200.552 214.142 200.718 214.142C200.884 214.142 201.048 214.102 201.195 214.026L201.675 213.75C201.733 213.731 201.784 213.694 201.82 213.645C201.856 213.596 201.875 213.536 201.875 213.475C201.875 213.414 201.856 213.354 201.82 213.305C201.784 213.255 201.733 213.218 201.675 213.199L178.17 199.629C178.023 199.556 177.862 199.518 177.697 199.518C177.533 199.518 177.371 199.556 177.224 199.629Z" fill="#E0E0E0"/>
<path d="M174.329 201.302L173.842 201.585C173.787 201.605 173.739 201.642 173.705 201.691C173.671 201.739 173.652 201.797 173.652 201.857C173.652 201.916 173.671 201.974 173.705 202.023C173.739 202.071 173.787 202.108 173.842 202.129L197.347 215.699C197.493 215.776 197.655 215.816 197.82 215.816C197.985 215.816 198.147 215.776 198.293 215.699L198.78 215.423C198.838 215.405 198.889 215.368 198.925 215.318C198.961 215.269 198.98 215.209 198.98 215.148C198.98 215.087 198.961 215.027 198.925 214.978C198.889 214.928 198.838 214.892 198.78 214.873L175.276 201.302C175.129 201.229 174.967 201.191 174.803 201.191C174.638 201.191 174.476 201.229 174.329 201.302Z" fill="#E0E0E0"/>
<path d="M168.349 197.603L168.865 195.527L170.411 195.4L170.114 196.579L178.629 195.88L178.403 196.77L168.349 197.603Z" fill="#65BDC0"/>
<path d="M237.648 180.255L234.69 177.925C234.627 177.849 234.57 177.769 234.52 177.685L234.605 177.6L235.311 176.93L237.606 174.811C237.673 174.758 237.728 174.691 237.766 174.614C237.804 174.537 237.824 174.452 237.824 174.367V173.477C237.811 173.255 237.718 173.044 237.563 172.884C237.304 172.555 237.138 172.162 237.083 171.747C237.145 171.349 237.336 170.981 237.627 170.702C237.961 170.434 238.216 170.08 238.367 169.679C238.517 169.278 238.557 168.843 238.481 168.422C238.571 167.878 238.473 167.321 238.203 166.841C237.934 166.361 237.509 165.987 236.998 165.781C236.297 165.427 235.524 165.241 234.739 165.237H234.64C233.397 165.212 232.187 165.642 231.237 166.445C230.589 166.918 229.826 167.208 229.027 167.285C228.354 167.394 227.667 167.394 226.994 167.285C226.839 167.259 226.684 167.243 226.528 167.235H226.478C226.309 167.217 226.138 167.235 225.976 167.287C225.814 167.339 225.665 167.425 225.539 167.539L223.562 169.375L222.856 170.046H222.821C222.583 170.218 222.308 170.33 222.017 170.371C221.727 170.413 221.431 170.384 221.155 170.286C220.067 169.827 219.552 169.58 217.78 168.768C217.265 168.543 216.71 168.43 216.149 168.436C215.317 168.449 214.501 168.654 213.762 169.036V169.925L238.227 184.047C238.507 183.699 238.67 183.271 238.693 182.825V182.02C238.656 181.668 238.544 181.328 238.363 181.023C238.183 180.719 237.939 180.457 237.648 180.255ZM232.6 167.92C233.04 167.561 233.566 167.321 234.125 167.222C234.685 167.123 235.261 167.169 235.798 167.355C235.915 167.396 236.028 167.446 236.137 167.504C236.529 167.69 236.838 168.015 237.005 168.415C236.91 168.686 236.747 168.929 236.532 169.121C236.247 169.373 235.913 169.565 235.551 169.685C234.707 169.972 233.784 169.916 232.981 169.53C232.789 169.537 232.6 169.478 232.446 169.361C232.293 169.245 232.184 169.079 232.14 168.892C232.095 168.705 232.116 168.508 232.2 168.335C232.284 168.161 232.425 168.022 232.6 167.941V167.92Z" fill="#37474F"/>
<path d="M213.727 169.128L238.192 183.249C238.855 182.345 238.898 181.406 237.648 180.255L234.69 177.925C234.69 177.925 234.047 177.219 234.605 176.711L235.311 176.04L237.606 173.922C237.606 173.922 238.128 173.555 237.563 172.884C236.999 172.213 236.73 170.632 237.627 169.813C239.039 168.513 238.764 166.713 236.999 165.781C236.298 165.427 235.524 165.241 234.739 165.237H234.64C233.397 165.212 232.187 165.642 231.237 166.445C230.589 166.918 229.826 167.208 229.027 167.285C228.354 167.394 227.667 167.394 226.994 167.285C226.84 167.259 226.684 167.243 226.528 167.235H226.478C226.309 167.217 226.138 167.235 225.976 167.287C225.815 167.339 225.666 167.425 225.539 167.539L223.562 169.375L222.856 170.046H222.821C222.584 170.218 222.308 170.33 222.017 170.371C221.727 170.413 221.431 170.384 221.155 170.286C220.067 169.827 219.552 169.58 217.78 168.768C217.266 168.543 216.71 168.43 216.149 168.436C215.298 168.471 214.468 168.709 213.727 169.128ZM235.798 166.466C235.915 166.509 236.028 166.561 236.137 166.621C236.383 166.702 236.602 166.85 236.77 167.047C236.938 167.244 237.049 167.484 237.09 167.74C237.13 167.996 237.1 168.258 237.002 168.498C236.904 168.738 236.741 168.946 236.533 169.099C236.247 169.352 235.913 169.544 235.551 169.664C234.707 169.951 233.784 169.895 232.981 169.509C232.736 169.426 232.518 169.278 232.352 169.08C232.185 168.881 232.076 168.641 232.037 168.386C231.998 168.13 232.029 167.868 232.129 167.629C232.228 167.39 232.391 167.183 232.6 167.031C233.04 166.672 233.566 166.431 234.126 166.332C234.685 166.233 235.261 166.279 235.798 166.466Z" fill="#455A64"/>
<path d="M304.356 148.899L303.65 149.309L302.838 149.81L273.459 167.631C273.699 167.052 273.459 165.901 272.859 164.807C272.153 163.529 271.065 162.54 270.303 162.519L299.463 144.825L301.023 143.879C300.049 144.557 303.339 149.556 304.356 148.899Z" fill="#65BDC0"/>
<path d="M300.925 143.95C301.355 143.667 302.132 144.465 302.88 145.489C303.883 146.838 304.716 148.645 304.144 149.019L303.029 149.725L302.626 149.958C303.198 149.591 302.365 147.784 301.37 146.428C300.663 145.447 299.83 144.705 299.393 144.903L300.925 143.95Z" fill="#EBEBEB"/>
<path d="M299.717 144.67C300.72 144.02 304.003 149.048 303.007 149.704L301.496 150.622C302.492 149.972 299.209 144.938 298.206 145.595L299.717 144.67Z" fill="#65BDC0"/>
<path d="M296.766 146.47L298.262 145.56C299.237 144.91 302.456 149.739 301.63 150.502C301.617 150.519 301.6 150.534 301.581 150.544L300.07 151.448C301.051 150.813 297.754 145.814 296.766 146.47Z" fill="#EBEBEB"/>
<path d="M270.303 162.519V162.526L270.31 162.519H270.303L265.869 167.8H265.876L270.303 162.519Z" fill="#FAFAFA"/>
<path d="M265.869 167.8L264.796 169.078L265.869 167.8Z" fill="#E0E0E0"/>
<path d="M272.682 163.846C272.408 163.466 272.053 163.149 271.643 162.92C271.233 162.691 270.778 162.554 270.31 162.519L265.876 167.8C266.06 167.823 266.231 167.91 266.356 168.047C266.9 168.753 266.857 169.099 266.857 169.099L273.466 167.631C274.094 166.628 273.621 164.99 272.682 163.846Z" fill="#FFA8A7"/>
<path d="M266.349 168.04C266.294 167.964 266.222 167.903 266.138 167.86C266.055 167.817 265.963 167.794 265.869 167.793L264.817 169.078C264.793 169.102 264.774 169.13 264.762 169.161C264.749 169.192 264.742 169.225 264.742 169.258C264.742 169.292 264.749 169.325 264.762 169.356C264.774 169.387 264.793 169.415 264.817 169.438C264.847 169.468 264.884 169.489 264.925 169.5C264.966 169.512 265.009 169.512 265.05 169.502L266.843 169.099C266.843 169.099 266.935 168.746 266.349 168.04Z" fill="#37474F"/>
<path d="M310.28 145.284L304.356 148.906C304.323 148.926 304.287 148.941 304.25 148.949C304.652 148.461 303.862 146.774 302.908 145.489C302.202 144.55 301.405 143.83 300.953 143.95L307.152 140.172C308.507 139.191 310.364 141.747 310.76 143.597C310.86 143.894 310.868 144.214 310.782 144.515C310.696 144.817 310.521 145.085 310.28 145.284Z" fill="#F28F8F"/>
<path opacity="0.15" d="M310.28 145.284C310.516 145.081 310.686 144.812 310.767 144.51C310.847 144.209 310.835 143.891 310.731 143.597C310.731 143.512 310.689 143.42 310.661 143.328L273.635 165.689L264.817 169.452C264.847 169.482 264.884 169.503 264.925 169.515C264.966 169.526 265.009 169.526 265.05 169.516L266.843 169.114L273.452 167.645L310.28 145.284Z" fill="black"/>
<path d="M47.2398 161.841L38.1177 179.641C37.7999 180.19 37.5959 180.797 37.5178 181.426C37.4398 182.056 37.4893 182.695 37.6634 183.304C37.8376 183.914 38.1327 184.483 38.5313 184.976C38.9299 185.469 39.4238 185.878 39.9835 186.176C40.5432 186.474 41.1573 186.657 41.789 186.713C42.4208 186.769 43.0574 186.697 43.6608 186.501C44.2642 186.306 44.822 185.991 45.3011 185.575C45.7801 185.16 46.1705 184.652 46.4491 184.082L55.6277 166.183C56.5174 164.468 55.3594 162.103 53.0365 160.909C50.7136 159.716 48.1224 160.126 47.2398 161.841Z" fill="#455A64"/>
<path d="M118.516 124.583L136.315 133.705C137.415 134.243 138.68 134.332 139.845 133.955C141.009 133.578 141.982 132.764 142.558 131.683C143.134 130.603 143.268 129.342 142.932 128.165C142.596 126.988 141.816 125.987 140.756 125.374L122.858 116.195C121.142 115.305 118.777 116.47 117.577 118.786C116.376 121.102 116.8 123.7 118.516 124.583Z" fill="#455A64"/>
<path d="M133.894 45.6251L133.809 45.5827L101.648 29.0823L101.528 29.0258C92.0177 24.2105 79.3088 25.6227 65.6255 34.4342C38.1389 52.1349 17.1409 92.9588 18.7225 125.614C19.5132 141.895 25.783 153.065 35.2441 157.986L35.3288 158.029L67.5036 174.529L67.6024 174.578C77.12 179.415 89.836 178.003 103.533 169.184C131.02 151.476 152.018 110.66 150.429 77.9976C149.624 61.7231 143.376 50.5533 133.894 45.6251Z" fill="#65BDC0"/>
<path opacity="0.1" d="M66.7833 174.148L35.3498 158.014L35.2581 157.958C25.7899 153.016 19.5343 141.846 18.7435 125.593C18.0375 111.027 21.829 94.851 28.6706 79.8263L60.7677 96.3338C53.9402 111.359 50.1769 127.534 50.883 142.1C51.6455 158.029 57.647 169.064 66.7833 174.148Z" fill="black"/>
<path opacity="0.4" d="M137.874 129.207C156.19 93.5987 154.371 56.1594 133.812 45.5842C113.253 35.0091 81.738 55.3028 63.422 90.9114C45.1059 126.52 46.9244 163.959 67.4837 174.534C88.043 185.11 119.558 164.816 137.874 129.207Z" fill="white"/>
<path d="M80.4807 166.904C64.2415 167.694 61.6432 149.471 61.2549 141.599C59.8428 112.799 79.1604 75.2722 103.399 59.6967C109.57 55.7216 115.593 53.4905 120.81 53.2363C137.05 52.4456 139.655 70.6688 140.036 78.5412C141.448 107.341 122.138 144.868 97.8919 160.479C91.7211 164.454 85.6984 166.685 80.4878 166.939L80.4807 166.904Z" fill="#FAFAFA"/>
<path d="M93.8746 148.102C93.7909 148.103 93.7074 148.091 93.6275 148.066C93.4396 148.011 93.2813 147.883 93.1874 147.711C93.0935 147.539 93.0714 147.337 93.1262 147.148L102.905 114.19C102.932 114.097 102.978 114.011 103.038 113.936C103.099 113.86 103.174 113.798 103.259 113.752C103.344 113.705 103.437 113.676 103.533 113.666C103.629 113.656 103.727 113.665 103.819 113.692C103.912 113.719 103.998 113.765 104.074 113.826C104.149 113.886 104.211 113.961 104.258 114.046C104.304 114.131 104.333 114.224 104.343 114.32C104.353 114.416 104.344 114.514 104.317 114.606L94.5524 147.565C94.507 147.712 94.4179 147.843 94.2969 147.939C94.1759 148.034 94.0286 148.091 93.8746 148.102Z" fill="#65BDC0"/>
<path d="M121.488 105.421C121.329 105.682 121.118 105.908 120.867 106.084L104.543 117.6L78.2074 101.502C77.958 101.35 77.741 101.149 77.569 100.913C77.3969 100.677 77.2731 100.409 77.2046 100.125C77.1361 99.8403 77.1242 99.5454 77.1697 99.2566C77.2151 98.9678 77.317 98.6907 77.4696 98.4413C77.6221 98.1919 77.8222 97.975 78.0586 97.8029C78.295 97.6309 78.5629 97.507 78.8471 97.4385C79.1313 97.37 79.4263 97.3581 79.7151 97.4036C80.0039 97.4491 80.2809 97.551 80.5303 97.7035L104.345 112.262L118.318 102.42C118.738 102.127 119.245 101.988 119.755 102.025C120.266 102.061 120.748 102.273 121.121 102.623C121.494 102.973 121.736 103.44 121.805 103.947C121.875 104.454 121.768 104.969 121.502 105.407L121.488 105.421Z" fill="#37474F"/>
<path d="M103.265 107.228C106.499 105.145 109.274 106.571 109.464 110.412C109.655 114.253 107.177 119.054 103.943 121.137C100.709 123.22 97.9344 121.794 97.7508 117.953C97.5673 114.112 100.031 109.311 103.265 107.228Z" fill="#65BDC0"/>
</g>
<defs>
<clipPath id="clip0_1297_276">
<rect width="338.905" height="245" fill="white" transform="translate(0.0473633)"/>
</clipPath>
</defs>
</svg>
