<svg width="28" height="28" viewBox="0 0 28 28" fill="none" xmlns="http://www.w3.org/2000/svg">
<path d="M14.0001 0.666748C6.64008 0.666748 0.666748 6.64008 0.666748 14.0001C0.666748 21.3601 6.64008 27.3334 14.0001 27.3334C21.3601 27.3334 27.3334 21.3601 27.3334 14.0001C27.3334 6.64008 21.3601 0.666748 14.0001 0.666748ZM14.0001 4.66675C16.2134 4.66675 18.0001 6.45341 18.0001 8.66675C18.0001 10.8801 16.2134 12.6667 14.0001 12.6667C11.7867 12.6667 10.0001 10.8801 10.0001 8.66675C10.0001 6.45341 11.7867 4.66675 14.0001 4.66675ZM14.0001 23.6001C10.6667 23.6001 7.72008 21.8934 6.00008 19.3067C6.04008 16.6534 11.3334 15.2001 14.0001 15.2001C16.6534 15.2001 21.9601 16.6534 22.0001 19.3067C20.2801 21.8934 17.3334 23.6001 14.0001 23.6001Z" fill="#05182E"/>
</svg>
