<svg width="28" height="28" viewBox="0 0 28 28" fill="none" xmlns="http://www.w3.org/2000/svg">
<path d="M14.0001 0.666748C6.64008 0.666748 0.666748 6.64008 0.666748 14.0001C0.666748 21.3601 6.64008 27.3334 14.0001 27.3334C21.3601 27.3334 27.3334 21.3601 27.3334 14.0001C27.3334 6.64008 21.3601 0.666748 14.0001 0.666748ZM7.42675 22.3734C8.00008 21.1734 11.4934 20.0001 14.0001 20.0001C16.5067 20.0001 20.0134 21.1734 20.5734 22.3734C18.7601 23.8134 16.4801 24.6667 14.0001 24.6667C11.5201 24.6667 9.24008 23.8134 7.42675 22.3734ZM22.4801 20.4401C20.5734 18.1201 15.9467 17.3334 14.0001 17.3334C12.0534 17.3334 7.42675 18.1201 5.52008 20.4401C4.16008 18.6534 3.33341 16.4267 3.33341 14.0001C3.33341 8.12008 8.12008 3.33341 14.0001 3.33341C19.8801 3.33341 24.6667 8.12008 24.6667 14.0001C24.6667 16.4267 23.8401 18.6534 22.4801 20.4401ZM14.0001 6.00008C11.4134 6.00008 9.33342 8.08008 9.33342 10.6667C9.33342 13.2534 11.4134 15.3334 14.0001 15.3334C16.5867 15.3334 18.6667 13.2534 18.6667 10.6667C18.6667 8.08008 16.5867 6.00008 14.0001 6.00008ZM14.0001 12.6667C12.8934 12.6667 12.0001 11.7734 12.0001 10.6667C12.0001 9.56008 12.8934 8.66675 14.0001 8.66675C15.1067 8.66675 16.0001 9.56008 16.0001 10.6667C16.0001 11.7734 15.1067 12.6667 14.0001 12.6667Z" fill="#05182E"/>
</svg>
