<svg width="14" height="14" viewBox="0 0 14 14" fill="none" xmlns="http://www.w3.org/2000/svg">
<path d="M12.25 1.75H10.75V1C10.75 0.5875 10.4125 0.25 10 0.25H4C3.5875 0.25 3.25 0.5875 3.25 1V1.75H1.75C0.925 1.75 0.25 2.425 0.25 3.25V4C0.25 5.9125 1.69 7.4725 3.5425 7.705C4.015 8.83 5.0275 9.6775 6.25 9.925V12.25H4C3.5875 12.25 3.25 12.5875 3.25 13C3.25 13.4125 3.5875 13.75 4 13.75H10C10.4125 13.75 10.75 13.4125 10.75 13C10.75 12.5875 10.4125 12.25 10 12.25H7.75V9.925C8.9725 9.6775 9.985 8.83 10.4575 7.705C12.31 7.4725 13.75 5.9125 13.75 4V3.25C13.75 2.425 13.075 1.75 12.25 1.75ZM1.75 4V3.25H3.25V6.115C2.38 5.8 1.75 4.975 1.75 4ZM12.25 4C12.25 4.975 11.62 5.8 10.75 6.115V3.25H12.25V4Z" fill="#65BDC0"/>
</svg>
