<svg width="25" height="25" viewBox="0 0 25 25" fill="none" xmlns="http://www.w3.org/2000/svg">
<path fill-rule="evenodd" clip-rule="evenodd" d="M2.2666 0.266602C1.16203 0.266602 0.266602 1.16203 0.266602 2.2666V22.2666C0.266602 23.3712 1.16203 24.2666 2.2666 24.2666H22.2666C23.3712 24.2666 24.2666 23.3712 24.2666 22.2666V2.2666C24.2666 1.16203 23.3712 0.266602 22.2666 0.266602H2.2666ZM10.9332 6.84997C10.9332 6.15962 11.4928 5.59998 12.1832 5.59998H12.3499C13.0402 5.59998 13.5999 6.15962 13.5999 6.84998V10.9332H17.6832C18.3735 10.9332 18.9332 11.4929 18.9332 12.1832V12.3499C18.9332 13.0403 18.3735 13.5999 17.6832 13.5999H13.5999V17.6833C13.5999 18.3737 13.0402 18.9333 12.3499 18.9333H12.1832C11.4928 18.9333 10.9332 18.3737 10.9332 17.6833V13.5999H6.84985C6.1595 13.5999 5.59985 13.0403 5.59985 12.3499V12.1832C5.59985 11.4929 6.1595 10.9332 6.84985 10.9332H10.9332V6.84997Z" fill="#05182E"/>
</svg>
