<svg width="25" height="25" viewBox="0 0 25 25" fill="none" xmlns="http://www.w3.org/2000/svg">
<path fill-rule="evenodd" clip-rule="evenodd" d="M2.7666 21.7666V2.7666H21.7666V21.7666H2.7666ZM0.266602 2.2666C0.266602 1.16203 1.16203 0.266602 2.2666 0.266602H22.2666C23.3712 0.266602 24.2666 1.16203 24.2666 2.2666V22.2666C24.2666 23.3712 23.3712 24.2666 22.2666 24.2666H2.2666C1.16203 24.2666 0.266602 23.3712 0.266602 22.2666V2.2666ZM10.9333 6.84993C10.9333 6.15957 11.4929 5.59993 12.1833 5.59993H12.3499C13.0403 5.59993 13.5999 6.15958 13.5999 6.84993V10.9333H17.6833C18.3736 10.9333 18.9333 11.4929 18.9333 12.1833V12.3499C18.9333 13.0403 18.3736 13.5999 17.6833 13.5999H13.5999V17.6833C13.5999 18.3736 13.0403 18.9333 12.3499 18.9333H12.1833C11.4929 18.9333 10.9333 18.3736 10.9333 17.6833V13.5999H6.84994C6.15958 13.5999 5.59994 13.0403 5.59994 12.3499V12.1833C5.59994 11.4929 6.15958 10.9333 6.84994 10.9333H10.9333V6.84993Z" fill="#05182E"/>
</svg>
