<svg width="36" height="35" viewBox="0 0 36 35" fill="none" xmlns="http://www.w3.org/2000/svg">
<path d="M18.1259 28.6806C24.3007 28.6806 29.3064 23.6748 29.3064 17.5C29.3064 11.3251 24.3007 6.31944 18.1259 6.31944C11.951 6.31944 6.94531 11.3251 6.94531 17.5C6.94531 23.6748 11.951 28.6806 18.1259 28.6806Z" stroke="#05182E" stroke-miterlimit="10"/>
<path d="M22.2754 10.4217L25.3794 12.0147" stroke="#05182E" stroke-miterlimit="10" stroke-linecap="round" stroke-linejoin="round"/>
<path d="M13.7133 10.4217L10.6094 12.0147" stroke="#05182E" stroke-miterlimit="10" stroke-linecap="round" stroke-linejoin="round"/>
<path d="M12.293 13.6111C13.4273 14.2592 14.5615 14.9074 15.6957 15.5556C14.5615 16.2037 13.4273 16.8519 12.293 17.5" stroke="#05182E" stroke-miterlimit="10" stroke-linecap="round" stroke-linejoin="round"/>
<path d="M23.9594 13.6111C22.8251 14.2592 21.6909 14.9074 20.5566 15.5556C21.6909 16.2037 22.8251 16.8519 23.9594 17.5" stroke="#05182E" stroke-miterlimit="10" stroke-linecap="round" stroke-linejoin="round"/>
<path d="M14.2363 24.7917C14.3678 24.6185 14.7224 20.9028 18.3299 20.9009C21.528 20.8993 21.8439 24.5667 22.0141 24.7917C19.4215 24.7917 16.8289 24.7917 14.2363 24.7917Z" stroke="#05182E" stroke-miterlimit="10" stroke-linecap="round" stroke-linejoin="round"/>
</svg>
