<svg width="16" height="16" viewBox="0 0 16 16" fill="none" xmlns="http://www.w3.org/2000/svg">
<path d="M11.7125 6.67254L7.4675 10.9175C7.175 11.21 6.7025 11.21 6.41 10.9175L4.2875 8.79504C3.995 8.50254 3.995 8.03004 4.2875 7.73754C4.58 7.44504 5.0525 7.44504 5.345 7.73754L6.935 9.32754L10.6475 5.61504C10.94 5.32254 11.4125 5.32254 11.705 5.61504C12.005 5.90754 12.005 6.38004 11.7125 6.67254ZM2 8.00004C2 6.25254 2.765 4.68504 3.965 3.59004L5.1125 4.73754C5.345 4.97004 5.75 4.80504 5.75 4.46754V1.25004C5.75 1.04004 5.585 0.875039 5.375 0.875039H2.1575C1.82 0.875039 1.655 1.28004 1.895 1.51254L2.9 2.52504C1.43 3.89004 0.5 5.83254 0.5 8.00004C0.5 11.5625 2.99 14.5475 6.32 15.3125C6.7925 15.4175 7.25 15.065 7.25 14.5775C7.25 14.225 7.0025 13.925 6.6575 13.8425C3.995 13.235 2 10.85 2 8.00004ZM15.5 8.00004C15.5 4.43754 13.01 1.45254 9.68 0.687539C9.2075 0.582539 8.75 0.935039 8.75 1.42254C8.75 1.77504 8.9975 2.07504 9.3425 2.15754C12.005 2.76504 14 5.15004 14 8.00004C14 9.74754 13.235 11.315 12.035 12.41L10.8875 11.2625C10.655 11.03 10.25 11.195 10.25 11.5325V14.75C10.25 14.96 10.415 15.125 10.625 15.125H13.8425C14.18 15.125 14.345 14.72 14.105 14.4875L13.1 13.475C14.57 12.11 15.5 10.1675 15.5 8.00004Z" fill="#65BDC0"/>
</svg>
