<svg width="20" height="21" viewBox="0 0 20 21" fill="none" xmlns="http://www.w3.org/2000/svg">
<path d="M18.5 11H20V14H18.5V11ZM16 11H17.5V14H16V11ZM15 12.5C15 11.67 14.33 11 13.5 11H12.66L14.84 13.18C14.94 12.97 15 12.74 15 12.5ZM16.96 0.34997H17H16.96ZM16.85 2.72997C17.23 2.34997 17.52 1.88997 17.69 1.37997C17.85 0.87997 17.5 0.36997 16.98 0.35997C16.64 0.36997 16.37 0.60997 16.26 0.93997C16.08 1.48997 15.64 1.92997 15.09 2.10997C14.75 2.21997 14.5 2.49997 14.5 2.84997V2.99997C14.5 3.36997 14.77 3.68997 15.14 3.74997C17.07 4.05997 18.5 5.74997 18.5 7.76997V9.24997C18.5 9.65997 18.84 9.99997 19.25 9.99997C19.66 9.99997 20 9.65997 20 9.24997V7.75997C20 5.53997 18.72 3.61997 16.85 2.72997ZM12.61 6.64997H14.03C15.08 6.64997 16 7.38997 16 8.69997V9.24997C16 9.65997 16.33 9.99997 16.75 9.99997H16.76C17.17 9.99997 17.51 9.66997 17.51 9.24997V8.35997C17.51 6.54997 15.91 5.19997 14.04 5.19997H12.74C11.72 5.19997 10.8 4.46997 10.67 3.44997C10.55 2.49997 11.13 1.74997 11.97 1.51997C12.29 1.42997 12.51 1.13997 12.51 0.79997C12.51 0.30997 12.05 -0.0600303 11.58 0.0799697C10.16 0.48997 9.13 1.80997 9.16 3.35997C9.18 5.20997 10.77 6.64997 12.61 6.64997ZM2.12 3.28997C1.73 2.89997 1.1 2.89997 0.71 3.28997C0.32 3.67997 0.32 4.30997 0.71 4.69997L7 11H1.5C0.67 11 0 11.67 0 12.5C0 13.33 0.67 14 1.5 14H10L16.29 20.29C16.68 20.68 17.31 20.68 17.7 20.29C18.09 19.9 18.09 19.27 17.7 18.88L2.12 3.28997Z" fill="#65BDC0"/>
</svg>
