<svg width="22" height="6" viewBox="0 0 22 6" fill="none" xmlns="http://www.w3.org/2000/svg">
<path d="M2.99992 0.333252C1.53325 0.333252 0.333252 1.53325 0.333252 2.99992C0.333252 4.46659 1.53325 5.66658 2.99992 5.66658C4.46659 5.66658 5.66658 4.46659 5.66658 2.99992C5.66658 1.53325 4.46659 0.333252 2.99992 0.333252ZM18.9999 0.333252C17.5333 0.333252 16.3333 1.53325 16.3333 2.99992C16.3333 4.46659 17.5333 5.66658 18.9999 5.66658C20.4666 5.66658 21.6666 4.46659 21.6666 2.99992C21.6666 1.53325 20.4666 0.333252 18.9999 0.333252ZM10.9999 0.333252C9.53325 0.333252 8.33325 1.53325 8.33325 2.99992C8.33325 4.46659 9.53325 5.66658 10.9999 5.66658C12.4666 5.66658 13.6666 4.46659 13.6666 2.99992C13.6666 1.53325 12.4666 0.333252 10.9999 0.333252Z" fill="#05182E"/>
</svg>
