<svg width="36" height="35" viewBox="0 0 36 35" fill="none" xmlns="http://www.w3.org/2000/svg">
<path d="M24.9757 20.3515C24.9757 21.1293 24.8347 21.8634 24.5528 22.5342C18.4667 24.012 12.1715 22.6946 11.1847 22.471C10.9174 21.8147 10.7812 21.1002 10.7812 20.3515H10.8347C10.8347 20.3515 18.034 22.0967 24.8785 20.3856L24.9757 20.3515Z" stroke="#05182E" stroke-miterlimit="10" stroke-linecap="round" stroke-linejoin="round"/>
<path d="M24.5516 22.5342C23.6815 24.6099 21.4648 26.0488 17.8919 26.0488C14.2898 26.0488 12.044 24.5759 11.1836 22.471C12.1704 22.6946 18.4655 24.0119 24.5516 22.5342Z" stroke="#05182E" stroke-miterlimit="10" stroke-linejoin="round"/>
<path d="M24.7909 22.4759C24.7132 22.4953 24.6305 22.5147 24.5527 22.5342" stroke="#05182E" stroke-miterlimit="10" stroke-linejoin="round"/>
<path d="M11.1849 22.471C11.0926 22.4467 11.0488 22.4369 11.0488 22.4369" stroke="#05182E" stroke-miterlimit="10" stroke-linejoin="round"/>
<path d="M23.005 7.56345C21.4684 6.76846 19.7239 6.31944 17.8745 6.31944C15.9521 6.31944 14.1431 6.80453 12.5632 7.65897C12.5388 7.67214 12.5145 7.68542 12.4902 7.69878" stroke="#05182E" stroke-miterlimit="10" stroke-linecap="round" stroke-linejoin="round"/>
<path d="M6.78786 16.0394C6.72549 16.5174 6.69336 17.005 6.69336 17.5C6.69336 23.6747 11.6988 28.6806 17.8739 28.6806C24.0486 28.6806 29.0545 23.6747 29.0545 17.5C29.0545 17.0104 29.023 16.528 28.962 16.055" stroke="#05182E" stroke-miterlimit="10" stroke-linecap="round" stroke-linejoin="round"/>
<path d="M12.5849 10.3236L16.467 9.73993L14.5689 13.1763L16.3236 16.6881L12.4688 15.9448L9.67115 18.6989L9.18694 14.8031L5.70312 12.9934L9.25864 11.3289L9.90317 7.45642L12.5849 10.3236Z" stroke="#05182E" stroke-miterlimit="10" stroke-linecap="round" stroke-linejoin="round"/>
<path d="M23.1653 10.3236L19.2832 9.73993L21.1813 13.1763L19.4266 16.6881L23.2814 15.9448L26.079 18.6989L26.5633 14.8031L30.0471 12.9934L26.4915 11.3289L25.847 7.45642L23.1653 10.3236Z" stroke="#05182E" stroke-miterlimit="10" stroke-linecap="round" stroke-linejoin="round"/>
</svg>
