<svg width="18" height="18" viewBox="0 0 18 18" fill="none" xmlns="http://www.w3.org/2000/svg">
<path d="M8.16675 14H9.83342V12.3334H8.16675V14ZM9.00008 0.666687C4.40008 0.666687 0.666748 4.40002 0.666748 9.00002C0.666748 13.6 4.40008 17.3334 9.00008 17.3334C13.6001 17.3334 17.3334 13.6 17.3334 9.00002C17.3334 4.40002 13.6001 0.666687 9.00008 0.666687ZM9.00008 15.6667C5.32508 15.6667 2.33341 12.675 2.33341 9.00002C2.33341 5.32502 5.32508 2.33335 9.00008 2.33335C12.6751 2.33335 15.6667 5.32502 15.6667 9.00002C15.6667 12.675 12.6751 15.6667 9.00008 15.6667ZM9.00008 4.00002C7.15841 4.00002 5.66675 5.49169 5.66675 7.33335H7.33342C7.33342 6.41669 8.08342 5.66669 9.00008 5.66669C9.91675 5.66669 10.6667 6.41669 10.6667 7.33335C10.6667 9.00002 8.16675 8.79169 8.16675 11.5H9.83342C9.83342 9.62502 12.3334 9.41669 12.3334 7.33335C12.3334 5.49169 10.8417 4.00002 9.00008 4.00002Z" fill="#BEBEBE"/>
</svg>
