<svg width="36" height="35" viewBox="0 0 36 35" fill="none" xmlns="http://www.w3.org/2000/svg">
<path d="M18.3759 28.6806C24.5507 28.6806 29.5564 23.6748 29.5564 17.5C29.5564 11.3251 24.5507 6.31944 18.3759 6.31944C12.201 6.31944 7.19531 11.3251 7.19531 17.5C7.19531 23.6748 12.201 28.6806 18.3759 28.6806Z" stroke="#05182E" stroke-linecap="round" stroke-linejoin="round"/>
<path d="M23.1475 21.9852C21.8042 23.0927 20.1175 23.6983 18.3765 23.6983C16.6355 23.6983 14.9488 23.0927 13.6055 21.9852" stroke="#05182E" stroke-linecap="round" stroke-linejoin="round"/>
<path d="M16.2831 16.2379C16.1026 15.8317 15.8082 15.4866 15.4356 15.2444C15.0629 15.0022 14.628 14.8732 14.1835 14.8732C13.7391 14.8732 13.3042 15.0022 12.9315 15.2444C12.5588 15.4866 12.2644 15.8317 12.084 16.2379" stroke="#05182E" stroke-miterlimit="10" stroke-linecap="round"/>
<path d="M24.6679 16.2379C24.4874 15.8317 24.193 15.4866 23.8204 15.2444C23.4477 15.0022 23.0128 14.8732 22.5683 14.8732C22.1239 14.8732 21.6889 15.0022 21.3163 15.2444C20.9436 15.4866 20.6492 15.8317 20.4688 16.2379" stroke="#05182E" stroke-miterlimit="10" stroke-linecap="round"/>
</svg>
