<svg width="28" height="28" viewBox="0 0 28 28" fill="none" xmlns="http://www.w3.org/2000/svg">
<mask id="path-1-inside-1" fill="white">
<path fill-rule="evenodd" clip-rule="evenodd" d="M14.0001 0.666748L0.666748 10.6667V27.3334H11.3334V18.6667H16.6667V27.3334H27.3334V10.6667L14.0001 0.666748Z"/>
</mask>
<path fill-rule="evenodd" clip-rule="evenodd" d="M14.0001 0.666748L0.666748 10.6667V27.3334H11.3334V18.6667H16.6667V27.3334H27.3334V10.6667L14.0001 0.666748Z" fill="#05182E"/>
<path d="M0.666748 10.6667L-0.833252 8.66675C-1.46277 9.13888 -1.83325 9.87986 -1.83325 10.6667H0.666748ZM14.0001 0.666748L15.5001 -1.33325C14.6112 -1.99992 13.389 -1.99992 12.5001 -1.33325L14.0001 0.666748ZM0.666748 27.3334H-1.83325C-1.83325 28.7141 -0.713964 29.8334 0.666748 29.8334L0.666748 27.3334ZM11.3334 27.3334V29.8334C12.7141 29.8334 13.8334 28.7141 13.8334 27.3334H11.3334ZM11.3334 18.6667V16.1667C9.9527 16.1667 8.83341 17.286 8.83341 18.6667H11.3334ZM16.6667 18.6667H19.1667C19.1667 17.286 18.0475 16.1667 16.6667 16.1667V18.6667ZM16.6667 27.3334H14.1667C14.1667 28.7141 15.286 29.8334 16.6667 29.8334V27.3334ZM27.3334 27.3334V29.8334C28.7141 29.8334 29.8334 28.7141 29.8334 27.3334H27.3334ZM27.3334 10.6667H29.8334C29.8334 9.87986 29.4629 9.13888 28.8334 8.66675L27.3334 10.6667ZM2.16675 12.6667L15.5001 2.66675L12.5001 -1.33325L-0.833252 8.66675L2.16675 12.6667ZM3.16675 27.3334V10.6667H-1.83325V27.3334H3.16675ZM11.3334 24.8334H0.666748V29.8334H11.3334V24.8334ZM13.8334 27.3334V18.6667H8.83341V27.3334H13.8334ZM11.3334 21.1667H16.6667V16.1667H11.3334V21.1667ZM14.1667 18.6667V27.3334H19.1667V18.6667H14.1667ZM27.3334 24.8334H16.6667V29.8334H27.3334V24.8334ZM24.8334 10.6667V27.3334H29.8334V10.6667H24.8334ZM12.5001 2.66675L25.8334 12.6667L28.8334 8.66675L15.5001 -1.33325L12.5001 2.66675Z" fill="#05182E" mask="url(#path-1-inside-1)"/>
</svg>
