<svg width="16" height="14" viewBox="0 0 16 14" fill="none" xmlns="http://www.w3.org/2000/svg">
<path d="M13.7449 0.992502C11.7649 -0.357498 9.31992 0.272502 7.99992 1.8175C6.67992 0.272502 4.23492 -0.364998 2.25492 0.992502C1.20492 1.7125 0.544916 2.9275 0.499916 4.21C0.394916 7.12 2.97492 9.4525 6.91242 13.03L6.98742 13.0975C7.55742 13.615 8.43492 13.615 9.00492 13.09L9.08742 13.015C13.0249 9.445 15.5974 7.1125 15.4999 4.2025C15.4549 2.9275 14.7949 1.7125 13.7449 0.992502ZM8.07492 11.9125L7.99992 11.9875L7.92492 11.9125C4.35492 8.68 1.99992 6.5425 1.99992 4.375C1.99992 2.875 3.12492 1.75 4.62492 1.75C5.77992 1.75 6.90492 2.4925 7.30242 3.52H8.70492C9.09492 2.4925 10.2199 1.75 11.3749 1.75C12.8749 1.75 13.9999 2.875 13.9999 4.375C13.9999 6.5425 11.6449 8.68 8.07492 11.9125Z" fill="#05182E"/>
</svg>
