<svg width="20" height="20" viewBox="0 0 20 20" fill="none" xmlns="http://www.w3.org/2000/svg">
<path d="M19.4901 17.49L2.51012 0.51C2.12012 0.12 1.49012 0.12 1.10012 0.51C0.710117 0.9 0.710117 1.53 1.10012 1.92L8.64012 9.46L10.0001 11V16H6.00012C5.45012 16 5.00012 16.45 5.00012 17C5.00012 17.55 5.45012 18 6.00012 18H16.0001C16.3201 18 16.5901 17.84 16.7801 17.6L18.0801 18.9C18.4701 19.29 19.1001 19.29 19.4901 18.9C19.8801 18.51 19.8801 17.88 19.4901 17.49ZM12.0001 16V12.83L15.1701 16H12.0001ZM6.83012 2L4.83012 0H18.5501C19.3501 0 20.0001 0.65 20.0001 1.45C20.0001 1.8 19.8701 2.15 19.6301 2.41L13.8001 8.97L8.83012 4H15.5701L17.3501 2H6.83012Z" fill="#65BDC0"/>
</svg>
