<svg width="36" height="35" viewBox="0 0 36 35" fill="none" xmlns="http://www.w3.org/2000/svg">
<path d="M17.6259 28.6806C23.8007 28.6806 28.8064 23.6748 28.8064 17.5C28.8064 11.3251 23.8007 6.31944 17.6259 6.31944C11.451 6.31944 6.44531 11.3251 6.44531 17.5C6.44531 23.6748 11.451 28.6806 17.6259 28.6806Z" stroke="#05182E" stroke-miterlimit="10"/>
<path d="M13.25 22.3611H22" stroke="#05182E" stroke-miterlimit="10" stroke-linecap="round" stroke-linejoin="round"/>
<path d="M11.3066 16.0793C11.5075 16.2465 12.3983 16.9502 13.693 16.8748C14.7434 16.8136 15.4479 16.2752 15.6816 16.0793" stroke="#05182E" stroke-miterlimit="10" stroke-linecap="round" stroke-linejoin="round"/>
<path d="M20.0566 16.0793C20.2575 16.2465 21.1483 16.9502 22.443 16.8748C23.4934 16.8136 24.1979 16.2752 24.4316 16.0793" stroke="#05182E" stroke-miterlimit="10" stroke-linecap="round" stroke-linejoin="round"/>
<path d="M9.81836 13.2466C10.0552 13.3572 11.0957 13.8109 12.3286 13.4083C13.3288 13.0818 13.873 12.3818 14.0492 12.1328" stroke="#05182E" stroke-miterlimit="10" stroke-linecap="round" stroke-linejoin="round"/>
<path d="M25.7152 13.2466C25.4784 13.3572 24.4379 13.8109 23.205 13.4083C22.2048 13.0818 21.6606 12.3818 21.4844 12.1328" stroke="#05182E" stroke-miterlimit="10" stroke-linecap="round" stroke-linejoin="round"/>
</svg>
