<svg width="32" height="32" viewBox="0 0 32 32" fill="none" xmlns="http://www.w3.org/2000/svg">
<mask id="mask0" mask-type="alpha" maskUnits="userSpaceOnUse" x="0" y="0" width="32" height="32">
<path fill-rule="evenodd" clip-rule="evenodd" d="M32 0H0V32H32V0ZM8.5 14C11.5376 14 14 11.5376 14 8.5C14 5.46243 11.5376 3 8.5 3C5.46243 3 3 5.46243 3 8.5C3 11.5376 5.46243 14 8.5 14Z" fill="#C4C4C4"/>
</mask>
<g mask="url(#mask0)">
<path d="M25.7201 23.0533L24.0001 21.3333V14.6666C24.0001 10.5733 21.8134 7.14659 18.0001 6.23992V5.33325C18.0001 4.22659 17.1067 3.33325 16.0001 3.33325C14.8934 3.33325 14.0001 4.22659 14.0001 5.33325V6.23992C10.1734 7.14659 8.00007 10.5599 8.00007 14.6666V21.3333L6.28007 23.0533C5.44007 23.8933 6.02674 25.3333 7.2134 25.3333H24.7734C25.9734 25.3333 26.5601 23.8933 25.7201 23.0533ZM21.3334 22.6666H10.6667V14.6666C10.6667 11.3599 12.6801 8.66659 16.0001 8.66659C19.3201 8.66659 21.3334 11.3599 21.3334 14.6666V22.6666ZM16.0001 29.3333C17.4667 29.3333 18.6667 28.1333 18.6667 26.6666H13.3334C13.3334 28.1333 14.5201 29.3333 16.0001 29.3333Z" fill="#05182E"/>
</g>
<mask id="mask1" mask-type="alpha" maskUnits="userSpaceOnUse" x="5" y="5" width="7" height="7">
<circle cx="8.5" cy="8.5" r="3.5" fill="#EE777F"/>
</mask>
<g mask="url(#mask1)">
<circle cx="8.5" cy="8.5" r="3.5" fill="#EE777F"/>
</g>
</svg>
