<svg width="26" height="28" viewBox="0 0 26 28" fill="none" xmlns="http://www.w3.org/2000/svg">
<path d="M22.9065 15.3067C22.9598 14.8801 22.9998 14.4534 22.9998 14.0001C22.9998 13.5467 22.9598 13.1201 22.9065 12.6934L25.7198 10.4934C25.9731 10.2934 26.0398 9.93341 25.8798 9.64008L23.2131 5.02675C23.0931 4.81342 22.8665 4.69341 22.6265 4.69341C22.5465 4.69341 22.4665 4.70675 22.3998 4.73342L19.0798 6.06675C18.3865 5.53342 17.6398 5.09342 16.8265 4.76008L16.3198 1.22675C16.2798 0.906748 15.9998 0.666748 15.6665 0.666748H10.3331C9.99979 0.666748 9.71979 0.906748 9.67979 1.22675L9.17312 4.76008C8.35979 5.09342 7.61312 5.54675 6.91979 6.06675L3.59979 4.73342C3.51979 4.70675 3.43979 4.69341 3.35979 4.69341C3.13312 4.69341 2.90645 4.81342 2.78645 5.02675L0.119786 9.64008C-0.0535475 9.93341 0.0264527 10.2934 0.279786 10.4934L3.09312 12.6934C3.03979 13.1201 2.99979 13.5601 2.99979 14.0001C2.99979 14.4401 3.03979 14.8801 3.09312 15.3067L0.279786 17.5067C0.0264527 17.7067 -0.0402142 18.0667 0.119786 18.3601L2.78645 22.9734C2.90645 23.1867 3.13312 23.3067 3.37312 23.3067C3.45312 23.3067 3.53312 23.2934 3.59979 23.2668L6.91979 21.9334C7.61312 22.4667 8.35979 22.9067 9.17312 23.2401L9.67979 26.7734C9.71979 27.0934 9.99979 27.3334 10.3331 27.3334H15.6665C15.9998 27.3334 16.2798 27.0934 16.3198 26.7734L16.8265 23.2401C17.6398 22.9067 18.3865 22.4534 19.0798 21.9334L22.3998 23.2668C22.4798 23.2934 22.5598 23.3067 22.6398 23.3067C22.8665 23.3067 23.0931 23.1867 23.2131 22.9734L25.8798 18.3601C26.0398 18.0667 25.9731 17.7067 25.7198 17.5067L22.9065 15.3067ZM20.2665 13.0267C20.3198 13.4401 20.3331 13.7201 20.3331 14.0001C20.3331 14.2801 20.3065 14.5734 20.2665 14.9734L20.0798 16.4801L21.2665 17.4134L22.7065 18.5334L21.7731 20.1467L20.0798 19.4667L18.6931 18.9067L17.4931 19.8134C16.9198 20.2401 16.3731 20.5601 15.8265 20.7867L14.4131 21.3601L14.1998 22.8667L13.9331 24.6667H12.0665L11.8131 22.8667L11.5998 21.3601L10.1865 20.7867C9.61312 20.5467 9.07979 20.2401 8.54645 19.8401L7.33312 18.9067L5.91979 19.4801L4.22645 20.1601L3.29312 18.5467L4.73312 17.4267L5.91979 16.4934L5.73312 14.9867C5.69312 14.5734 5.66645 14.2667 5.66645 14.0001C5.66645 13.7334 5.69312 13.4267 5.73312 13.0267L5.91979 11.5201L4.73312 10.5867L3.29312 9.46675L4.22645 7.85341L5.91979 8.53341L7.30645 9.09341L8.50645 8.18675C9.07979 7.76008 9.62645 7.44008 10.1731 7.21341L11.5865 6.64008L11.7998 5.13341L12.0665 3.33341H13.9198L14.1731 5.13341L14.3865 6.64008L15.7998 7.21341C16.3731 7.45341 16.9065 7.76008 17.4398 8.16008L18.6531 9.09341L20.0665 8.52008L21.7598 7.84008L22.6931 9.45341L21.2665 10.5867L20.0798 11.5201L20.2665 13.0267ZM12.9998 8.66675C10.0531 8.66675 7.66645 11.0534 7.66645 14.0001C7.66645 16.9467 10.0531 19.3334 12.9998 19.3334C15.9465 19.3334 18.3331 16.9467 18.3331 14.0001C18.3331 11.0534 15.9465 8.66675 12.9998 8.66675ZM12.9998 16.6667C11.5331 16.6667 10.3331 15.4667 10.3331 14.0001C10.3331 12.5334 11.5331 11.3334 12.9998 11.3334C14.4665 11.3334 15.6665 12.5334 15.6665 14.0001C15.6665 15.4667 14.4665 16.6667 12.9998 16.6667Z" fill="#05182E"/>
</svg>
