<svg width="26" height="28" viewBox="0 0 26 28" fill="none" xmlns="http://www.w3.org/2000/svg">
<path d="M22.9067 15.3067C22.96 14.8801 23 14.4534 23 14.0001C23 13.5467 22.96 13.1201 22.9067 12.6934L25.72 10.4934C25.9734 10.2934 26.04 9.93341 25.88 9.64008L23.2134 5.02675C23.0534 4.73341 22.6934 4.62675 22.4 4.73342L19.08 6.06675C18.3867 5.53342 17.64 5.09342 16.8267 4.76008L16.32 1.22675C16.28 0.906748 16 0.666748 15.6667 0.666748H10.3334C10 0.666748 9.72003 0.906748 9.68003 1.22675L9.17336 4.76008C8.36003 5.09342 7.61336 5.54675 6.92003 6.06675L3.60003 4.73342C3.29336 4.61342 2.9467 4.73341 2.7867 5.02675L0.12003 9.64008C-0.0533034 9.93341 0.0266968 10.2934 0.28003 10.4934L3.09336 12.6934C3.04003 13.1201 3.00003 13.5601 3.00003 14.0001C3.00003 14.4401 3.04003 14.8801 3.09336 15.3067L0.28003 17.5067C0.0266968 17.7067 -0.03997 18.0667 0.12003 18.3601L2.7867 22.9734C2.9467 23.2667 3.3067 23.3734 3.60003 23.2668L6.92003 21.9334C7.61336 22.4667 8.36003 22.9067 9.17336 23.2401L9.68003 26.7734C9.72003 27.0934 10 27.3334 10.3334 27.3334H15.6667C16 27.3334 16.28 27.0934 16.32 26.7734L16.8267 23.2401C17.64 22.9067 18.3867 22.4534 19.08 21.9334L22.4 23.2668C22.7067 23.3867 23.0534 23.2667 23.2134 22.9734L25.88 18.3601C26.04 18.0667 25.9734 17.7067 25.72 17.5067L22.9067 15.3067ZM13 18.6667C10.4267 18.6667 8.33336 16.5734 8.33336 14.0001C8.33336 11.4267 10.4267 9.33342 13 9.33342C15.5734 9.33342 17.6667 11.4267 17.6667 14.0001C17.6667 16.5734 15.5734 18.6667 13 18.6667Z" fill="#05182E"/>
</svg>
