<svg width="36" height="35" viewBox="0 0 36 35" fill="none" xmlns="http://www.w3.org/2000/svg">
<path d="M23.7077 18.2097C23.7077 19.0152 23.0539 19.6681 22.2493 19.6681C21.4448 19.6681 20.791 19.0152 20.791 18.2097C20.791 17.4052 21.4448 16.7514 22.2493 16.7514C23.0539 16.7514 23.7077 17.4052 23.7077 18.2097Z" fill="#05182E"/>
<path d="M14.9577 18.2097C14.9577 19.0152 14.3039 19.6681 13.4993 19.6681C12.6948 19.6681 12.041 19.0152 12.041 18.2097C12.041 17.4052 12.6948 16.7514 13.4993 16.7514C14.3039 16.7514 14.9577 17.4052 14.9577 18.2097Z" fill="#05182E"/>
<path d="M17.875 29.8764C24.0486 29.8764 29.0555 24.8695 29.0555 18.6959C29.0555 16.3382 28.3259 14.1512 27.08 12.3473C26.5385 12.6607 25.836 12.8664 25.0539 12.9112C24.9082 12.9195 24.7905 12.9825 24.7777 13.0604C24.6438 13.876 23.3539 14.5158 21.7828 14.5158C21.3662 14.5158 20.9938 14.4776 20.6414 14.3985C20.5106 14.3692 20.362 14.3963 20.2732 14.4553C19.3588 15.063 17.9505 15.4451 16.3692 15.4451C13.9372 15.4451 11.88 14.5268 11.4352 13.3052C11.4061 13.2253 11.2827 13.1683 11.1306 13.1621C10.137 13.122 9.24691 12.8549 8.6033 12.4466C7.39872 14.2306 6.69531 16.3807 6.69531 18.6931C6.69531 24.8667 11.7023 29.8737 17.8759 29.8737L17.875 29.8764Z" stroke="#05182E" stroke-linecap="round" stroke-linejoin="round"/>
<path d="M17.8758 27.8979C19.2841 27.8979 20.4255 26.4751 20.4255 24.7197C20.4255 22.9644 19.2841 21.5415 17.8758 21.5415C16.4676 21.5415 15.3262 22.9644 15.3262 24.7197C15.3262 26.4751 16.4676 27.8979 17.8758 27.8979Z" stroke="#05182E" stroke-linecap="round" stroke-linejoin="round"/>
<path d="M11.545 7.20906C11.5333 7.27716 11.4254 7.33233 11.2918 7.33958C9.66433 7.428 8.41211 8.24423 8.41211 9.23736C8.41211 10.2898 9.84516 11.1429 11.6132 11.1429H11.8524C11.8524 11.1429 12.4498 11.6582 12.7964 12.4544C13.1115 13.1778 13.2722 14.1087 13.3783 14.7236C13.3915 14.8004 13.4039 14.8723 13.4157 14.9383C14.2469 15.2559 15.2688 15.4429 16.3669 15.4429C17.9482 15.4429 19.3565 15.0608 20.2708 14.4531C20.3597 14.3941 20.5083 14.3669 20.6391 14.3963C20.9915 14.4753 21.3639 14.5136 21.7805 14.5136C21.9961 14.5136 22.2065 14.5016 22.4095 14.4786C22.5157 13.8787 22.6732 13.0874 22.9491 12.4544C23.2959 11.6582 23.8931 11.1429 23.8931 11.1429H23.819C25.76 11.1422 27.3331 10.2407 27.3331 9.12944C27.3331 8.0634 25.8864 7.19083 24.0562 7.12034C23.9168 7.11497 23.8036 7.06502 23.777 6.99512C23.3681 5.92616 21.4825 5.12262 19.2527 5.12262C17.8031 5.12262 16.512 5.45692 15.674 5.98887C15.5926 6.04054 15.4563 6.06427 15.3364 6.0386C15.0133 5.96947 14.6723 5.93598 14.2903 5.93598C12.8499 5.93598 11.6677 6.49598 11.5447 7.20911L11.545 7.20906Z" stroke="#05182E" stroke-miterlimit="10" stroke-linecap="round" stroke-linejoin="round"/>
<path d="M11.7984 11.2C11.2311 11.2811 9.80534 11.6375 8.63867 12.4153" stroke="#05182E"/>
<path d="M23.709 11.2C24.2763 11.2811 25.9451 11.6375 27.1118 12.4153" stroke="#05182E"/>
<path d="M11.8574 11.1466C12.8608 11.4333 15.0395 11.6628 15.7278 10.2867C16.7599 11.3187 19.168 11.0032 20.028 10.2867C20.458 11.1466 22.178 11.8349 23.8984 11.1466" stroke="#05182E" stroke-linejoin="round"/>
</svg>
