<svg width="29" height="28" viewBox="0 0 29 28" fill="none" xmlns="http://www.w3.org/2000/svg">
<path d="M14.4863 0.666748C6.89625 0.666748 0.75 6.64008 0.75 14.0001C0.75 21.3601 6.89625 27.3334 14.4863 27.3334C22.09 27.3334 28.25 21.3601 28.25 14.0001C28.25 6.64008 22.09 0.666748 14.4863 0.666748ZM14.5 24.6667C8.4225 24.6667 3.5 19.8934 3.5 14.0001C3.5 8.10675 8.4225 3.33341 14.5 3.33341C20.5775 3.33341 25.5 8.10675 25.5 14.0001C25.5 19.8934 20.5775 24.6667 14.5 24.6667ZM14.1975 7.33342H14.115C13.565 7.33342 13.125 7.76008 13.125 8.29341V14.5867C13.125 15.0534 13.3725 15.4934 13.7988 15.7334L19.505 19.0534C19.9725 19.3201 20.5775 19.1867 20.8525 18.7334C21.1413 18.2801 20.99 17.6801 20.5088 17.4134L15.1875 14.3467V8.29341C15.1875 7.76008 14.7475 7.33342 14.1975 7.33342Z" fill="#05182E"/>
</svg>
