<svg width="29" height="28" viewBox="0 0 29 28" fill="none" xmlns="http://www.w3.org/2000/svg">
<path fill-rule="evenodd" clip-rule="evenodd" d="M14.4863 0.666504C6.89625 0.666504 0.75 6.63984 0.75 13.9998C0.75 21.3598 6.89625 27.3332 14.4863 27.3332C22.09 27.3332 28.25 21.3598 28.25 13.9998C28.25 6.63984 22.09 0.666504 14.4863 0.666504ZM14.1975 7.33317H14.115C13.565 7.33317 13.125 7.75984 13.125 8.29317V14.5865C13.125 15.0532 13.3725 15.4932 13.7988 15.7332L19.505 19.0532C19.9725 19.3198 20.5775 19.1865 20.8525 18.7332C21.1413 18.2798 20.99 17.6798 20.5088 17.4132L15.1875 14.3465V8.29317C15.1875 7.75984 14.7475 7.33317 14.1975 7.33317Z" fill="#05182E"/>
</svg>
