<svg width="14" height="14" viewBox="0 0 14 14" fill="none" xmlns="http://www.w3.org/2000/svg">
<path d="M6.25007 4.56256V7.32256C6.25007 7.58506 6.39257 7.83256 6.61757 7.96756L8.95757 9.35506C9.22757 9.51256 9.57257 9.42256 9.73007 9.16006C9.88757 8.89006 9.80507 8.54506 9.53507 8.38756L7.38257 7.10506V4.55506C7.37507 4.25506 7.12007 4.00006 6.81257 4.00006C6.50507 4.00006 6.25007 4.25506 6.25007 4.56256ZM13.7501 5.12506V1.15756C13.7501 0.82006 13.3451 0.65506 13.1126 0.89506L11.7776 2.23006C10.4201 0.87256 8.48507 0.09256 6.37007 0.28006C3.22757 0.56506 0.640066 3.09256 0.295066 6.23506C-0.154934 10.3001 3.01757 13.7501 7.00007 13.7501C10.4426 13.7501 13.2851 11.1701 13.6976 7.84006C13.7501 7.39006 13.3976 7.00006 12.9476 7.00006C12.5726 7.00006 12.2576 7.27756 12.2126 7.64506C11.8901 10.2626 9.63257 12.2876 6.92507 12.2501C4.14257 12.2126 1.79507 9.86506 1.75007 7.07506C1.70507 4.15006 4.08257 1.75006 7.00007 1.75006C8.44757 1.75006 9.76007 2.34256 10.7126 3.28756L9.14507 4.85506C8.90507 5.09506 9.07007 5.50006 9.40757 5.50006H13.3751C13.5851 5.50006 13.7501 5.33506 13.7501 5.12506Z" fill="#65BDC0"/>
</svg>
