<svg width="295" height="169" viewBox="0 0 295 169" fill="none" xmlns="http://www.w3.org/2000/svg">
<circle cx="15" cy="110" r="15" fill="#EDF7F9"/>
<path d="M15.3584 114H16.8184V106.954H15.3535L13.5322 108.219V109.547L15.3291 108.307H15.3584V114Z" fill="#6F707E"/>
<circle cx="31.5" cy="72.5" r="17.5" fill="#EDF7F9"/>
<path d="M28.8975 72.0732V72.0977H30.2646V72.0732C30.2646 71.4238 30.7676 70.9453 31.4512 70.9453C32.1055 70.9453 32.5693 71.3652 32.5693 71.8926C32.5693 72.3809 32.3496 72.7373 31.6367 73.4502L28.9805 76.0088V77H34.1025V75.8281H30.9238V75.7988L32.6426 74.1436C33.4189 73.3721 34.0049 72.7129 34.0049 71.834C34.0049 70.6572 32.9844 69.7979 31.5 69.7979C29.9619 69.7979 28.8975 70.7402 28.8975 72.0732Z" fill="#6F707E"/>
<circle cx="65" cy="115" r="20" fill="#EDF7F9"/>
<path d="M63.5625 115.924H64.4316C65.2275 115.924 65.7109 116.314 65.7109 116.959C65.7109 117.555 65.1934 117.97 64.4561 117.97C63.6797 117.97 63.1914 117.579 63.1475 116.983H61.7363C61.8047 118.282 62.8447 119.156 64.4365 119.156C66.0625 119.156 67.21 118.316 67.21 117.052C67.21 116.075 66.5312 115.44 65.4814 115.353V115.323C66.3457 115.167 66.9365 114.542 66.9365 113.678C66.9365 112.55 65.9355 111.798 64.4707 111.798C62.9424 111.798 61.9268 112.647 61.873 113.951H63.2305C63.2695 113.336 63.7236 112.931 64.4072 112.931C65.1396 112.931 65.5449 113.307 65.5449 113.878C65.5449 114.459 65.0908 114.859 64.417 114.859H63.5625V115.924Z" fill="#6F707E"/>
<circle cx="87.5" cy="66.5" r="23.5" fill="#EDF7F9"/>
<path d="M87.583 71.1562C89.1992 71.1562 90.3027 70.1406 90.3027 68.6465C90.3027 67.2744 89.3359 66.2832 87.9883 66.2832C87.2705 66.2832 86.709 66.5811 86.4209 67.0547H86.3916L86.5527 65.126H89.8779V63.9541H85.3955L85.0488 68.0068H86.3672C86.6113 67.6016 87.0703 67.3574 87.6025 67.3574C88.3643 67.3574 88.8965 67.9043 88.8965 68.6855C88.8965 69.4521 88.3643 69.9893 87.5928 69.9893C86.9092 69.9893 86.3818 69.5791 86.2988 68.9834H84.9365C84.9805 70.2578 86.0693 71.1562 87.583 71.1562Z" fill="#6F707E"/>
<circle cx="127" cy="122" r="27" fill="#EDF7F9"/>
<path d="M125.003 126H126.551L129.49 120.141V118.954H124.451V120.126H128.035V120.155L125.003 126Z" fill="#6F707E"/>
<circle cx="158" cy="58" r="32" fill="#EDF7F9"/>
<path d="M154.602 62H156.062V54.9541H154.597L152.775 56.2188V57.5469L154.572 56.3066H154.602V62ZM160.402 62.1562C162.175 62.1562 163.249 60.7354 163.249 58.46C163.249 56.1846 162.165 54.793 160.402 54.793C158.64 54.793 157.551 56.1895 157.551 58.4648C157.551 60.7451 158.63 62.1562 160.402 62.1562ZM160.402 60.9746C159.562 60.9746 159.05 60.0664 159.05 58.4648C159.05 56.8779 159.572 55.9746 160.402 55.9746C161.237 55.9746 161.75 56.873 161.75 58.4648C161.75 60.0713 161.242 60.9746 160.402 60.9746Z" fill="#6F707E"/>
<circle cx="206" cy="132" r="37" fill="#EDF7F9"/>
<path d="M202.616 136H204.076V128.954H202.611L200.79 130.219V131.547L202.587 130.307H202.616V136ZM209.018 136H210.419V134.745H211.337V133.563H210.419V128.954H208.339C206.894 131.083 206.127 132.318 205.512 133.49V134.745H209.018V136ZM206.806 133.568C207.377 132.465 207.992 131.503 209.018 129.999H209.047V133.607H206.806V133.568Z" fill="#6F707E"/>
<circle cx="250" cy="45" r="45" fill="#EE777F"/>
<path d="M241.418 44.0732V44.0977H242.785V44.0732C242.785 43.4238 243.288 42.9453 243.972 42.9453C244.626 42.9453 245.09 43.3652 245.09 43.8926C245.09 44.3809 244.87 44.7373 244.157 45.4502L241.501 48.0088V49H246.623V47.8281H243.444V47.7988L245.163 46.1436C245.939 45.3721 246.525 44.7129 246.525 43.834C246.525 42.6572 245.505 41.7979 244.021 41.7979C242.482 41.7979 241.418 42.7402 241.418 44.0732ZM250.266 49.1562C252.038 49.1562 253.112 47.7354 253.112 45.46C253.112 43.1846 252.028 41.793 250.266 41.793C248.503 41.793 247.414 43.1895 247.414 45.4648C247.414 47.7451 248.493 49.1562 250.266 49.1562ZM250.266 47.9746C249.426 47.9746 248.913 47.0664 248.913 45.4648C248.913 43.8779 249.436 42.9746 250.266 42.9746C251.101 42.9746 251.613 43.873 251.613 45.4648C251.613 47.0713 251.105 47.9746 250.266 47.9746ZM257.399 46.7979H259.392V45.5527H257.399V43.4434H256.12V45.5527H254.128V46.7979H256.12V48.9316H257.399V46.7979Z" fill="white"/>
</svg>
